<?xml version="1.0" encoding="utf-8"?>
<!-- Generator: Adobe Illustrator 18.1.1, SVG Export Plug-In . SVG Version: 6.00 Build 0)  -->
<svg version="1.1" id="Layer_1" xmlns="http://www.w3.org/2000/svg" xmlns:xlink="http://www.w3.org/1999/xlink" x="0px" y="0px"
	 viewBox="0 0 238.5 77.2" enable-background="new 0 0 238.5 77.2" xml:space="preserve">
<g>
	<path fill="#D1D1D1" d="M89.4,56.7c2.4,0,4.8,0,7.2,0c0.4,0,0.4,0.1,0.4,0.4c-0.3,2.6-0.4,5.2-0.6,7.8c-0.2,3.1-0.3,6.2-0.5,9.3
		c0,0.7-0.1,1.3-0.1,2c0,0.2-0.1,0.3-0.3,0.4c-2.5,0.4-5,0.8-7.5,1c-2.6,0.2-5.2,0.4-7.8,0.3c-3.4-0.1-6.7-0.5-10-1.6
		c-4.6-1.6-7.5-4.7-8.9-9.2c-1.9-5.9-1.2-11.6,2.2-16.8c2.7-4.1,6.5-6.6,11.1-7.8c3.4-0.9,6.9-1.1,10.4-0.9
		c3.4,0.1,6.8,0.6,10.2,1.3c0.3,0,0.3,0.1,0.3,0.4c0,2.6,0.1,5.1,0.3,7.7c0,0.3-0.1,0.4-0.4,0.3c-2.2-0.7-4.4-1.3-6.6-1.6
		c-3.3-0.4-6.6-0.5-9.8,0.6c-4.2,1.5-6.6,4.5-7.4,8.8c-0.3,1.8-0.3,3.5,0.1,5.3c0.7,2.9,2.5,4.7,5.3,5.6c1.8,0.6,3.7,0.7,5.6,0.5
		c1-0.1,1.9-0.3,2.9-0.5c0.2,0,0.3-0.1,0.3-0.4c0.1-1.6,0.2-3.3,0.3-4.9c0-0.3-0.1-0.4-0.4-0.4c-1.3,0-2.6,0-3.9,0
		c-0.3,0-0.4-0.1-0.4-0.4c0.2-2.2,0.3-4.4,0.3-6.6c0-0.4,0.2-0.3,0.4-0.3C84.6,56.7,87,56.7,89.4,56.7z"/>
	<path fill="#D1D1D1" d="M138.5,42c1.7,0,3.5,0,5.2,0c0.3,0,0.4,0.1,0.4,0.4c-0.3,3.6-0.5,7.3-0.8,10.9c-0.2,3.3-0.4,6.6-0.4,9.9
		c0,1,0.1,2,0.4,2.9c0.5,1.7,1.5,2.8,3.2,3.4c1.3,0.4,2.7,0.5,4.1,0.3c1.8-0.3,3.1-1.3,3.9-2.9c0.7-1.4,1-3,1.1-4.6
		c0.4-4.7,0.7-9.3,0.9-14c0.1-1.9,0.2-3.8,0.3-5.7c0-0.4,0.2-0.5,0.5-0.5c3.5,0,6.9,0,10.4,0c0.4,0,0.5,0.1,0.5,0.5
		c-0.3,3.5-0.5,7-0.7,10.5c-0.2,3.5-0.5,7.1-0.6,10.6c0,1.8-0.2,3.5-0.6,5.2c-0.7,2.9-2.5,4.9-5.1,6.4c-2.1,1.2-4.4,1.9-6.8,2.2
		c-2.3,0.3-4.6,0.5-6.9,0.4c-3.3-0.1-6.5-0.5-9.5-1.9c-1.2-0.5-2.3-1.2-3.4-2c-2.1-1.7-2.9-4-3-6.6c-0.1-2,0.1-3.9,0.2-5.9
		c0.3-3.5,0.6-7,0.7-10.5c0.1-2.9,0.3-5.8,0.4-8.7c0-0.3,0.2-0.3,0.4-0.3C135.1,42,136.8,42,138.5,42z"/>
	<path fill="#D1D1D1" d="M204.1,77.2c-0.3,0-0.6,0-0.8,0c-3.5,0-7.1,0-10.6,0c-0.2,0-0.4,0-0.5-0.3c-1.8-6.4-4.2-12.7-6.5-19
		c0-0.1-0.2-0.3-0.1-0.4c0.1-0.1,0.3,0,0.4,0c1.9,0.3,3.7,0.3,5.5-0.4c2.1-0.7,3.3-2.4,3.2-4.6c-0.1-1.3-0.8-2.2-2-2.7
		c-1.1-0.5-2.2-0.5-3.3-0.6c-1.7-0.1-3.3,0-5,0.1c-0.2,0-0.3,0.1-0.3,0.3c-0.3,4.3-0.4,8.6-0.6,12.9c-0.2,4.8-0.3,9.5-0.3,14.3
		c0,0.3-0.1,0.4-0.4,0.4c-3.4,0-6.8,0-10.2,0c-0.3,0-0.4-0.1-0.3-0.4c0.4-3.7,0.8-7.4,1-11.1c0.5-7.7,0.6-15.4,0.7-23.1
		c0-0.4,0.1-0.5,0.5-0.5c4.6,0.2,9.2,0,13.8-0.1c2.9-0.1,5.7,0,8.6,0.4c1.8,0.2,3.5,0.8,5.1,1.9c2,1.4,3.1,3.3,3.4,5.7
		c0.2,1.9,0.1,3.8-0.7,5.7c-0.9,2.1-2.3,3.6-4.3,4.7c-0.9,0.5-1.8,0.9-2.7,1.3c-0.3,0.1-0.4,0.2-0.2,0.6c1.7,4.3,3.7,8.5,5.6,12.7
		C203.4,75.5,203.7,76.3,204.1,77.2z"/>
	<path fill="#D1D1D1" d="M224.9,42c4.4,0,8.8,0,13.2,0c0.4,0,0.5,0.1,0.4,0.4c-0.2,2.3-0.3,4.7-0.4,7c0,0.3-0.1,0.3-0.4,0.3
		c-4.2-0.2-8.5-0.2-12.7-0.1c-0.9,0-1.7,0-2.6,0c-0.3,0-0.4,0.1-0.4,0.4c0,1.7-0.1,3.5-0.2,5.2c0,0.3,0.1,0.4,0.4,0.4
		c4.2,0.1,8.3,0.1,12.5,0c0.4,0,0.5,0.1,0.5,0.5c-0.1,2.3-0.3,4.6-0.3,6.8c0,0.3-0.1,0.3-0.4,0.3c-1.8,0-3.6-0.1-5.4-0.1
		c-2.5,0-5.1,0-7.6,0.1c-0.3,0-0.3,0.1-0.3,0.3c-0.1,2.1-0.1,4.2-0.2,6.4c-0.1,2.3-0.1,4.6-0.1,6.8c0,0.3-0.1,0.4-0.3,0.3
		c-3.6-0.1-7.3,0-10.9,0c-0.3,0-0.3-0.1-0.3-0.3c0.3-2.6,0.5-5.2,0.7-7.8c0.1-1.6,0.2-3.2,0.3-4.8c0.2-4.1,0.3-8.1,0.5-12.2
		c0.1-3.2,0.2-6.4,0.2-9.6c0-0.4,0.1-0.5,0.5-0.5C216,42,220.4,42,224.9,42z"/>
	<path fill="#D1D1D1" d="M101.2,67.9c1.2,0.5,2.4,1,3.7,1.4c2,0.6,4.1,1,6.3,0.9c0.9-0.1,1.9-0.2,2.7-0.7c1.3-0.6,1.7-2,1-3.2
		c-0.4-0.7-0.9-1.2-1.5-1.7c-2.3-2-4.6-4-6.8-6c-1.4-1.3-2.7-2.8-3.3-4.7c-0.9-2.9-0.4-5.6,1.4-8.1c1.4-1.9,3.4-3,5.6-3.7
		c2.4-0.7,4.9-0.8,7.5-0.7c2.5,0.1,4.9,0.4,7.4,0.9c0.5,0.1,0.6,0.2,0.6,0.7c0.1,2.5,0.3,5,0.6,7.6c0,0.1,0,0.2,0,0.3
		c-1-0.4-2.1-0.8-3.1-1c-1.7-0.4-3.5-0.7-5.3-0.6c-1,0.1-2,0.3-2.8,0.9c-1.1,0.7-1.4,1.9-0.7,3c0.6,1,1.5,1.7,2.3,2.5
		c1.7,1.4,3.5,2.7,5.1,4.1c1.3,1.2,2.6,2.5,3.5,4c1.5,2.4,1.4,4.9,0.4,7.5c-1.1,2.7-3.2,4.4-5.8,5.5c-1.7,0.7-3.4,1-5.2,1.1
		c-3.5,0.3-6.9-0.2-10.3-0.7c-0.7-0.1-1.3-0.3-2-0.3c-0.3,0-0.4-0.2-0.4-0.4c-0.1-1.2-0.2-2.5-0.3-3.7c-0.1-1.5-0.3-3-0.4-4.5
		C101.2,68,101.2,68,101.2,67.9z"/>
	<path fill="#D1D1D1" d="M36.4,55c3.4,0,6.7,0,10.1,0c0.3,0,0.5,0.1,0.5,0.4c0,5.8,0,11.5,0,17.3c0,2.4-1.5,4.2-3.9,4.6
		c-0.3,0-0.5,0-0.8,0c-5.7,0-11.4,0-17.1,0c-0.3,0-0.4-0.1-0.4-0.4c0-2.8,0-5.7,0-8.5c0-0.3,0.1-0.4,0.4-0.4c1.7,0,3.4,0,5.2,0
		c0.5,0,0.9-0.1,1.4-0.4c0.5-0.3,0.8-0.8,0.8-1.4c0-1.3,0-2.5,0-3.8c0-1.1-0.7-1.8-1.8-1.9c-1.5-0.1-2.9,0-4.4,0
		c-0.4,0-0.5-0.1-0.5-0.4c0-1.5,0-3,0-4.5c0-0.4,0.1-0.5,0.5-0.5C29.7,55,33.1,55,36.4,55z"/>
	<path fill="#D1D1D1" d="M42.4,18.9c0,2.5,0,5.1,0,7.6c0,0.4-0.1,0.5-0.5,0.5c-1.7,0-3.4,0-5,0c-0.3,0-0.4-0.1-0.4-0.4
		c0-4.9,0-9.9,0-14.8C36.5,9,34,6.3,31.3,6c-0.5-0.1-0.9-0.1-1.4-0.1c-4.4,0-8.8,0-13.2,0c-2.9,0-5.7,2.1-6.2,5.3c0,0.3,0,0.6,0,0.9
		c0,4.8,0,9.6,0,14.3c0,0.5,0,0.5-0.5,0.5c-1.7,0-3.4,0-5,0c-0.3,0-0.4-0.1-0.4-0.4c0-4.8,0-9.6,0-14.3c0-2.8,0.8-5.5,2.6-7.7
		c1.9-2.4,4.4-3.9,7.5-4.4C15.5,0,16.3,0,17.1,0c4.6,0,9.1,0,13.7,0c2.8,0,5.3,1.1,7.5,2.9c2.1,1.8,3.4,4.1,3.9,6.7
		c0.2,0.9,0.2,1.8,0.2,2.6C42.4,14.5,42.4,16.7,42.4,18.9z"/>
	<path fill="#D1D1D1" d="M16.8,53.8c0-3.8,0-7.7,0-11.5c0-0.4,0.1-0.5,0.5-0.5c4.2,0,8.4,0,12.6,0c0.4,0,0.5,0.1,0.5,0.5
		c0,0.5,0,1,0,1.5c0,0.4,0.1,0.5,0.5,0.5c2.4,0,4.9,0,7.3,0c2.8,0,5.7,0,8.5,0c0.3,0,0.4,0.1,0.4,0.4c0,2.5,0,5,0,7.5
		c0,0.4-0.1,0.4-0.5,0.4c-3.3,0-6.7-0.1-10,0c-4.2,0.1-8.3,0-12.5,0c-0.3,0-0.4,0.1-0.4,0.4c0,3,0,6,0,9.1c0,0.3,0.1,0.4,0.4,0.4
		c1.9,0,3.9,0,5.8,0c0.3,0,0.4,0.1,0.4,0.4c0,0.8,0,1.6,0,2.3c0,0.3-0.1,0.4-0.4,0.3c-4.3,0-8.6,0-12.8,0c-0.4,0-0.4-0.2-0.4-0.4
		C16.8,61.5,16.8,57.7,16.8,53.8z"/>
	<path fill="#D1D1D1" d="M34,30.3c2.8,0,5.6,0,8.4,0c2.4,0,4.2,1.5,4.6,3.9c0,0.2,0,0.5,0,0.7c0,2.2,0,4.5,0,6.7
		c0,0.3-0.1,0.4-0.4,0.4c-4.6,0-9.1,0-13.7,0c-0.3,0-0.4-0.1-0.4-0.4c0-1.3-0.7-2-2-2c-1.7,0-3.5,0-5.2,0c-0.3,0-0.4-0.1-0.4-0.4
		c0-2.9,0-5.7,0-8.6c0-0.3,0.1-0.4,0.4-0.4C28.1,30.4,31.1,30.3,34,30.3z"/>
	<path fill="#D1D1D1" d="M22.2,35c0,1.4,0,2.9,0,4.3c0,0.3-0.1,0.4-0.4,0.4c-1.7,0-3.4,0-5.2,0c-0.5,0-1,0.1-1.5,0.4
		c-0.5,0.4-0.7,0.9-0.6,1.6c0,0.3-0.1,0.4-0.4,0.4c-4.6,0-9.2,0-13.7,0C0.1,42.2,0,42,0,41.7c0-2.3,0-4.5,0-6.8
		c0-2.7,1.9-4.6,4.7-4.6c5.7,0,11.4,0,17.1,0c0.3,0,0.4,0.1,0.4,0.4C22.2,32.2,22.2,33.6,22.2,35z"/>
	<path fill="#D1D1D1" d="M13,77.3c-2.8,0-5.7,0-8.5,0c-2.3,0-4.1-1.5-4.5-3.8C0,73.3,0,73,0,72.7c0-2.2,0-4.4,0-6.6
		c0-0.4,0.1-0.4,0.4-0.4c4.6,0,9.1,0,13.7,0c0.3,0,0.5,0.1,0.5,0.4c0,1.2,0.7,1.9,1.9,1.9c1.8,0,3.6,0,5.3,0c0.3,0,0.4,0.1,0.4,0.4
		c0,2.9,0,5.7,0,8.6c0,0.3-0.1,0.4-0.4,0.4C18.9,77.3,15.9,77.3,13,77.3z"/>
	<path fill="#D1D1D1" d="M7.3,44.4c2.3,0,4.5,0,6.8,0c0.3,0,0.4,0,0.4,0.4c0,2.5,0,5.1,0,7.6c0,0.3-0.1,0.4-0.4,0.4
		c-4.6,0-9.2,0-13.9,0c-0.3,0-0.3-0.1-0.3-0.4c0-2.6,0-5.1,0-7.7c0-0.3,0.1-0.4,0.4-0.4C2.7,44.4,5,44.4,7.3,44.4z"/>
	<path fill="#D1D1D1" d="M7.3,55c2.3,0,4.5,0,6.8,0c0.4,0,0.5,0.1,0.5,0.5c0,2.5,0,5,0,7.5c0,0.3-0.1,0.4-0.4,0.4
		c-4.6,0-9.2,0-13.8,0C0.1,63.4,0,63.3,0,63c0-2.5,0-5.1,0-7.6C0,55.1,0.1,55,0.4,55C2.7,55,5,55,7.3,55z"/>
</g>
</svg>
