<?xml version="1.0" encoding="utf-8"?>
<!-- Generator: Adobe Illustrator 18.1.1, SVG Export Plug-In . SVG Version: 6.00 Build 0)  -->
<svg version="1.1" id="Layer_1" xmlns="http://www.w3.org/2000/svg" xmlns:xlink="http://www.w3.org/1999/xlink" x="0px" y="0px"
	 viewBox="0 0 183.2 179.4" enable-background="new 0 0 183.2 179.4" xml:space="preserve">
<g>
	<path fill="#D1D1D1" d="M108.5,73.6c0.3,0.4,0.4,0.8,0.6,1.2c2.6,5.6,6.5,10.1,11.5,13.7c2.2,1.5,4.5,2.8,6.9,3.9
		c0.2,0.1,0.4,0.1,0.6,0.3c-0.3,0.4-0.4,0.8-0.3,1.3c0.4,2.1,0.4,4.2,0.1,6.3c-0.1,0.9,0,0.9,0.8,1.2c2,0.7,4.1,1.3,6.1,1.8
		c0.2,0.1,0.5,0.1,0.7,0.2c0.1,0.1,0.2,0.2,0.1,0.3c-0.8,0.3-1.6,0-2.4,0c-2-0.1-4.1-0.3-6.1-0.5c-1.9-0.2-3.8-0.3-5.6-0.4
		c-1.5-0.1-3.1-0.4-4.6-0.3c-2-0.3-4.1-0.6-6.1-0.8c-2.7-0.3-5.4-0.7-8.2-0.8c-1.3,0-2.6,0-4,0c2.1,1.5,4.4,2.5,6.7,3.5
		c5,2.1,10.1,3.3,15.5,3.9c0.3,0,0.7-0.1,1,0.2c-0.1,0.4-0.5,0.4-0.7,0.4c-0.5,0-0.9,0.3-1.2,0.7c-0.3,0.4-0.6,0.8-1.1,1.1
		c-1.2-0.1-2.3-0.3-3.5-0.6c-5.2-1-10.2-2.7-15-5c-6.9-3.4-13-8-17.9-14c-0.1-0.1-0.2-0.3-0.3-0.4c0.3-0.2,0.5-0.5,0.6-0.9
		c1.2-3.7,3.3-6.9,6-9.6c1.6-1.5,3.4-2.8,5.3-3.8c0.7-0.4,1.4-0.7,2.1-1.1c-0.5-0.2-1-0.2-1.5-0.3c-2.4-0.3-4.8-0.7-7.3-0.9
		c-0.4,0-0.5-0.1-0.3-0.4c0.2-0.1,0.5-0.1,0.7-0.1c5.6-0.2,11.2-0.1,16.8-0.1c0.4,0,0.9,0.1,1.3-0.2c0.2-0.2,0.4,0,0.6,0.1
		C107.1,73.9,107.8,74,108.5,73.6z"/>
	<path fill="#D1D1D1" d="M153.9,6.4c1.5,0.7,2.9,1.5,4.2,2.3c6.1,3.7,11.4,8.3,15.7,14.1c0.9,1.3,1.9,2.5,2.6,3.9
		c-0.3,0.3-0.4,0.6-0.5,1c-1.3,7.1-4.2,13.5-8.5,19.3c-0.4,0.6-0.9,1.3-1.5,1.7c-0.5,0.1-1.1,0.1-1.7,0.1c-4.5,0-9.1,0-13.6,0.1
		c-10,0-20,0.1-30,0.1c-5.6,0-11.3,0.1-16.9,0.1c-0.2,0-0.5,0-0.7,0c-1-0.9-2.2-1-3.4-1c-1.4,0-2.7-0.2-4.1-0.2c-0.1,0-0.2,0-0.3,0
		c-0.2,0-0.4-0.1-0.4-0.3c0-0.2,0.2-0.3,0.4-0.3c1.7,0,3.5-0.2,5.2-0.1c0.1,0,0.2,0,0.3,0.1c0.2,0.2,0.5,0.2,0.8,0.2
		c1.8,0,3.5-0.1,5.3-0.1c3.6,0,7.3,0,10.9,0.1c8,0.1,16,0.1,24,0c2,0,4-0.1,6-0.1c0.2,0,0.8,0.2,0.5-0.4c-0.4-0.5-0.9-0.7-1.5-0.7
		c-1,0-1.9,0.1-2.9,0.1c-2.3,0-4.6,0.1-6.9,0.2c-3.3,0.1-6.5,0.2-9.8,0.3c-1.2,0-2.4,0-3.6,0.1c-1.5,0.1-2.9,0.1-4.4,0.1
		c-2.1,0-4.1,0.1-6.2,0.2c-3.7,0.1-7.4,0.2-11.2,0.3c-0.3,0-0.6,0.1-0.8-0.1c-0.2-0.2-0.2-0.4,0-0.6c0.5-0.1,1-0.1,1.5-0.1
		c2.5-0.1,4.9-0.2,7.4-0.2c2.4-0.1,4.8-0.1,7.2-0.2c3.2-0.1,6.4-0.2,9.6-0.3c2.3-0.1,4.6-0.1,6.9-0.2c3.2-0.1,6.4-0.2,9.7-0.3
		c1.4,0,2.9-0.1,4.3-0.1c0.1,0,0.3,0,0.5,0c0.1-0.2,0-0.5,0-0.7c-0.4-2.2-1-4.4-1.9-6.5c0-0.1-0.1-0.2-0.1-0.4
		c0.1-0.3,0.3-0.5,0.5-0.6c3.9-3.6,6.3-8,7.4-13.1c0.3-1.5,0.5-1.5,2-1.4c1.6,0.1,3.2,0.4,4.9,0.5c1.9,0.4,3.8,0.9,5.6,1.3
		c1.5,0.4,2.9,0.7,4.4,1.1c0.2,0.1,0.4,0.1,0.7,0c-0.7-1.1-1.6-2.1-2.5-3c-1.1-1.1-1.9-2.4-3.2-3.2c-1.1-1.1-2.2-2.1-3.4-3.1
		c-0.3-0.2-0.6-0.5-0.9-0.7c-0.9-0.7-1.7-1.3-2.7-1.9c-1.1-0.7-2.1-1.5-3.3-2.2c-0.2-0.1-0.3-0.2-0.3-0.4c-0.4-1.3-0.9-2.6-1.5-3.8
		C153.6,6.7,153.6,6.6,153.9,6.4z"/>
	<path fill="#D1D1D1" d="M86.9,74c0.1,0.1,0.1,0.1,0.2,0.1c1.1,0,2.2,0.3,3.3,0.4c1.5,0.1,2.9,0.4,4.3,0.6c0.5,0,0.9,0,1.4,0.2
		c0.1,0,0.2,0.1,0.2,0.2c0,0.1-0.1,0.1-0.2,0.2c-2.2,0.9-4.2,2.1-6,3.5c-1,0.8-2,1.7-2.8,2.7c-1.5,1.8-2.8,3.8-3.8,5.9
		c-0.3,0.7-0.6,1.5-0.9,2.2c-0.1,0.2-0.2,0.4-0.2,0.6c-0.1,0.3-0.3,0.3-0.5,0.2c-0.6-0.6-1.1-1.3-1.5-1.9c-3.2-4.4-5.6-9.2-7.1-14.4
		c-0.7-2.6-1.2-5.2-1.5-7.8c-0.1-1.2-0.2-2.5-0.2-3.7c0-0.4,0-0.4,0.5-0.5c0.1,0,0.2,0,0.3,0c11,0,22,0,33.1,0
		c0.9,0,0.8-0.1,0.8,0.8c0,1.8,0.2,3.5,0.6,5.2c0,0.2,0,0.3,0.1,0.5c0.1,0.1,0,0.3,0.1,0.4c0,0,0,0.1,0,0.1c0.1,0.1,0,0.3,0.1,0.4
		c0,0,0,0.1,0,0.1c0.1,0.1,0,0.3,0.1,0.4c0.2,0.7,0.4,1.4,0.6,2.1c0.1,0.4,0.2,0.8,0.4,1.1c0,0.3-0.2,0.4-0.5,0.4
		c-0.7,0.1-1.4-0.1-1.9-0.6c-0.3,0-0.3-0.3-0.4-0.5c-0.1-0.4-0.3-0.9-0.4-1.3c-0.3-1.2-0.5-2.5-0.6-3.7c-0.1-0.6,0.1-1.2-0.2-1.8
		c-0.1-0.3-0.3-0.5-0.6-0.5c-0.2,0-0.3,0-0.5,0c-9,0-18.1,0-27.1,0c-0.2,0-0.3,0-0.5,0c-0.5,0.2-0.2,0.6-0.2,0.9c0,0.1,0,0.1,0,0.2
		c0,0.4,0,0.8,0,1.2c0,0.9,0.2,1.9,0.3,2.8c0.1,0.7,0.2,1.3,0.3,2c0.1,0.5,0.3,0.7,0.9,0.7c2.2,0.1,4.3,0.2,6.5,0.3
		c0.9,0,1.9,0.1,2.8,0.1C86.6,73.8,86.8,73.8,86.9,74z"/>
	<path fill="#D1D1D1" d="M160.9,23.2c-0.8,0-1.5-0.1-2.3-0.2c-0.4-0.1-0.9-0.1-1.3-0.1c-0.8-0.1-1.5-0.2-2.3-0.2
		c-0.5,0-0.6,0.1-0.7,0.6c-0.3,1.4-0.6,2.7-1.1,4c-0.8,2.1-1.8,4.1-3.1,6c-0.8,1.1-1.6,2-2.5,3c-0.5,0.6-1.1,1-1.6,1.4
		c-0.5-1-1-2-1.5-3c-2-3.6-4.6-6.8-7.7-9.5c-0.2-0.2-0.5-0.3-0.7-0.6c-0.2-0.4,0.1-0.7,0.3-0.9c1.1-1.5,1.6-3.1,1.5-4.9
		c0-1.5,0.2-1.6,1.6-1.6c1.4,0,2.7,0.1,4.1,0.2c0.9,0.2,1.8,0.4,2.7,0.7c1.4,0.5,2.9,1,4.3,1.5c2.3,0.8,4.6,1.5,6.9,2.3
		c0.9,0.3,1.9,0.5,2.8,1C160.6,22.9,160.9,22.9,160.9,23.2z"/>
	<path fill="#D1D1D1" d="M135.6,103.8c-0.4-0.2-0.8-0.2-1.2-0.4c-1-0.3-2.1-0.5-3.2-0.9c-1-0.3-1.9-0.6-2.9-0.9
		c-0.1,0-0.3-0.1-0.4-0.2c-0.3-0.1-0.4-0.4-0.4-0.7c0.3-1.5,0.3-3.1,0.2-4.6c0-0.8-0.1-1.7-0.3-2.5c-0.2-0.6-0.1-0.7,0.5-0.9
		c0.4,0.3,0.9,0.4,1.4,0.6c1,0.3,1.9,0.7,2.9,0.9c1.4,0.4,2.8,0.7,4.2,1c3.5,0.7,7,0.9,10.5,0.8c0.5,0,1.1-0.1,1.6-0.1
		c-0.2,0.5-0.2,1-0.2,1.6c0,1.5-0.1,2.9-0.2,4.4c-0.1,0.9,0,1.1,0.9,1.3c0.2,0.1,0.5,0.1,0.7,0.2c0.2,0.1,0.4,0.1,0.4,0.4
		c0,0.2-0.1,0.4-0.3,0.5c-0.3,0.2-0.7,0.4-1.1,0.6c-0.8,0.4-1.3,0.9-1.4,1.9c-0.1,0.6-0.1,1.1-0.5,1.6c-0.6,0.3-1.2,0.4-1.8,0.6
		c-1.9,0.5-3.8,1-5.7,1.4c-0.1,0-0.3,0-0.4,0c-0.1,0.1-0.3,0-0.4,0.1c-0.6,0.1-1.3,0.3-1.9,0.3c-0.1,0.1-0.3,0-0.4,0.1
		c-0.2,0-0.3,0-0.5,0.1c-0.2,0.1-0.4,0-0.5,0.1c-0.2,0-0.3,0-0.5,0c-0.2,0.1-0.4,0-0.5,0.1c-0.2,0-0.4,0-0.6,0
		c-0.2,0.1-0.5,0-0.8,0.1c-0.2,0-0.5,0-0.7,0c-0.3,0.1-0.7,0-1,0.1c-0.4,0-0.8,0-1.2,0c-0.2-0.2,0-0.4,0.1-0.6
		c0.3-0.8,0.7-1.6,1.6-2c0.1-0.1,0.2-0.1,0.4-0.1c0.3,0,0.5,0,0.8-0.1c0.2,0,0.3,0,0.5-0.1c0.2,0,0.4,0,0.5-0.1c0.1,0,0.2,0,0.3,0
		c0.2,0,0.4,0,0.5-0.1c0.1,0,0.2,0,0.4-0.1c0.1,0,0.3,0,0.4-0.1c0.1,0,0.3,0,0.5-0.1c0.2,0,0.3,0,0.4-0.1c0.3-0.1,0.6-0.1,0.9-0.2
		c0.2,0,0.3,0,0.5-0.1c0.1,0,0.2,0,0.3-0.1c2.7-0.6,5.3-1.2,7.9-2.3c-0.5-0.3-1-0.2-1.4-0.3c-2.7-0.3-5.4-0.7-8.1-1.1
		C136.1,104.1,135.8,104,135.6,103.8z"/>
	<path fill="#D1D1D1" d="M166,48.7c0.3-0.6,0.8-1.1,1.2-1.6c1.2-1.7,2.3-3.4,3.4-5.1c0.7-1.2,1.3-2.4,1.9-3.6
		c0.9-1.9,1.6-3.8,2.2-5.8c0.5-1.7,1-3.5,1.3-5.3c0.1-0.3,0.1-0.7,0.6-0.6c0.8,1.1,1.4,2.4,2,3.6c2.3,4.5,3.7,9.3,4.4,14.3
		c0.2,1.2,0.3,2.4,0.3,3.6c0,0.5,0,0.5-0.5,0.5c-5.5,0-11,0-16.5,0C166.1,48.7,166.1,48.7,166,48.7z"/>
	<path fill="#D1D1D1" d="M146.9,108.3c0.1-0.9,0.3-1.7,0.5-2.6c0.1-0.3,0.3-0.4,0.5-0.6c0.5-0.3,1-0.6,1.5-0.8
		c0.2-0.1,0.3-0.2,0.5-0.2c0.1-0.1,0.2-0.1,0.2-0.3c0-0.2-0.1-0.2-0.3-0.2c-0.3-0.1-0.6-0.2-0.9-0.2c-1-0.2-1.1-0.3-1-1.4
		c0.2-1.8,0.3-3.6,0.2-5.4c0-0.3,0.2-0.4,0.4-0.6c0.1,0,0.2-0.1,0.3,0c0.3-0.1,0.6,0,0.9-0.1c0.1,0,0.1,0,0.2,0
		c0.3-0.1,0.6,0,0.8-0.1c0.1,0,0.1,0,0.2,0c0.2-0.1,0.4,0,0.6-0.1c0.1,0,0.1,0,0.2,0c0.2-0.1,0.4,0,0.6-0.1c0.1,0,0.1,0,0.2,0
		c0.1-0.1,0.3,0,0.4-0.1c1.4-0.3,2.8-0.6,4.2-1.1c3.2-1,6.3-2.3,9.2-4.1c0.1-0.1,0.2-0.1,0.3-0.2c0,1,0.1,2,0.2,3.1
		c0.1,1.2,0.2,2.4,0.2,3.5c-0.7,0.8-1.6,1.5-2.4,2.1c-5.3,4.2-11.1,7.3-17.4,9.5C147.2,108.2,147,108.3,146.9,108.3z"/>
	<path fill="#D1D1D1" d="M153.9,6.4c-0.3,0.3-0.1,0.5,0,0.8c0.4,0.9,0.8,1.7,1.1,2.6c0.2,0.4,0.3,0.9,0.4,1.3
		c-0.3,0.1-0.5-0.1-0.7-0.2c-0.5-0.3-1-0.6-1.6-0.8c-5.4-2.9-11.2-4.9-17.3-5.9c-2.8-0.5-5.7-0.7-8.5-0.6c-1.2,0.1-2.5,0.1-3.7,0.2
		c-0.3,0-0.6,0-0.9,0.1c-0.2,0-0.3,0.1-0.5,0.1c-0.3,0-0.5,0-0.8,0.1c-0.2,0-0.3,0.1-0.5,0.1c-0.3,0-0.5,0-0.8,0.1
		c-0.1,0-0.1,0-0.2,0c-2,0.2-4,0.5-5.9,0.9c-0.2,0-0.3,0-0.5,0.1c-0.8,0.2-1.6,0.4-2.4,0.6c-0.7,0.2-1.5,0.4-2.2,0.6
		c-0.7,0.1-1.3,0.5-2,0.5c-0.3-0.3,0-0.6,0.1-0.8c0.5-0.8,0.9-1.6,1.5-2.3c0.2-0.2,0.4-0.5,0-0.7c1-0.4,2.1-0.7,3.2-1
		c3.3-0.9,6.7-1.5,10.1-1.8c3.2-0.3,6.4-0.4,9.6-0.1c7.8,0.6,15.1,2.6,22.1,6C153.7,6.2,153.8,6.2,153.9,6.4z"/>
	<path fill="#D1D1D1" d="M54.6,135.4c-0.1-4.7,3.4-9.9,8.8-11c2-0.4,4-0.4,5.9,0.3c3,0.9,4.8,3.3,5.1,6.4c0.4,4.8-2.4,9.5-6.6,11.4
		c-1.8,0.8-3.7,1.1-5.7,1c-0.8-0.1-1.6-0.2-2.4-0.4c-2.8-0.8-4.4-2.7-5-5.6C54.7,136.8,54.7,136.1,54.6,135.4z"/>
	<path fill="#D1D1D1" d="M108.4,3.1c0.1,0,0.1,0,0.2,0c0.3,0.1,0.4,0.1,0.2,0.4c-0.2,0.3-0.4,0.6-0.6,0.9c-0.5,0.8-1.1,1.6-1.5,2.5
		c0,0.1-0.1,0.1-0.1,0.2c-0.5,0.3-1.1,0.4-1.6,0.6c-0.4,0.1-0.7,0.2-1,0.4c-0.9,0.4-1.7,0.7-2.6,1.1c-0.1,0-0.2,0.1-0.2,0.1
		c-0.1,0.1-0.3,0.1-0.2,0.3c0,0.2,0.2,0.2,0.3,0.2c0.8,0.2,1.5,0.4,2.3,0.6c0.1,0,0.2,0,0.2,0.1c1.4,0.4,1.5,0.5,1.1,2
		c-0.2,0.8-0.4,1.7-0.5,2.5c-0.1,0.3-0.1,0.6-0.3,0.9c-0.8,0.2-1.7,0.3-2.5,0.5c-4.7,1-9.2,2.7-13.3,5.2c-0.2,0.1-0.3,0.2-0.5,0.3
		c-0.1-0.1-0.2-0.2-0.2-0.4c0-1.2-0.3-2.3-0.1-3.5c0.1-0.9,0-1.9,0.1-2.8c0.6-0.7,1.3-1.2,2-1.8c5.5-4.5,11.7-7.9,18.5-10.1
		C108.3,3.1,108.4,3.1,108.4,3.1z"/>
	<path fill="#D1D1D1" d="M170.1,137.8c0,0.1,0.1,0.1,0.1,0.2c0.5,2,2,3.4,4.7,3.5c1.6,0.1,3.2-0.1,4.6-0.9c0,0,0.1,0,0.1-0.1
		c0.2-0.1,0.4,0,0.5,0.2c0.2,0.2,0,0.3-0.1,0.4c-0.3,0.4-0.5,0.8-0.8,1.3c-0.2,0.3-0.4,0.5-0.7,0.6c-1.8,0.6-3.7,0.7-5.5,0.6
		c-1.3-0.1-2.6-0.4-3.7-0.9c-2.9-1.4-4.4-3.7-4.4-6.9c-0.1-2.2,0.3-4.4,1.5-6.3c1.9-3.3,4.8-5.1,8.7-5.1c1,0,1.9,0.1,2.9,0.3
		c2.5,0.7,4,2.3,4.5,4.9c0.3,1.5,0.2,2.9-0.1,4.4c-0.1,0.1,0,0.4-0.1,0.5l0,0c-1,0.1-1.9,0-2.9,0.1c-0.3,0-0.4-0.2-0.4-0.4
		c-0.1-0.4-0.1-0.7-0.2-1.1c-0.1-0.7-0.5-1.3-0.9-1.9c-0.2-0.6-0.1-1.3-0.1-1.9c0-0.4,0-0.7-0.1-1.1c-0.3-1.2-1.2-1.9-2.5-1.7
		c-1.6,0.2-2.6,1.1-3.3,2.5c-0.1,0.3-0.2,0.6-0.5,0.8c-1,0.4-1.7,1.2-2.2,2.2c-0.8,1.8-0.6,3.6,0.6,5.2
		C169.8,137.2,170,137.5,170.1,137.8z"/>
	<path fill="#D1D1D1" d="M141.7,129.5c0-0.3,0-0.5,0-0.8c-0.2-1.3-1-2.2-2.4-2.4c-1.9-0.3-3.6,0.1-4.9,1.6c-0.1,0.1-0.1,0.2-0.3,0.2
		c-0.1-0.1,0-0.3,0-0.5c0.1-0.5,0.2-1,0.2-1.5c0-0.3,0.1-0.4,0.4-0.6c1.4-0.8,3-1.2,4.6-1.4c1.3-0.1,2.5-0.1,3.8,0.2
		c0.7,0.2,1.3,0.4,1.8,0.8c1.3,1,1.8,2.3,1.7,3.9c-0.3,2.6-1,5.1-1.5,7.7c-0.2,1.1-0.5,2.1-0.6,3.2c0,0.2,0,0.4,0,0.6
		c0.1,0.7,0.4,1,1.2,1.1c0.3,0,0.6,0,0.9,0c0.1,0.8,0,0.8-0.7,1.1c-1.2,0.5-2.3,0.6-3.6,0.3c-1.1-0.2-1.9-0.9-2.4-1.9
		c-0.1-0.1-0.1-0.2-0.2-0.3c0,0,0,0-0.1,0c-0.1,0-0.1,0.1-0.2,0.2c-1.4,2.1-3.4,2.8-5.8,2.4c-2-0.3-3.3-1.4-3.9-3.4
		c-0.4-1.3-0.3-2.6,0.1-3.9c0.4-1.2,1.2-2.1,2.3-2.6c0.2-0.1,0.3-0.2,0.5-0.2c0.2,0.2,0.2,0.4,0.2,0.6c0.1,1.2,0.5,2.4,1.4,3.3
		c0.2,0.3,0.4,0.6,0.5,0.9c0.1,0.3,0.1,0.5,0.2,0.8c0.4,1.7,2.1,2.2,3.5,1c0.4-0.4,0.6-0.9,1-1.3c1-0.4,2-0.9,2.6-1.8
		c1.5-2,1.4-4.4-0.2-6.3C141.8,130.3,141.5,130,141.7,129.5z"/>
	<path fill="#D1D1D1" d="M143.7,17.6c-1-0.1-2.1-0.1-3.1-0.2c-0.2,0-0.3,0-0.5,0c-0.2,0.1-0.3,0.1-0.5,0c-0.4-0.2-0.8,0.1-1.2,0.1
		c-0.3,0-0.3,0.3-0.3,0.5c0,0.5,0,1,0,1.5c0,1.5-0.5,2.9-1.4,4.2c-0.2,0.3-0.4,0.6-0.5,0.9c-1.4-1.1-2.8-2.1-4.2-3
		c-3.6-2.2-7.4-3.8-11.5-4.9c-0.1,0-0.3,0-0.3-0.1c-0.2-0.2,0-0.4,0-0.7c0.3-0.9,0.6-1.7,1.1-2.5c0.3-0.4,0.2-0.6-0.3-0.8
		c-0.8-0.3-1.7-0.5-2.5-0.8c-0.2-0.1-0.6,0-0.4-0.5c0.9-0.3,1.7,0,2.6,0.1c0.2,0,0.5,0,0.7,0.1c0.1,0,0.1,0,0.2,0
		c0.2,0.1,0.4,0.1,0.6,0.1c3.4,0.7,6.9,1.1,10.3,2c2.9,0.8,5.8,1.8,8.7,2.8c0.7,0.2,1.4,0.4,2,0.6C143.4,17.2,143.7,17.2,143.7,17.6
		z"/>
	<path fill="#D1D1D1" d="M161.8,49.9c1.3-0.2,2.6-0.1,3.9-0.1c3.5-0.1,7-0.2,10.5-0.3c2.2-0.1,4.4-0.1,6.6-0.2c0.4,0,0.5,0,0.5,0.4
		c0,1.2,0,2.4,0,3.6c0,0.4-0.1,0.4-0.4,0.4c-1.7,0-3.4,0-5.1,0c-4.3,0-8.6,0-12.9,0c-0.2,0-0.3,0-0.5,0c-0.7,0.1-1.3,0-2,0
		c-0.3,0-0.4-0.1-0.4-0.3c-0.1-1.1-0.1-2.2-0.1-3.3C161.7,50.1,161.8,50,161.8,49.9z"/>
	<path fill="#D1D1D1" d="M164.8,55.2c1.8-0.1,3.6-0.1,5.4-0.2c3.8-0.1,7.6-0.2,11.4-0.3c0.4,0,0.8,0,1.3,0c0.2,0,0.4,0.1,0.3,0.3
		c0,1.3,0,2.6,0,3.9c0,0.2-0.1,0.3-0.3,0.3c-0.1,0-0.3,0-0.4,0c-1.9,0-3.7,0-5.6,0c-0.2,0-0.4,0-0.6,0c-0.2,0.1-0.4,0-0.6,0
		c-4.2,0-8.5,0-12.7,0c-0.7,0-0.8-0.1-0.8-0.8c0-0.8,0-1.6-0.1-2.4c-0.1-0.6,0.1-0.7,0.7-0.7C163.4,55.2,164.1,55.3,164.8,55.2z"/>
	<path fill="#D1D1D1" d="M110.1,138.5c-0.7,1.4-1.4,2.9-2.2,4.3c-0.1,0.3-0.4,0.2-0.6,0.2c-1.2-0.2-2.4-0.2-3.6,0
		c-0.1-0.3-0.1-0.6-0.2-0.8c-0.1-2.6-0.3-5.3-0.6-7.9c-0.3-3-0.5-5.9-1-8.8c0-0.2,0-0.4-0.1-0.7c1.6,0.2,3.3,0.2,4.9,0
		c0.1,4.4,0.4,8.7,1,13.1c0.4-0.3,0.5-0.8,0.8-1.1c0.2-0.1,0.3,0,0.4,0.1C109.5,137.3,109.9,137.9,110.1,138.5z"/>
	<path fill="#D1D1D1" d="M84.5,159.5c-0.6,0.1-0.6,0.1-0.7,0.6c-0.1,1.1-0.1,2.1,0.1,3.2c0.6,2.9,2.4,4.5,5.3,4.6
		c1.6,0.1,3.1-0.4,4.5-1.2c0.4-0.2,0.8-0.5,1.2-0.7c-0.1,0.5-0.2,1-0.3,1.4c0,0.2-0.1,0.3-0.3,0.4c-2.7,1.7-5.6,2.2-8.7,1.1
		c-2.4-0.8-3.9-2.6-4.5-5c-0.7-2.8-0.5-5.5,0.7-8.1c1.6-3.6,4.5-5.3,8.4-5.2c0.8,0,1.7,0.1,2.5,0.3c2.6,0.7,4.2,2.8,4.3,5.4
		c0,1,0,2-0.1,3c0,0.3-0.1,0.3-0.4,0.3c-1,0-2-0.1-3.1-0.1c-0.5-0.9-0.4-1.1,0.5-1.6c0.6-1.9,0-4.2-1.5-5.5
		c-0.1-0.1-0.3-0.2-0.3-0.4c0.4-0.4,0.7-0.5,1.3-0.3c-2.1-0.9-4.3-0.9-6.4-0.2c-0.2,0.1-0.4,0.1-0.5,0.2c-0.1,0.1-0.3,0.1-0.4,0.2
		c0.5,0.2,1-0.2,1.4,0.3c-0.1,0.3-0.4,0.5-0.6,0.7c-1.5,1.3-2.3,2.9-2.6,4.9c0,0.1,0,0.2,0,0.2C84.9,158.5,84.9,158.8,84.5,159.5z"
		/>
	<path fill="#D1D1D1" d="M118,11.5c0.6,0.3,1.3,0.4,1.9,0.6c0.4,0.2,0.9,0.3,1.3,0.4c0.1,0,0.3,0.1,0.4,0.2c0.2,0.1,0.3,0.3,0.1,0.5
		c-0.2,0.2-0.3,0.4-0.4,0.6c-0.5,0.8-0.8,1.8-1.1,2.7c-0.9-0.1-1.8-0.4-2.7-0.5c-0.1-0.1-0.3,0-0.4-0.1c-0.1,0-0.3,0-0.4,0
		c-0.1-0.1-0.3,0-0.4-0.1c-0.2,0-0.3,0-0.5-0.1c-0.2-0.1-0.3,0-0.5-0.1c-0.2,0-0.4,0-0.7-0.1c-0.2,0-0.3,0-0.5-0.1
		c-1.3,0-2.6-0.2-3.9-0.2c-1.8,0-3.7,0.1-5.5,0.4c-0.2,0-0.4,0-0.6,0c0.1-1.1,0.3-2.1,0.6-3.2c0.1-0.3,0.2-0.6,0.3-0.9
		c0.1-0.5,0.1-0.7-0.4-0.9c-1.1-0.4-2.2-0.7-3.4-0.9c-0.1,0-0.2,0-0.2,0c-0.1-0.1-0.3-0.2-0.3-0.3c0-0.2,0.1-0.3,0.3-0.3
		c0.2-0.1,0.4-0.2,0.6-0.2c3.6,0.6,7.3,1,10.9,1.5c1.7,0.2,3.3,0.4,5,0.7C117.6,11.2,117.8,11.2,118,11.5z"/>
	<path fill="#D1D1D1" d="M167.2,96.6c-0.2-0.1-0.3-0.3-0.3-0.5c0.1-1-0.1-2.1-0.2-3.1c0-0.6,0-1.3-0.2-1.9c-0.1-0.4,0.2-0.7,0.2-1
		c1.2-0.8,2.3-1.6,3.4-2.4c5-3.9,8.7-8.8,11-14.8c0.7-1.8,1.2-3.6,1.5-5.6c0.1,0.6,0,1.1-0.1,1.6c-1.1,7-3.8,13.4-7.9,19.3
		c-2.1,3-4.6,5.8-7.3,8.3C167.4,96.4,167.3,96.5,167.2,96.6z"/>
	<path fill="#D1D1D1" d="M126,56.2c0.4-0.1,0.9-0.1,1.3,0c0.9-0.1,1.8,0,2.7-0.1c0.2,0,0.5,0.1,0.7-0.1c1.7-0.1,3.5-0.1,5.2-0.2
		c3-0.1,6-0.2,9.1-0.2c0.2,0,0.3,0,0.5,0c0,0.3-0.3,0.3-0.5,0.3c-0.3,0.1-0.7,0-1.1,0.1c0.3,0.3,0.7,0.3,1,0.3c0.6,0,1.3,0,1.9,0
		c0.2,0,0.4,0,0.6,0.1c0.1,0,0.2,0.1,0.2,0.2c0,0.1-0.1,0.2-0.2,0.2c-0.2,0.1-0.3,0.1-0.5,0.1c-0.8,0.1-1.6,0.3-2.4,0.4
		c-0.5,0.1-0.8,0.4-0.7,0.9c0,0.3,0.1,0.6-0.2,0.9c-0.2,0-0.5,0-0.7,0c-8.7,0.1-17.5,0.1-26.2,0.1c-1.1,0-2.2,0-3.4,0
		c-0.2,0-0.5,0.2-0.5-0.1c-0.1-0.3,0.2-0.4,0.4-0.5c0.7-0.2,1.4-0.3,2.1-0.4c1.4-0.1,2.9-0.2,4.3-0.3c2.1-0.2,4.2-0.3,6.3-0.4
		c2.2-0.1,4.4-0.3,6.6-0.4c1.8-0.1,3.7-0.2,5.5-0.2c0.3,0,0.6,0,0.9-0.1c-3.1,0.1-6.3,0.3-9.5,0.2c-0.4,0-0.8,0-1.2,0.1
		c-1.2,0.1-2.4,0-3.6,0c-0.2,0-0.4,0-0.5-0.1c-0.3-0.7-0.2-0.9,0.5-0.9C125.1,56.2,125.6,56.3,126,56.2z"/>
	<path fill="#D1D1D1" d="M87.7,15c0.2,0.1,0.3,0.3,0.2,0.5c-0.1,0.4-0.1,0.7-0.1,1.1c0.1,0.9-0.2,1.8-0.1,2.7
		c0.1,0.8,0.1,1.7,0.1,2.5c-1.3,0.9-2.6,1.8-3.8,2.8c-5,4.2-8.7,9.3-10.8,15.6c-0.4,1.3-0.7,2.6-1.1,4c0-0.2,0-0.5,0.1-0.7
		c0-0.3,0.1-0.5,0.1-0.8c1.5-9.3,5.6-17.3,12-24.3C85.4,17.2,86.5,16.1,87.7,15z"/>
	<path fill="#D1D1D1" d="M143.6,59.2c0-0.4,0-0.9,0-1.3c0-0.3,0.1-0.5,0.4-0.6c0.7-0.1,1.4-0.3,2.2-0.4c0.4-0.1,0.9-0.1,1.4-0.2
		c-0.2-0.2-0.4-0.2-0.5-0.2c-0.7,0-1.4,0-2.1,0c-0.4,0-0.7-0.1-1.1-0.2c-0.2-0.1-0.3-0.1-0.3-0.3c0-0.2,0.2-0.2,0.4-0.2
		c0.4,0,0.8,0,1.1,0c0.2,0,0.3,0,0.5-0.1c1.7-0.1,3.5-0.1,5.2-0.2c3.8-0.1,7.7-0.2,11.5-0.3c0.8,0,1.7,0,2.5,0
		c-0.1,0.2-0.4,0.1-0.5,0.1c-0.4,0-0.9,0-1.3,0c-0.7,0-0.8,0.1-0.7,0.7c0.2,0.8,0.1,1.6,0.1,2.5c0,0.1,0,0.2,0,0.3
		c0,0.3,0.1,0.4,0.4,0.4c0.2,0,0.3,0,0.5,0c4.1,0,8.1,0,12.2,0c0.3,0,0.5,0,0.8,0c-0.2,0.1-0.3,0-0.5,0c-10.6,0-21.2,0.1-31.8,0.1
		C143.9,59.2,143.7,59.2,143.6,59.2z"/>
	<path fill="#D1D1D1" d="M54.5,58.1c0.5-0.1,1.1-0.1,1.6-0.1c4.7-0.1,9.5-0.3,14.2-0.4c2.7-0.1,5.3-0.1,8-0.2
		c3.6-0.1,7.2-0.2,10.7-0.3c2.9-0.1,5.7-0.1,8.6-0.2c1.4,0,2.8-0.1,4.3-0.1c0,0.2-0.1,0.4-0.3,0.3c-0.6-0.1-1,0.2-1.2,0.7
		C99,58.1,97.6,58,96.2,58c-0.8,0-1.5-0.1-2.3,0.1c-0.9,0.1-1.8,0-2.7,0c-0.9,0-1.7-0.1-2.6,0.1c-0.2,0-0.3,0.1-0.5,0
		c-2.8-0.1-5.6,0.2-8.3,0.1c-0.3,0-0.6,0-0.8,0.1c-0.5,0.1-1,0-1.5,0c-2,0-3.9,0.1-5.9,0.1c-3.3,0-6.6,0.1-9.9,0.1
		c-1.7,0-3.3,0.1-5,0.1c2.4,0.1,4.8-0.1,7.2-0.1c4.4-0.1,8.8-0.1,13.2-0.1c0.1,0,0.2,0,0.3,0c1.9,0.1,3.8-0.1,5.7,0c2,0,4,0,6,0
		c0.3,0,0.5,0,0.8,0.1c0.3,0.2,0,0.3-0.1,0.4c-0.2,0.2-0.6,0.2-0.8,0.3c-1.1,0-2.2,0.1-3.2,0.1c-7.6,0-15.2,0.1-22.8,0.1
		c-4.5,0-9,0.1-13.4,0.1c-0.2,0-0.4,0-0.6,0c0.2-0.4,0.5-0.3,0.8-0.3c1.6,0,3.2,0,4.8,0c0.2,0,0.5,0,0.8-0.1
		c-0.1-0.2-0.3-0.2-0.4-0.4c0-0.1,0-0.1,0.1-0.2c0.1-0.1,0.4-0.1,0.3-0.3c0-0.3-0.3-0.2-0.5-0.2C54.8,58.2,54.6,58.2,54.5,58.1z"/>
	<path fill="#D1D1D1" d="M78.7,133.1c0.1-1.1,0.4-2.2,0.6-3.2c0.2-1.1,0.4-2.1,0.5-3.3c-1,0-1.9,0-2.9,0.1c0.1-0.6,0.2-1.3,0.3-1.9
		c0-0.2,0.2-0.1,0.4-0.1c0.6,0,1.1,0.1,1.7,0.1c0.9,0,0.9,0,1.1-0.9c0.1-0.4,0.2-0.8,0.4-1.1c0.4,0,0.7-0.2,1.1-0.3
		c0.6-0.2,1.1-0.4,1.7-0.4c0.4,0,0.6-0.2,0.6-0.6c0-0.3-0.1-0.6,0.3-0.7c0,1.2,0.1,2.4,0.3,3.5c0.1,0.5,0.1,0.5,0.6,0.5
		c0.9,0,1.9,0,2.8-0.1c0.3,0,0.5-0.1,0.9,0c-0.1,0.6-0.3,1.1-0.4,1.7c0,0.2-0.2,0.2-0.4,0.2c-1-0.1-2-0.1-3-0.1
		c-0.6,0-0.6,0-0.7,0.6c-0.6,2.5-1,5.1-1.5,7.7c0,0.1,0,0.3-0.1,0.4c-0.6,0.1-1-0.2-1.5-0.3c-0.8-0.3-1.5-0.8-2.2-1.4
		C79.1,133.4,78.9,133.2,78.7,133.1z"/>
	<path fill="#D1D1D1" d="M161.8,49.9c0.2,1.1,0.1,2.3,0.1,3.4c0,0.3,0.1,0.4,0.4,0.4c0.6,0,1.3,0,1.9,0c-0.2,0.1-0.3,0.1-0.5,0.1
		c-6.5,0-13,0-19.5,0.1c-0.1,0-0.2,0-0.3,0c-0.5-1.1-0.2-1.8,1.1-2.5c-0.2-0.2-0.5-0.2-0.7-0.3c-0.3-0.1-0.6-0.2-0.4-0.6
		c1.3-0.2,2.5-0.1,3.8-0.1c3.5-0.1,7-0.2,10.5-0.3C159.5,49.9,160.7,49.9,161.8,49.9z"/>
	<path fill="#D1D1D1" d="M52.4,136.2c-0.1,1.7-0.8,3.1-1.9,4.4c-1.6,1.8-3.7,2.7-6.1,2.9c-3.3,0.2-6.3-0.5-9-2.3
		c-0.1-0.1-0.2-0.1-0.3-0.2c-0.2-0.1-0.2-0.2-0.1-0.5c0.7-1.6,1.4-3.2,2-4.9c0-0.1,0.1-0.1,0.2-0.2c0.2,0.1,0.2,0.3,0.2,0.4
		c0.1,0.5,0.1,1.1,0.3,1.6c0.7,2.3,2.5,3.7,5,3.9c0.8,0.1,1.6,0,2.3-0.2c2-0.7,2.9-2.2,2.8-4.4c-0.1-0.3,0.2-0.4,0.3-0.5
		c0.8-0.5,1.6-1,2.2-1.8c0.2-0.3,0.6-0.4,1-0.3c0.2,0.1,0.4,0.2,0.6,0c0,0,0.1-0.1,0.1-0.1c0.1-0.2,0-0.3,0-0.5
		c-0.1-0.2-0.2-0.5-0.3-0.7c-0.1-0.1-0.1-0.3-0.1-0.5c0.1-0.2,0.2-0.5,0.5-0.3c0.1,0.4,0.3,0.8,0.4,1.1c0.1,0.1,0,0.3,0.1,0.4
		c0,0.1,0,0.2,0,0.3C52.5,134.7,52.5,135.5,52.4,136.2z"/>
	<path fill="#D1D1D1" d="M48.7,160.9c0-0.1,0-0.2,0-0.2c0.1-0.2,0-0.4,0.1-0.5c0-0.1,0-0.2,0-0.2c0.1-0.2,0-0.4,0.1-0.5
		c0.1-1,0.3-2.1,0.4-3.1c0.2-1.5,0.5-3.1,0.6-4.6c0-0.3,0.1-0.5,0.1-0.8c0.9,0.1,1.8,0.1,2.8,0c-0.1,1-0.4,2-0.4,3.1
		c0.3-0.3,0.4-0.5,0.6-0.7c1.2-1.3,2.5-2.2,4.2-2.6c1.3-0.3,2.7-0.3,4,0.1c2.2,0.7,3.5,2.3,4,4.5c0.6,3,0.3,5.9-1,8.6
		c-0.3,0.6-0.7,1.2-1.1,1.7c-0.5,0.1-0.4-0.3-0.4-0.6c-0.1-1.1-0.3-2.1-0.7-3.1c0-0.9,0.3-1.8,0.4-2.8c0.1-1.3,0.1-2.5-0.2-3.7
		c-0.3-1-0.8-1.9-1.6-2.5c-0.2-0.1-0.3-0.2-0.4-0.4c0-0.4,0.4-0.3,0.6-0.3c0.6,0,1.2,0,1.9,0c-0.2-0.3-0.5-0.3-0.7-0.5
		c-1.7-0.8-3.5-1-5.3-0.3c-0.2,0.1-0.5,0.2-0.7,0.3c-0.2,0.1-0.4,0.2-0.6,0.3c-0.1,0.1-0.3,0.1-0.4,0.3c-0.1,0,0.1,0.1,0,0
		c0.3-0.2,0.6-0.2,0.8,0.2c-0.1,0.2-0.3,0.3-0.5,0.5c-1.8,1.2-2.8,3-3.4,5c-0.1,0.3-0.2,0.7-0.4,1c-0.9,0.4-1.5,1.1-2.1,1.8
		c-0.1,0.2-0.2,0.4-0.5,0.4C48.7,161.2,48.6,161.1,48.7,160.9z"/>
	<path fill="#D1D1D1" d="M150.5,137.3c0.2-1.1,0.4-2.1,0.6-3.2c0.6-3,1.1-6,1.6-9c0.1-0.5,0.1-0.5,0.5-0.4c1.4,0.1,2.7,0.1,4.1,0
		c0.1,0,0.3-0.1,0.4,0.1c-0.2,1.3-0.6,2.6-0.8,4c0.3,0,0.3-0.3,0.4-0.5c0.5-0.9,1-1.8,1.8-2.5c1.3-1.2,2.8-1.7,4.6-1.4
		c0.2,0,0.3,0.1,0.3,0.4c-0.5,1.5-0.8,3.1-0.8,4.8c-1.7-0.6-3.4-0.9-5.1,0.2c-0.2,0.1-0.4,0.1-0.6,0c-2.1-0.5-4.1,0.5-4.9,2.4
		c-0.8,1.9,0,4,1.8,5.1c0.5,0.3,0.8,0.5,0.6,1.1c0,0.1,0,0.2,0,0.3c-0.1,0.2,0,0.4-0.1,0.5c0,0.3,0,0.7-0.1,1
		c-0.2,0.2-0.5,0.1-0.7,0c-1.2-0.5-2.3-1.2-3.1-2.2C150.9,137.8,150.7,137.6,150.5,137.3z"/>
	<path fill="#D1D1D1" d="M62.1,161.9c0.4,0.6,0.5,1.2,0.6,1.9c0.1,0.5,0.2,1,0.1,1.4c0,0.2,0,0.3,0.2,0.4c0,0,0,0.1,0,0.1
		c-2.2,3-5.5,4.1-8.8,3.4c-1.6-0.4-2.8-1.3-3.6-2.8c-0.1-0.1-0.1-0.3-0.3-0.5c-0.1,0.7-0.2,1.4-0.4,2.1c-0.1,0.6-0.1,1.3-0.4,1.9
		c-0.6-0.4-0.9-1-1.3-1.7c-0.3-0.5-0.4-1.1-0.6-1.6c0.1-1.1,0.4-2.2,0.6-3.4c0.1-0.8,0.2-1.5,0.4-2.3c0,0.1,0.1,0.3,0.2,0.1
		c0.3-0.4,0.6-0.8,0.9-1.1c0.4-0.4,0.8-1,1.5-1c0.3,0.4,0,0.7,0,1.1c-0.2,1.3-0.3,2.7-0.1,4c0.3,1.7,1,3.1,2.8,3.7
		c1.8,0.6,3.5,0.3,5-1c1.2-1.1,2-2.5,2.6-4C61.7,162.3,61.7,162,62.1,161.9z"/>
	<path fill="#D1D1D1" d="M60.4,49.3c-0.3,0-0.6,0-1,0c-9.6,0-19.1,0-28.7,0c-1.1,0-2.1,0-3.2,0c-0.3,0-0.6-0.1-0.9-0.2
		c1.4-0.1,2.8-0.1,4.2-0.2c4.5-0.2,9-0.3,13.6-0.5c3.6-0.1,7.3-0.2,10.9-0.3c3.2-0.1,6.4-0.2,9.5-0.3c2.4-0.1,4.8-0.1,7.1-0.2
		c0.1,0,0.3,0,0.4,0c0.4-0.1,0.8-0.1,1.2,0c0.4,0,1.1,1.1,0.9,1.5c-0.1,0.2-0.2,0.2-0.4,0.2c-0.5,0-1.1,0-1.6,0c-3.8,0-7.7,0-11.5,0
		C60.9,49.2,60.7,49.2,60.4,49.3z"/>
	<path fill="#D1D1D1" d="M115.6,139.5c-0.2-0.6-0.1-1.2-0.2-1.7c-0.2-1.9-0.4-3.8-0.6-5.7c0-0.3-0.1-0.6-0.1-1.1
		c-0.9,1.2-1.6,2.5-2.4,3.6c-0.3-0.2-0.3-0.5-0.3-0.9c-0.1-3.2,3.4-5.5,6.4-4.2c0.3,0.1,0.6,0.4,1,0.1c0,0.1,0.1,0.2,0.1,0.4
		c0.1,2.4,0.3,4.7,0.5,7.1c0,0.1,0,0.3,0,0.4c-1,0.8-2.1,1.3-3.3,1.3C116.2,138.9,115.8,139,115.6,139.5z"/>
	<path fill="#D1D1D1" d="M144,50.4c0,0.3,0.2,0.5,0.5,0.5c0.3,0.1,0.7,0.1,0.9,0.3c0,0.2-0.2,0.2-0.3,0.3c-0.2,0.1-0.4,0.2-0.6,0.3
		c-0.4,0.2-0.6,0.5-0.5,0.9c0,0.4,0,0.8,0,1.1c-2.3,0-4.7,0.1-7,0c-1.2,0.1-2.3,0-3.5,0c-1.7,0-3.4,0-5.1,0c-0.2,0-0.4,0-0.6-0.1
		c0.1-0.3,0.4-0.4,0.6-0.5c0.6-0.2,1.2-0.2,1.8-0.3c2.5-0.2,4.9-1,7.3-1.4c-0.8,0-1.5,0-2.3,0c-2.6,0.2-5.2,0.1-7.8,0.2
		c-1.2,0.1-2.5,0-3.7,0c-0.2,0-0.4,0-0.5-0.1c-0.2-0.6-0.2-0.7,0.5-0.8c0.4,0,0.9,0.1,1.3-0.1c1.6-0.1,3.3-0.1,4.9-0.2
		c3.5-0.1,7-0.2,10.5-0.3C141.6,50.4,142.8,50.4,144,50.4z"/>
	<path fill="#D1D1D1" d="M78.7,133.1c0.1-0.1,0.2-0.3,0.4-0.1c0.3,0.3,0.5,0.5,0.8,0.8c0.9,0.7,1.8,1.1,2.9,1.4
		c0.1,0,0.2,0.1,0.2,0.1c0,0.1,0,0.2,0,0.3c-0.1,0.1,0,0.3-0.1,0.4c-0.2,1.3-0.4,2.7-0.6,4c-0.1,0.9-0.3,1.8-0.4,2.7
		c0,0.3-0.1,0.4-0.4,0.3c-1.6-0.2-3.2-0.2-4.7,0c-0.1,0-0.1,0-0.2,0c-0.1-0.2,0-0.4,0.1-0.6c0.6-2.6,1.2-5.1,1.7-7.7
		c0-0.1,0.1-0.2,0.1-0.4c0.1-0.1,0-0.3,0.1-0.4c0-0.1,0-0.1,0-0.2c0.1-0.1,0-0.3,0.1-0.4C78.6,133.3,78.6,133.2,78.7,133.1z"/>
	<path fill="#D1D1D1" d="M45.1,118.7c-1.7,0.8-2.5,2.1-2.3,4.1c0.1,0.4-0.1,0.5-0.4,0.5c-1.4,0.4-2.5,1.4-3.4,2.5
		c-0.1,0.2-0.3,0.5-0.6,0.2c0,0,0-0.1,0-0.1c-0.1-0.2,0-0.4-0.1-0.5c-0.5-3.2,0.8-6.2,3.9-7.9c1.2-0.7,2.6-1,4-1.1
		c2.5-0.1,4.9,0.3,7.1,1.5c0.4,0.2,1,0.4,1.2,0.9c0.2,0.4-0.3,0.8-0.5,1.3c-0.4,0.8-0.7,1.5-1,2.3c0,0.1,0,0.3-0.3,0.3
		c-0.2,0-0.2-0.2-0.3-0.3c-0.4-1.1-0.9-2-1.8-2.8c-0.4-0.4-1-0.6-1.5-0.9c0.1-0.4,0.4-0.3,0.7-0.3c0.9,0,1.8,0,2.7,0
		c-0.1-0.1-0.2-0.1-0.3-0.2c-0.3-0.1-0.5-0.2-0.8-0.3c-0.4-0.2-0.9-0.3-1.3-0.4c-2-0.4-4-0.6-6.1,0c-0.4,0.1-0.7,0.2-1.1,0.4
		c-0.2,0.1-0.4,0.2-0.5,0.3c-0.1,0.1-0.2,0-0.2,0.2c0.8,0,1.6,0,2.4,0C44.7,118.4,45,118.3,45.1,118.7z"/>
	<path fill="#D1D1D1" d="M16.5,159.5c0-0.1,0-0.2,0-0.2c0.2-0.1,0.4,0,0.5,0.1c0.6,0.8,1.3,1.4,2,2c-0.1,1.4-0.4,2.8-0.6,4.3
		c-0.1,0.4-0.1,0.8-0.2,1.3c0,0.3,0,0.4,0.3,0.4c1.8-0.1,3.6,0,5.3-0.1c1.1-0.1,2.3-0.1,3.4-0.3c0.1,0,0.3,0,0.5,0
		c0.1,0.6-0.1,1.3-0.1,2c-4.3-0.1-8.7-0.4-13,0c0.2-0.7,0.3-1.4,0.4-2c0.5-2.1,0.9-4.3,1.3-6.4c0-0.2,0.1-0.3,0.1-0.5
		C16.5,159.8,16.3,159.6,16.5,159.5z"/>
	<path fill="#D1D1D1" d="M115.6,139.5c0.1-0.8,0.1-0.8,0.9-0.8c1.1,0,2.1-0.3,3-0.9c0.2-0.1,0.4-0.3,0.6-0.3c0,0.1,0.1,0.2,0.2,0.1
		c0.1-0.1,0.2-0.3,0.3-0.4c1.3-2,2.5-4,3.7-6.1c0.1-0.1,0.1-0.3,0.3-0.4c0.3,0.1,0.3,0.5,0.4,0.7c0.2,0.6,0.2,1.3,0.5,1.8
		c-0.8,1.3-1.5,2.6-2.3,3.8c-1,1.7-2,3.5-2.9,5.2c-0.3,0.6-0.3,0.6-1,0.5c-1-0.1-2-0.1-3,0c-0.4,0.1-0.4,0.1-0.5-0.4
		C115.7,141.6,115.6,140.6,115.6,139.5z"/>
	<path fill="#D1D1D1" d="M119.4,129.8c-0.1,0.4-0.1,0.4-0.5,0.3c-0.3-0.1-0.6-0.3-1-0.4c-2.4-0.8-5.2,0.7-5.8,3.5
		c-0.1,0.5-0.1,1,0.1,1.5c-0.7,1.3-1.4,2.5-2.2,3.8c-0.4-0.4-0.6-0.8-0.8-1.3c-0.1-0.2-0.1-0.5-0.4-0.5c0.4-0.8,0.9-1.5,1.3-2.2
		c1.8-3,3.4-6.1,5-9.2c0.3-0.6,0.1-0.6,0.8-0.5c1,0.1,1.9,0.1,2.9,0c0.4,0,0.5,0,0.5,0.4C119.4,126.7,119.4,128.2,119.4,129.8z"/>
	<path fill="#D1D1D1" d="M141.7,129.5c0,0.3,0.1,0.6,0.3,0.8c0.8,0.8,1.2,1.7,1.4,2.8c0.2,1.4-0.2,2.6-1,3.8c-0.7,1-1.6,1.6-2.7,1.9
		c-0.2-0.3,0-0.5,0.1-0.8c0.4-1.4,0.7-2.8,0.9-4.2c0.1-0.4,0-0.5-0.4-0.5c-0.8,0.1-1.6,0.1-2.3,0.4c-1.8,0.6-2.7,1.8-2.9,3.6
		c0,0.3,0,0.6-0.2,0.8c-0.1-0.4-0.3-0.7-0.6-0.9c-1-1.1-1.3-2.5-1.3-3.9c0.9-0.5,1.8-0.6,2.8-0.9c1.1-0.2,2.2-0.3,3.3-0.5
		c0.4-0.1,0.8-0.2,1.2-0.3c0.8-0.4,1.2-0.9,1.4-1.8C141.6,129.8,141.6,129.6,141.7,129.5z"/>
	<path fill="#D1D1D1" d="M91.1,126.6c-0.3,0-0.7,0.1-1,0.1c0.2-0.7,0.4-1.3,0.4-2c0.7,0,1.4,0.1,2,0.1c0.5,0,0.5,0,0.6-0.5
		c0.2-1.2,0.4-2.3,0.5-3.5c0-0.4,0.2-0.6,0.5-0.7c1.5-0.5,3-1.2,4.5-1.8c0.1,0,0.1,0,0.2-0.1c0.2-0.1,0.3-0.1,0.5,0
		c0.2,0.2,0.1,0.3,0.1,0.5c-0.5,1.7-0.9,3.4-1.3,5.2c-0.2,1-0.4,0.9,0.7,0.9c0.8,0,1.6-0.1,2.4-0.1c-0.1,0.6-0.3,1.2-0.3,1.8
		c0,0.2-0.2,0.3-0.4,0.2c-0.3,0-0.6-0.1-0.9-0.1c-0.4-0.1-0.9,0-1.3-0.5c-0.1-0.1-0.2-0.3-0.2-0.4c0.1-0.2,0.3-0.2,0.5-0.3
		c0.6-0.1,1.2,0,1.8-0.1c-0.8,0-1.6,0-2.3,0.1c-0.2,0.3-0.5,0.3-0.9,0.2c-1.7-0.5-3.2-0.2-4.7,0.7C92.1,126.7,91.6,126.5,91.1,126.6
		z"/>
	<path fill="#D1D1D1" d="M95.2,137.9c0,0.6-0.1,1.2-0.1,1.8c0,1.1,0.5,1.6,1.5,1.8c0.5,0.1,1.1,0.1,1.6,0c0.1,0,0.3,0,0.5,0
		c-0.2,0.4-0.3,0.8-0.5,1.1c-0.1,0.1-0.2,0.2-0.3,0.2c-1.5,0.4-3,0.7-4.6,0.3c-2.3-0.5-3.5-2.3-3.3-4.8c0.1-0.9,0.2-1.8,0.5-2.7
		c0.1-0.1,0-0.3,0.1-0.4l0,0c0.3-0.1,0.5,0.1,0.7,0.2c1,0.8,2.1,1.3,3.4,1.5C95.2,137.2,95.4,137.4,95.2,137.9z"/>
	<path fill="#D1D1D1" d="M54.5,58.1c0.3,0,0.5,0,0.8,0c0.2,0,0.4,0,0.4,0.3c0,0.3-0.1,0.4-0.4,0.4c-0.1,0-0.2,0-0.2,0.1
		c0.1,0.1,0.3,0.1,0.4,0.1c0.2,0,0.2,0.2,0.2,0.3c0,0.2-0.1,0.3-0.3,0.3c-0.1,0-0.3,0-0.4,0c-1.8,0-3.6,0-5.3,0
		c-0.2,0-0.5-0.1-0.7,0.1c-0.5,0-1.1,0-1.6,0c-5.2,0-10.4,0-15.6,0c-0.2,0-0.4,0-0.6,0c-0.2-0.3-0.2-0.9-0.7-1
		c0.5-0.1,1.1-0.1,1.6-0.1c4.5-0.1,9-0.2,13.5-0.3c2.8-0.1,5.7-0.1,8.5-0.2C54.2,58,54.4,58.1,54.5,58.1z"/>
	<path fill="#D1D1D1" d="M113.1,54c-0.5,0.1-1,0.1-1.5,0.1c-6.3,0-12.7,0-19,0.1c-7.8,0.1-15.5,0.1-23.3,0.1c-5,0-9.9,0.1-14.9,0.1
		c-0.3,0-0.5,0-0.8,0c0.2-0.4,0.6-0.3,1-0.3c3.2,0,6.4,0,9.6,0c0-0.2-0.4-0.2-0.2-0.5c0.3-0.2,0.5-0.1,0.8-0.1c1.1,0,2.2,0,3.2,0
		c5-0.2,10-0.1,15-0.1c0.2,0,0.4,0,0.6,0c3.8,0.1,7.5,0,11.3,0c1.4,0,2.8-0.1,4.2-0.1c3,0,6.1,0,9.1,0c0.3,0.1,0.6,0,0.8,0.1
		c0.1,0.3-0.2,0.3-0.4,0.4c-0.3,0.1-0.7,0.1-1,0.1c1.5,0,3,0,4.5,0C112.5,53.8,112.8,53.8,113.1,54z"/>
	<path fill="#D1D1D1" d="M51.6,132.9c0.2,0.2,0.2,0.5,0.3,0.8c0.1,0.2,0.1,0.3,0,0.5l0,0c-0.3,0.2-0.4-0.1-0.6-0.2
		c-0.7-0.5-1.4-1.1-2-1.7c-0.3-0.3-0.6-0.5-0.9-0.7c-0.3-0.2-0.5-0.3-0.7,0.1c-0.5,1-1.4,1.4-2.3,1.9c-1-0.9-2.1-1.7-3.2-2.5
		c-0.4-0.3-0.9-0.6-1.2-1c0.2-1.4,0.9-2.6,2.3-3.2c0.2-0.1,0.3-0.2,0.3-0.5c0-0.5,0.3-0.6,0.6-0.4c0.3,0.1,0.7,0.2,0.9,0.5
		c0.7,1.4,1.9,2.4,3,3.5c0.9,0.9,2,1.7,2.9,2.7C51.2,132.7,51.4,132.9,51.6,132.9z"/>
	<path fill="#D1D1D1" d="M47.7,166.5c0.3,0,0.3,0.3,0.4,0.5c0.3,0.8,0.6,1.5,1.1,2.2c0.1,0.2,0.4,0.3,0.4,0.6
		c-0.1,1-0.3,1.9-0.4,2.9c-0.3,1.9-0.5,3.7-0.7,5.6c0,0.3,0,0.8-0.2,1c-0.2,0.3-0.6,0-1,0c-0.7,0-1.3,0-2.1,0.1
		c0.2-0.8,0.3-1.6,0.5-2.4c0.5-2.8,1.1-5.7,1.6-8.5c0-0.2,0.1-0.4,0.1-0.6c0.1-0.1,0-0.3,0.1-0.4c0-0.1,0-0.1,0-0.2
		c0.1-0.2,0-0.4,0.1-0.5C47.7,166.7,47.7,166.6,47.7,166.5z"/>
	<path fill="#D1D1D1" d="M100.8,47.3c-1.9,0-3.7,0.2-5.6,0.1c-0.1,0-0.2,0-0.2,0.1c0.1,0.2,0.2,0.1,0.4,0.1c1.6,0,3.1,0.2,4.7,0.1
		c0.7,0,1.4,0.2,2.1,0.4c0.4,0.1,0.8,0.4,0.9,0.9c-0.1,0-0.2,0-0.3,0c-5.9,0-11.8,0.1-17.8,0.1c-0.1,0-0.2,0-0.3,0
		c0.1-0.3,0.4-0.3,0.6-0.3c0.6,0,1.2,0,1.8,0c0.2,0,0.4,0.1,0.6-0.1c0-0.3-0.3-0.4-0.5-0.5c-0.3-0.2-0.6-0.3-0.7-0.6
		c-0.1-0.2-0.4-0.1-0.6-0.2c-0.4,0-0.8,0.1-1.1-0.2c0.4-0.1,0.9-0.1,1.3-0.1c2.5-0.1,4.9-0.2,7.4-0.2c2.4-0.1,4.8-0.1,7.3-0.2
		c0.1,0,0.3,0,0.4,0c0,0.2,0,0.4,0,0.5C101.1,47.4,100.9,47.3,100.8,47.3z"/>
	<path fill="#D1D1D1" d="M63.9,53.6c0.2,0.2,0.5,0.2,0.8,0.3c0.1,0,0.2,0.1,0.2,0.2c0,0.1-0.1,0.1-0.2,0.1c-0.2,0-0.3,0-0.5,0
		c-3.3,0-6.6,0-9.8,0c-0.2,0-0.5-0.1-0.7,0.1c-1,0-1.9,0-2.9,0c-2.2,0-4.5,0-6.7,0c-0.2-0.8-0.8-0.9-1.4-0.8c-0.4,0-0.8,0.1-1.1-0.2
		c0.5-0.1,1-0.1,1.5-0.1c2.6-0.1,5.3-0.2,7.9-0.2c2.6-0.1,5.2-0.1,7.8-0.2c1.3,0,2.7-0.1,4-0.1c0.3,0,0.6,0,1,0c0.9-0.1,1.9,0,2.8,0
		c0.1,0,0.2,0,0.3,0.1c0.2,0.1,0.4,0.2,0.4,0.4c0,0.2-0.3,0.2-0.5,0.2c-0.2,0-0.4,0-0.6,0.1c-2,0-4,0.1-5.9,0.1
		c-0.2,0-0.1,0.2-0.1,0.1c0,0,0,0,0,0c0.9-0.1,1.8,0,2.8,0C63.1,53.6,63.5,53.3,63.9,53.6z"/>
	<path fill="#D1D1D1" d="M37.1,155.5c0.4,0.7,0.8,1.4,1.2,2.2c0.5-0.4,0.7-1,1.2-1.4c0.5,0,0.8,0.4,1.1,0.7
		c-0.4,0.6-0.9,1.1-1.3,1.7c-0.2,0.3-0.2,0.5-0.1,0.8c0.5,1,1,1.9,1.5,2.9c0.1,0.2,0.3,0.3,0.2,0.6c-0.5,0.7-1.2,1.1-2,1.3
		c-0.4-0.7-0.7-1.5-1.1-2.2c-0.1-0.2-0.3-0.5-0.4-0.8c-0.2,0.1-0.3,0.3-0.4,0.5c-0.6,0.7-1,1.5-1.6,2.2c-0.3-0.3-0.8-0.5-1-0.9
		c0.6-0.9,1.3-1.8,2-2.7c0.3-0.3,0.3-0.6,0.1-1c-0.5-1-1.1-1.9-1.6-3C35.5,156,36.3,155.6,37.1,155.5z"/>
	<path fill="#D1D1D1" d="M84.5,120.8c-0.2,0.3-0.1,0.7-0.1,1c0,0.5-0.1,0.5-0.5,0.5c-0.9,0-1.7,0.3-2.5,0.6
		c-0.2,0.1-0.4,0.3-0.5-0.1c0-0.4,0.2-0.8,0.4-1.2c0.7-2,1.8-3.8,3.3-5.3c1.1-1.1,2.4-1.8,4-2c1-0.1,2.1,0,3,0.4
		c0.3,0.1,0.4,0.3,0.2,0.6c-0.5,1.3-0.9,2.6-1.2,4c0,0.1,0,0.1,0,0.2c-0.1,0.3-0.3,0.3-0.5,0.1c-0.2-0.3-0.5-0.6-0.8-0.8
		c-0.8-0.7-1.6-1-2.7-0.9c-0.9,0.1-1.4,0.5-1.7,1.3C84.6,119.6,84.5,120.2,84.5,120.8z"/>
	<path fill="#D1D1D1" d="M45.1,126.5c-0.4-0.3-0.8-0.5-1.3-0.6c0,0.1-0.1,0.1-0.1,0.1c0.1,0.6,0.1,0.6-0.5,0.9
		c-1.1,0.5-1.7,1.3-1.9,2.5c0,0.2-0.1,0.4-0.3,0.5c-1.2-1-2.1-2.2-2.6-3.7c0-0.1,0-0.2,0-0.3c0.3,0.2,0.4-0.1,0.6-0.3
		c0.7-0.9,1.6-1.7,2.7-2.2c0.3-0.1,0.6-0.2,0.8-0.3c0.2-0.1,0.3-0.2,0.3-0.4c0.7,1.6,2,2.7,3.3,3.7c1.2,0.9,2.4,1.8,3.5,2.8
		c0.6,0.5,1.2,1.1,1.7,1.7c0.2,0.3,0.5,0.6,0.6,1c-0.2,0-0.4,0.2-0.4,0.4c-0.3,0-0.3-0.2-0.4-0.3c-0.6-1.2-1.6-2-2.5-2.8
		c-0.9-0.9-2-1.6-3-2.3C45.4,126.9,45.3,126.7,45.1,126.5z"/>
	<path fill="#D1D1D1" d="M18.9,161.4c-0.8-0.4-1.4-1-1.9-1.7c-0.1-0.2-0.3-0.3-0.5-0.4c0.2-1.1,0.3-2.1,0.5-3.2
		c0.3-1.9,0.6-3.7,0.9-5.6c0-0.1,0.1-0.2,0.1-0.2c0.2,0.2,0.4,0.2,0.6,0c0.5-0.4,1.1-0.7,1.6-0.9c0.2-0.1,0.4-0.2,0.7-0.1
		c0,0.7-0.2,1.3-0.3,1.9c-0.1,0.8-0.3,1.7-0.5,2.5c-0.2,0.4-0.6,0.8-0.7,1.3c-0.1,0.5-0.2,1,0,1.5c0.1,0.3,0.2,0.6,0.1,0.9
		C19.4,158.8,19.2,160.1,18.9,161.4z"/>
	<path fill="#D1D1D1" d="M131.6,108.8c0,0.2-0.1,0.3-0.3,0.4c-0.3,0.1-0.5,0.3-0.6,0.5c-0.2,0.6-0.6,1-0.8,1.6
		c-0.1,0-0.3,0.1-0.4,0.1c-2.8,0.1-5.6,0-8.4-0.3c-0.8-0.1-1.6-0.1-2.3-0.3c0.4-0.7,1-1.2,1.5-1.8c0.1-0.1,0.2-0.2,0.3-0.2
		c0.4,0.2,0.8-0.1,1.2-0.1c0.4-0.3,0.9-0.2,1.4-0.2c2.5,0.1,4.9,0.2,7.4,0C130.9,108.6,131.3,108.5,131.6,108.8z"/>
	<path fill="#D1D1D1" d="M170.1,137.8c-0.2-0.3-0.4-0.6-0.6-0.8c-0.5-0.6-0.8-1.4-1-2.2c-0.4-1.9,0.2-3.4,1.6-4.7
		c0.3-0.3,0.6-0.7,1.1-0.7c0.2,0.2,0,0.4,0,0.7c-0.2,0.5-0.3,1.1-0.4,1.6c-0.1,0.6-0.1,0.7,0.6,0.8c0.1,0,0.3,0,0.4,0
		c1.5,0,3,0,4.6,0c0.8,0,0.9-0.1,1.1-0.9c0.1-0.3,0-0.7,0.4-0.8c0.9,0.8,1,1.9,1.1,3c0,0.3,0.2,0.4,0.5,0.4c0.9,0,1.8,0,2.7,0
		c-0.2,0.2-0.4,0.1-0.6,0.1c-3.6,0-7.2-0.1-10.8,0c-0.6,0-0.6,0-0.7,0.7C169.9,136,170,136.9,170.1,137.8z"/>
	<path fill="#D1D1D1" d="M155.2,138.4c0-0.4-0.2-0.7-0.6-0.9c-1.5-0.8-2.4-2.1-2.3-3.8c0-2.4,1.9-4.2,4.2-4.3c0.6,0,1.2,0.2,1.7,0.3
		c-1,0.9-1.6,2.2-2,3.5c-0.4,1.6-0.7,3.2-1,4.8C155.3,138.1,155.3,138.3,155.2,138.4z"/>
	<path fill="#D1D1D1" d="M91.1,126.6c0.1,0,0.1-0.1,0.2-0.1c0.7,0.1,1.2-0.3,1.7-0.6c1.2-0.6,2.6-0.9,4-0.5c0.1,0,0.3,0,0.4,0.1
		c0.4,0.2,0.5,0,0.7-0.3c0.7,0.3,1.4,0.1,2.2,0.1c0.2,0,0.5-0.1,0.6,0.1c-0.1,0.2-0.3,0.1-0.5,0.1c-0.5,0-1.1,0-1.6,0
		c-0.1,0-0.3,0-0.3,0.1c0,0.1,0.1,0.2,0.2,0.3c0.3,0.3,0.7,0.5,1.2,0.6c-0.6,0-1.1,0-1.7,0c-0.2,0-0.3,0.1-0.4,0.3
		c-0.1,0.4-0.2,0.8-0.3,1.2c-0.3,0.2-0.5,0-0.8-0.1c-1.4-0.5-3.3,0.6-3.6,2.2c-0.3,1.5,0.7,2.9,2.3,3.2c0.3,0,0.6,0.1,0.8,0.3
		c0,0,0,0.1,0,0.1c-0.1,0.1,0,0.3-0.1,0.4c0,0.1,0,0.1,0,0.2c-0.1,0.1,0,0.3-0.1,0.4c0,0.1,0,0.1,0,0.2c-0.1,0.1,0,0.3-0.2,0.3
		c-1.4,0-2.6-0.6-3.5-1.7c-0.3-0.3-0.5-0.6-0.7-0.9c0-0.4,0.1-0.8,0.3-1.1c0.1-0.1,0-0.3,0.1-0.4c0-0.3,0-0.5,0.2-0.7
		c0.1-0.1,0-0.3,0.1-0.4c0-0.3,0-0.5,0.2-0.7c0.1-0.1,0-0.3,0.1-0.4c0.2-0.8,0.3-1.6,0.5-2.3C92.1,126.6,91.6,126.6,91.1,126.6z"/>
	<path fill="#D1D1D1" d="M66,53.3c0.3-0.2,0.6,0,1-0.2c-0.4-0.3-0.7-0.5-1.2-0.4c-0.8,0-1.5,0-2.3,0c0.5-0.1,1-0.1,1.5-0.1
		c4.2-0.1,8.4-0.2,12.6-0.4c4.1-0.1,8.1-0.2,12.2-0.3c3.3-0.1,6.6-0.2,9.9-0.3c1,0,1.9,0,2.9,0c-0.1,0.3-0.4,0.3-0.6,0.3
		c-0.4,0-0.9,0-1.3,0c-0.4,0-0.5,0.2-0.6,0.5c0,0.1-0.1,0.1-0.2,0.2c-0.2,0.1-0.4,0.1-0.6,0.1c-2.4-0.1-4.9,0.2-7.3,0.1
		c-0.6,0-1.1,0.1-1.6,0.1c-0.5,0-1,0-1.6,0c-0.9,0-1.8-0.1-2.7,0.1c-0.2,0-0.3,0.1-0.5,0c-2.4-0.1-4.8,0.1-7.2,0.2
		c-3.6,0.1-7.2,0.1-10.7,0.3C67.2,53.5,66.6,53.7,66,53.3z"/>
	<path fill="#D1D1D1" d="M108.5,160.1c0.2,0.2,0.5,0.5,0.7,0.7c0.3,0.3,0.5,0.6,0.6,1c0.1,0.1,0,0.3,0.1,0.4c0.3,1.5,0,2.9-0.8,4.1
		c-0.9,1.4-2.2,2.2-3.7,2.7c-2.1,0.6-4.1,0.5-6.2-0.2c-0.2-0.1-0.4-0.1-0.5-0.2c-0.5-0.2-0.5-0.2-0.3-0.7c0.4-0.7,0.6-1.3,0.8-2.2
		c0.1,0.2,0.2,0.3,0.3,0.5c1.6,2.5,4.9,2.4,6.5,1.2c1.5-1.1,1.8-2.8,1.5-3.8c-0.1-0.3-0.3-0.6-0.4-0.9c-0.1-0.6,0.3-0.9,0.7-1.1
		c0.4-0.2,0.6,0.1,0.9,0.4c0.3,0.2,0.5,0.5,0.8,0.7c0.2-0.2,0.1-0.4,0-0.6c-0.3-0.5-0.6-1-1-1.4c-0.1-0.1-0.2-0.2-0.2-0.4
		C108.3,160.2,108.3,160.1,108.5,160.1z"/>
	<path fill="#D1D1D1" d="M84.8,47.2c0.6,0,1.1,0,1.7,0c0.2,0,0.4,0,0.2,0.3c-0.1,0.2,0.1,0.3,0.2,0.3c0.5,0.2,0.9,0.4,1.1,0.9
		c0,0.1,0,0.1,0,0.2c-0.9,0-1.8,0-2.7,0c-0.2,0-0.5-0.1-0.7,0.1c-0.1,0-0.2,0-0.3,0c-7.9,0-15.8,0.1-23.6,0.1c-0.1,0-0.3,0-0.4,0
		c0.2-0.2,0.5-0.1,0.7-0.1c4.2,0,8.4,0,12.6,0c0.2,0,0.5,0,0.7,0c0-0.6-0.3-1-0.6-1.4c-0.1-0.2-0.3-0.1-0.4-0.1c-0.3,0-0.7,0-1,0
		c0.4-0.1,0.9-0.1,1.3-0.1c2.5-0.1,5-0.2,7.5-0.2C82.5,47.3,83.7,47.3,84.8,47.2z"/>
	<path fill="#D1D1D1" d="M20.9,149.3c-1,0.4-1.9,0.9-2.7,1.5c-0.3-0.1-0.1-0.4-0.2-0.5c0-0.1,0-0.2,0-0.3c0.1-0.2,0-0.4,0.1-0.5
		c0.1-1.1,0.3-2.3,0.4-3.4c0.1-0.9,0.2-1.8,0.4-2.7c0.1-0.5,0.1-0.5,0.6-0.5c3.5,0.2,6.9,0.1,10.4,0c0.8,0,0.7,0,0.6,0.7
		c0,0.4-0.1,0.7-0.1,1.1c0,0.2-0.1,0.4-0.4,0.3c-1.6-0.3-3.2-0.4-4.8-0.5c-1.1,0-2.2-0.1-3.3,0.1C21.6,146,21.3,147.7,20.9,149.3z"
		/>
	<path fill="#D1D1D1" d="M122.6,160.1c0.1,0.1,0.3,0.3,0.5,0.4c1.1,0.9,1.3,2.1,1.1,3.4c-0.4,2.4-1.9,4-4,4.8
		c-2.4,0.9-4.8,0.8-7.1-0.1c-0.2-0.1-0.3-0.2-0.5-0.2c-0.1-0.1-0.2-0.1-0.1-0.3c0.4-0.7,0.7-1.5,1-2.4c0.1,0.2,0.2,0.4,0.3,0.5
		c0.8,1.2,2,1.9,3.5,2c0.8,0,1.6,0,2.4-0.4c1.4-0.7,2.2-1.9,2.2-3.5c0-0.1,0-0.3,0-0.4c0.1-0.6,0.6-0.9,1.1-1.2
		c0.2-0.1,0.4,0,0.5,0.1c0.1,0.1,0.2,0.2,0.3,0c0-0.8-0.4-1.3-0.9-1.9C122.6,160.6,122.2,160.4,122.6,160.1z"/>
	<path fill="#D1D1D1" d="M30.4,58.7c0.1,0,0.2,0,0.3,0c0.3,0,0.4,0.1,0.4,0.4c0,0.2,0,0.4,0,0.6c-1.5,0-3,0.1-4.5,0.1
		c-5.5,0-10.9,0-16.4,0c-3.4,0-6.7-0.1-10.2-0.1c0.2-0.2,0.5-0.2,0.7-0.2c1.2-0.1,2.4-0.1,3.6-0.2c2.4-0.1,4.9-0.1,7.3-0.2
		c2.9-0.1,5.7-0.1,8.6-0.2c1.4,0,2.9-0.1,4.3-0.1c0.4,0,0.8,0,1.1,0c1-0.1,2,0,2.9-0.1c0.2,0,0.5,0.1,0.7-0.1
		C29.6,58.7,30,58.7,30.4,58.7z"/>
	<path fill="#D1D1D1" d="M113.1,54c-1.8,0-3.5,0-5.3,0c-0.2,0-0.5,0-0.8,0c0.2-0.4,0.5-0.4,0.8-0.4c0.5,0,0.9,0,1.3-0.2
		c0.3-0.3,0.7-0.2,1-0.2c1.8,0,3.6,0,5.4,0c2.4,0,4.8,0.1,7.2-0.1c0,0,0,0,0.1,0c3.7,0.1,7.3-0.9,11-1.4c0.5-0.1,1-0.1,1.5-0.2
		c0.9,0,1.9,0,2.9,0c-0.1,0.3-0.3,0.3-0.5,0.4c-1.2,0.2-2.3,0.5-3.5,0.8c-0.9,0.2-1.8,0.3-2.7,0.5c-0.7,0.1-1.4,0.2-2.1,0.2
		c-0.5,0.1-1.1,0.2-1.5,0.5c0.2,0,0.4,0,0.6,0c2.6,0,5.1,0,7.7,0c0.3,0,0.5,0,0.8,0c-0.2,0.1-0.5,0.1-0.8,0.1
		c-7.3,0-14.5,0.1-21.8,0.1C114,54,113.5,54,113.1,54z"/>
	<path fill="#D1D1D1" d="M100.4,57.7c0-0.8,0.1-0.9,0.9-0.7c0.2,0,0.4,0.1,0.5-0.2c1.8-0.1,3.6-0.1,5.4-0.2c3.7-0.1,7.3-0.2,11-0.3
		c2.5-0.1,5-0.1,7.6-0.2c0.1,0,0.2,0,0.3,0c-0.3,0.2-0.6,0.1-0.9,0.1c-0.1,0-0.2,0-0.3,0c-0.8,0-0.7,0-0.8,0.8
		c-0.1,0.2-0.3,0.2-0.5,0.3c-0.5,0.1-1.1,0-1.6,0c-2.4,0-4.8,0.1-7.2,0.2c-1.9,0.1-3.8,0.1-5.6,0.1c-0.2,0-0.5,0-0.7,0.1
		c-0.8,0.1-1.6,0-2.4,0.1c-0.9,0-1.9-0.1-2.8,0.1c-0.7,0.1-1.5,0-2.2,0C100.8,57.9,100.6,57.9,100.4,57.7z"/>
	<path fill="#D1D1D1" d="M41.4,53.4c0.6,0,1.3,0,1.9,0c0.6,0,0.7,0,0.7,0.7c0,0.1,0,0.2,0,0.3c-0.1,0-0.3,0-0.4,0
		c-9.3,0-18.7,0.1-28,0c-0.4,0-0.8,0-1.3-0.2c1.2-0.1,2.2-0.1,3.3-0.2c2.2-0.1,4.3-0.1,6.5-0.2c2.5-0.1,5.1-0.1,7.6-0.2
		c2.9-0.1,5.8-0.2,8.7-0.2C40.7,53.3,41,53.4,41.4,53.4z"/>
	<path fill="#D1D1D1" d="M150.5,137.3c0.3,0,0.5,0.3,0.7,0.5c0.8,1.2,2,1.9,3.3,2.4c0.1,0,0.3,0,0.4,0c0,0.8-0.2,1.7-0.3,2.5
		c0,0.4-0.3,0.3-0.5,0.2c-1.2-0.2-2.4-0.1-3.6-0.1c-0.5,0-0.9,0.1-1.4,0.1c0.3-1.1,0.5-2.2,0.8-3.2
		C150.1,139,150.3,138.1,150.5,137.3z"/>
	<path fill="#D1D1D1" d="M125.4,133.4c-0.3-0.1-0.3-0.3-0.4-0.6c-0.1-0.7-0.3-1.4-0.5-2c0.6-1.1,1.2-2.2,1.8-3.4
		c0.4-0.8,0.8-1.6,1.2-2.4c0.1-0.2,0.2-0.3,0.5-0.3c1,0.2,1.9,0.1,2.9,0c0.1,0,0.1,0,0.2,0.1c-0.2,0.2-0.3,0.5-0.5,0.7
		c-0.8,0.2-1.6,0.1-2.5,0.1c0.8,0.1,1.6,0.1,2.5-0.1c0,0.2-0.2,0.4-0.3,0.5c-1.5,2.2-2.9,4.4-4.3,6.6
		C125.7,132.9,125.5,133.1,125.4,133.4z"/>
	<path fill="#D1D1D1" d="M122.6,160.1c-0.1,0.2,0,0.3,0.1,0.5c0.3,0.3,0.5,0.5,0.7,0.9c0.3,0.4,0.4,0.9,0.4,1.4
		c-0.5,0.2-0.7-0.3-1-0.5c-0.5-0.4-0.8-0.8-1.3-1.2c-0.4-0.4-0.6-0.4-0.9,0.1c-0.1,0.2-0.2,0.5-0.5,0.7c-1.2-0.8-2.5-1.5-3.7-2.3
		c-0.5-0.4-1.1-0.8-1.4-1.5c0.6-0.8,1.4-1.2,2.1-1.9c0.8,1.1,1.9,1.8,3,2.5C121.1,159.1,121.9,159.5,122.6,160.1z"/>
	<path fill="#D1D1D1" d="M96,133.8c-0.7-0.1-1.4-0.2-2-0.6c-1.8-1.3-1.7-3.9,0.3-5c0.7-0.4,1.5-0.5,2.3-0.2c0.2,0.1,0.4,0.1,0.7,0.2
		c-0.2,1.1-0.5,2.1-0.7,3.1C96.4,132.1,96.2,133,96,133.8z"/>
	<path fill="#D1D1D1" d="M89.1,59.5c0.3-0.3,0.7-0.3,1-0.6c0.3-0.3,0.6-0.2,0.9-0.2c2.4,0,4.7,0.1,7.1,0c2.5-0.1,5-0.1,7.5-0.1
		c2,0,4.1,0.1,6.1-0.2c1-0.1,2-0.1,3-0.1c1.3-0.1,2.6-0.2,3.9-0.2c0.3,0,0.7-0.1,1,0.2c-0.1,0.1-0.2,0.1-0.3,0.1
		c-0.9,0-1.8,0-2.6,0.1c-1.1,0.1-2.3,0.1-3.4,0.5c-0.1,0-0.2,0-0.2,0.1c-0.1,0-0.1,0.1-0.1,0.2c0,0.1,0.1,0.1,0.1,0.1
		c0.1,0,0.2,0,0.3,0c-0.2,0.1-0.3,0.1-0.5,0.1c-7.8,0-15.6,0.1-23.5,0.1C89.3,59.5,89.2,59.5,89.1,59.5z"/>
	<path fill="#D1D1D1" d="M100.1,52.4c-0.2-0.5-0.2-0.6,0.4-0.6c0.5,0,1.1,0,1.6,0c0.2,0,0.4,0.1,0.6-0.1c1.7-0.1,3.4-0.1,5.1-0.2
		c3.3-0.1,6.7-0.2,10-0.3c2.4-0.1,4.7-0.1,7.1-0.2c0.1,0,0.2,0,0.3,0c-0.4,0.2-0.8,0.1-1.2,0.1c-0.5,0-0.7-0.1-0.6,0.6
		c-0.1,0.2-0.3,0.2-0.5,0.3c-0.8,0.1-1.6,0-2.4,0c-0.8,0-1.6-0.1-2.4,0.1c-0.8,0.1-1.6,0-2.5,0c-0.6,0-1.2,0-1.8,0.1
		c-0.7,0-1.4,0-2,0c-0.9,0-1.7-0.1-2.6,0.1c-0.2,0-0.3,0.1-0.5,0c-2.5-0.1-5,0.2-7.5,0.1C100.6,52.5,100.3,52.6,100.1,52.4z"/>
	<path fill="#D1D1D1" d="M69.7,161.7c0.2-1.3,0.4-2.6,0.7-3.9c0-0.3,0-0.6,0.2-0.8c0.4-0.2,0.7-0.6,1-0.8c0.6-0.4,1.2-0.7,1.9-0.8
		c0.2-0.1,0.5-0.1,0.7,0.1c-1.5,2.3-1.8,4.9-2.3,7.5c-0.1,0.4-0.1,0.8-0.2,1.2C71,163.4,70.3,162.6,69.7,161.7z"/>
	<path fill="#D1D1D1" d="M117.4,156.2c0,0.2,0,0.4-0.3,0.5c-0.6,0.3-1.1,0.7-1.5,1.3c-0.1,0.1-0.2,0.1-0.3,0.1
		c-0.6-1.1-0.6-2.3-0.2-3.5c0.7-2.3,2.4-3.6,4.7-4.1c1.7-0.3,3.3,0,5,0.6c-0.4,0.8-0.7,1.7-0.9,2.7c-0.4-0.5-0.6-1-1-1.4
		c-0.4-0.4-0.9-0.6-1.4-0.8c0.1-0.4,0.4-0.3,0.6-0.3c0.5,0,1,0,1.5,0c0,0,0,0,0.1,0c0,0,0-0.1,0-0.1c-0.2-0.1-0.5-0.2-0.8-0.2
		c-1.1-0.3-2.2-0.4-3.3,0c-0.2,0.1-0.5,0.1-0.7,0.2c0.1,0.2,0.2,0.1,0.3,0.1c0.2,0.1,0.4,0,0.4,0.3c-0.5,0.2-0.9,0.3-1.4,0.7
		C117.4,153.1,116.5,154.6,117.4,156.2z"/>
	<path fill="#D1D1D1" d="M109.6,162c0.2,0.3,0.1,0.6,0.1,0.9c-0.2,0.1-0.3-0.1-0.4-0.2c-0.3-0.3-0.6-0.6-0.9-0.9
		c-0.3-0.3-0.4-0.3-0.7,0c-0.2,0.2-0.4,0.5-0.5,0.8c-0.9-0.8-2-1.5-3-2.1c-0.8-0.5-1.6-1-2.3-1.6c0.5-0.9,1.2-1.6,2.3-1.8
		c0.9,0.7,2,1.3,3,1.9c0.5,0.3,1,0.5,1.4,1c-0.1,0.1-0.2,0.2-0.2,0.3c-0.6,0-0.9-0.6-1.3-0.7c0.6,0.6,1.3,1.3,2,2
		C109.2,161.8,109.3,162.1,109.6,162z"/>
	<path fill="#D1D1D1" d="M45.4,133.5c0.1-0.3,0.4-0.4,0.6-0.5c0.7-0.3,1.2-0.8,1.6-1.5c0.2-0.5,0.4-0.5,0.8-0.2
		c0.3,0.3,0.7,0.5,1,0.8c0.7,0.7,1.5,1.3,2.2,1.9c0.1,0.1,0.2,0.1,0.3,0.1c-0.2,0.5-0.2,0.5-0.6,0.3c-0.5-0.3-0.7-0.2-1.1,0.2
		c-0.6,0.8-1.4,1.3-2.2,1.8c-0.2,0.1-0.3,0.2-0.4,0.3c-0.3-0.9-0.8-1.6-1.4-2.3C46,134.1,45.6,133.9,45.4,133.5z"/>
	<path fill="#D1D1D1" d="M69.7,161.7c0.2,0,0.3,0.2,0.4,0.3c0.4,0.6,0.7,1.2,1.4,1.5c0.2,0.1,0.2,0.4,0.2,0.6
		c-0.2,1.6-0.4,3.2-0.6,4.8c-1-0.2-1.9-0.2-2.9,0c0.2-1.1,0.4-2.1,0.6-3.2c0.2-1.1,0.4-2.2,0.7-3.4c0.1-0.2,0-0.4,0.1-0.5
		C69.7,161.8,69.7,161.7,69.7,161.7z"/>
	<path fill="#D1D1D1" d="M38.9,164.2C38.9,164.2,38.9,164.1,38.9,164.2c0.8-0.4,1.4-0.9,2-1.3c1.1,2,2.2,3.9,3.4,6
		c-1.1-0.1-2.1-0.1-3,0c-0.2,0-0.3-0.1-0.4-0.3c-0.3-0.7-0.6-1.3-0.9-2c-0.3-0.7-0.7-1.4-1-2.2C38.9,164.4,38.9,164.3,38.9,164.2z"
		/>
	<path fill="#D1D1D1" d="M19.5,157.5c0-0.5-0.3-0.9-0.3-1.3c-0.2-0.8,0.3-1.9,1-2.4c0,0.5,0,0.5,0.5,0.5c2.3,0,4.5,0,6.8-0.1
		c0.4,0,0.8-0.2,1.3-0.1c0,0.6-0.1,1.1-0.1,1.7c0,0.3-0.2,0.3-0.4,0.3c-2.6-0.3-5.1-0.4-7.7-0.3c-0.1,0-0.2,0-0.3,0
		c-0.3,0-0.4,0.1-0.5,0.4C19.7,156.5,19.7,157,19.5,157.5z"/>
	<path fill="#D1D1D1" d="M74.3,155.4c-1.2,0-2.2,0.5-3.1,1.3c-0.1,0.1-0.2,0.3-0.4,0.3c-0.2,0.1-0.1-0.1-0.2-0.1c0-0.1,0-0.2,0-0.2
		c0.1-0.2,0-0.4,0.1-0.5c0-0.1,0-0.2,0-0.2c0.1-0.2,0-0.4,0.1-0.5c0.1-1.1,0.3-2.3,0.5-3.4c0.1-0.4,0-0.7,0.2-1.1
		c0.9,0.1,1.8,0.1,2.7,0c-0.3,1.3-0.5,2.6-0.7,3.8c0,0.1,0,0.1,0,0.1c0,0,0.1,0,0.1,0c0.3-0.6,0.7-1,1.2-1.5
		c0.5,0.3,1.1,0.2,1.6,0.6C75.6,154.3,74.9,154.8,74.3,155.4z"/>
	<path fill="#D1D1D1" d="M37.1,155.5c-0.8,0.3-1.5,0.7-2.3,0.9c-0.5-0.6-0.8-1.4-1.2-2.1c-0.6-0.9-1.1-1.9-1.6-2.9
		c-0.1-0.2-0.2-0.3-0.3-0.6c1,0.1,2,0.1,3,0c0.2,0,0.3,0.1,0.3,0.3c-0.6,0.3-1.2,0.1-1.7,0.2c-0.2,0-0.5,0-0.7,0.1
		c0.8,0,1.7,0.4,2.5-0.3c0.2,0.2,0.3,0.5,0.4,0.7C36,153.1,36.6,154.3,37.1,155.5z"/>
	<path fill="#D1D1D1" d="M105.5,151.7c-0.5,0.1-0.9,0.3-1.3,0.7c-0.9,0.7-1.3,1.7-1.3,2.8c-0.6,0.4-1.3,0.7-1.8,1.1
		c-0.1,0.1-0.2,0.1-0.4,0c-0.1-2.2,1-3.8,2.9-5c1.6-1,3.3-1.1,5-0.7c0.7,0.1,1.4,0.3,2,0.6c-0.4,0.8-0.7,1.7-0.9,2.7
		c-0.4-0.5-0.6-1-1-1.4c-0.4-0.4-0.9-0.6-1.4-0.8c0.1-0.3,0.3-0.3,0.5-0.3c0.5,0,1,0,1.4,0c0,0,0.1,0,0.1,0c0-0.1-0.1,0-0.1-0.1
		c-0.3-0.1-0.5-0.2-0.8-0.2c-1.1-0.3-2.2-0.4-3.3,0c-0.2,0-0.4,0.1-0.6,0.2c0,0,0,0-0.1,0c-0.1,0-0.1,0.1,0,0.1
		C104.9,151.5,105.3,151.2,105.5,151.7z"/>
	<path fill="#D1D1D1" d="M84.5,159.5c0-0.2,0-0.4,0.1-0.7c0.1-0.3,0.1-0.6-0.3-0.6c0,0-0.1-0.1-0.1-0.1c1-0.3,2-0.2,3-0.1
		c1.5,0.1,3.1,0.1,4.6,0c0.8-0.1,1.7-0.2,2.5,0.1c-0.1,0.2-0.3,0.2-0.5,0.2c-0.3,0-0.4,0.2-0.3,0.4c0.1,0.3,0.1,0.5,0.1,0.8
		c-0.2,0-0.3,0-0.5,0c-2.7-0.1-5.3-0.1-8,0C84.9,159.5,84.7,159.5,84.5,159.5z"/>
	<path fill="#D1D1D1" d="M34.3,163c0.4,0.3,0.9,0.4,1,0.9c-1,1.5-2,3-3,4.6c-0.2,0.3-0.4,0.5-0.8,0.4c-0.6-0.1-1.2-0.1-1.8,0
		c-0.1-0.2,0.1-0.3,0.2-0.4c1.2-1.5,2.3-2.9,3.5-4.4C33.7,163.8,33.9,163.3,34.3,163z"/>
	<path fill="#D1D1D1" d="M91.3,132.9c0.5,0.1,0.6,0.6,0.9,0.9c0.7,0.8,1.6,1.3,2.7,1.5c0.2,0,0.5,0.1,0.7,0.1c0.1,0,0.1,0.1,0,0.2
		c-0.1,0.8-0.2,1.5-0.4,2.3c0-0.2,0-0.5-0.4-0.5c-1.4-0.1-2.5-0.7-3.6-1.6c-0.2-0.1-0.4-0.2-0.5-0.3C90.8,134.5,91,133.7,91.3,132.9
		z"/>
	<path fill="#D1D1D1" d="M40.6,156.9c-0.4-0.1-0.7-0.5-1.1-0.7c1.2-1.7,2.4-3.4,3.4-5.2c0.1-0.2,0.2-0.3,0.4-0.3
		c0.7,0.1,1.4,0.1,2.1,0c0,0.2-0.1,0.3-0.2,0.4c-0.6,0.3-1.3,0-2.1,0.2c0.6,0.2,1.2,0,1.8,0.1C43.5,153.4,42,155.2,40.6,156.9z"/>
	<path fill="#D1D1D1" d="M76.4,153.9c-0.3-0.1-0.7-0.2-1-0.3c-0.3,0-0.4-0.2-0.5-0.4c1-1.3,2.2-2.2,3.8-2.6c0.6-0.1,1.1-0.2,1.7,0
		c-0.3,1.1-0.6,2.1-0.6,3.3C78.6,153.7,77.5,153.6,76.4,153.9z"/>
	<path fill="#D1D1D1" d="M100.7,156.3c0.5-0.3,1-0.7,1.5-1c0.2-0.1,0.4-0.2,0.6-0.2c0.2,0.8,0.7,1.5,1.3,2.1
		c-0.1,0.2-0.3,0.3-0.5,0.3c-0.5,0.2-1,0.5-1.3,1c-0.1,0.2-0.2,0.4-0.5,0.4C101,158.3,100.6,157.4,100.7,156.3z"/>
	<path fill="#D1D1D1" d="M120.3,161.9c0-0.4,0.4-0.8,0.5-1.1c0.1-0.3,0.4-0.2,0.6,0c0.3,0.3,0.6,0.6,0.9,0.8
		c0.4,0.4,0.8,0.8,1.3,1.1c0.1,0.1,0.2,0.1,0.3,0.1c0,0.3-0.1,0.4-0.4,0.2c-0.5-0.4-0.5-0.4-1,0.1c-0.2,0.3-0.5,0.5-0.7,0.8
		C121.6,163,121,162.4,120.3,161.9z"/>
	<path fill="#D1D1D1" d="M52.1,118.1c0.3,0.1,0.6,0.1,0.9,0.5c-0.3,0-0.6,0-0.8,0c-0.8,0-1.7,0-2.5,0c-0.2,0-0.4-0.1-0.6,0.1
		c-0.3-0.1-0.7-0.2-1-0.3c-0.2-0.1-0.4,0-0.5-0.1c-0.3,0-0.6,0-0.9,0c-0.2,0.1-0.4,0-0.5,0.1c-0.2,0-0.4,0.1-0.6,0.1
		c-1.1-0.1-2.1,0-3.2-0.1c-0.2,0-0.4,0.2-0.5-0.2c0.1-0.1,0.2-0.2,0.4-0.2C45.5,118,48.8,118,52.1,118.1z"/>
	<path fill="#D1D1D1" d="M109.3,151.2c0.2,0,0.4,0.1,0.6,0.4c-0.7,0-1.3,0-1.9,0c-0.2,0-0.5-0.1-0.7,0.1c-0.6-0.1-1.2-0.1-1.8,0
		c-0.2-0.2-0.4-0.1-0.7-0.1c-0.2,0-0.5,0-0.8,0c0.1-0.2,0.2-0.4,0.4-0.4C106.1,151.1,107.7,151.1,109.3,151.2z"/>
	<path fill="#D1D1D1" d="M123.7,151.2c0.1,0,0.2,0,0.3,0.1c0.1,0.1,0.1,0.1,0.1,0.3c-0.7,0-1.3,0-2,0c-0.2,0-0.5-0.1-0.7,0.1
		c-0.6-0.1-1.2-0.1-1.8,0c-0.4-0.3-0.8,0-1.2-0.2c0-0.2,0.1-0.3,0.3-0.3C120.4,151.1,122.1,151.1,123.7,151.2z"/>
	<path fill="#D1D1D1" d="M44.9,151.6c-0.7,0.3-1.3,0.1-2,0.2c0.1-0.6,0.1-0.6,0.6-0.6c0.6,0,1.1,0,1.7,0.1
		C45.2,151.4,45.1,151.5,44.9,151.6z"/>
	<path fill="#D1D1D1" d="M41.8,118.3c0.2,0.2,0.4,0.1,0.6,0.1c0.8,0,1.7,0,2.5,0c0.2,0,0.4-0.1,0.6,0.1c-0.1,0-0.2,0.2-0.4,0.1
		c-0.2-0.2-0.4-0.1-0.6-0.1c-0.9,0-1.8,0-2.6,0c-0.1,0-0.2,0-0.2-0.1C41.7,118.4,41.8,118.4,41.8,118.3z"/>
	<path fill="#D1D1D1" d="M29.2,58.7c-0.1,0.1-0.3,0.1-0.4,0.1c-1.1,0-2.1,0-3.2,0c0.5-0.1,1-0.1,1.4-0.1
		C27.8,58.7,28.5,58.7,29.2,58.7z"/>
	<path fill="#D1D1D1" d="M130.7,56.1c-0.1,0.1-0.3,0.1-0.4,0.1c-1,0-2,0-3,0c0.5-0.1,1-0.1,1.6-0.1C129.5,56,130.1,56.1,130.7,56.1z
		"/>
	<path fill="#D1D1D1" d="M22,144.4c0.1-0.1,0.2-0.2,0.3-0.2c0.9,0,1.8,0,2.8,0c0.1,0,0.1,0.1,0.2,0.1c-0.9,0-1.7,0-2.6,0
		C22.4,144.3,22.2,144.4,22,144.4z"/>
	<path fill="#D1D1D1" d="M52.4,136.2c0-0.7,0-1.5,0-2.2C52.6,134.7,52.6,135.5,52.4,136.2z"/>
	<path fill="#D1D1D1" d="M131.1,111.3c0.3-0.2,0.7-0.1,1-0.1C131.8,111.4,131.5,111.3,131.1,111.3z"/>
	<path fill="#D1D1D1" d="M149.9,95.8c-0.3,0.2-0.6,0.1-0.9,0.1C149.2,95.8,149.5,95.8,149.9,95.8z"/>
	<path fill="#D1D1D1" d="M150.9,95.7c-0.2,0.2-0.5,0.1-0.8,0.1C150.3,95.6,150.6,95.7,150.9,95.7z"/>
	<path fill="#D1D1D1" d="M132.9,111.2c0.2-0.2,0.5-0.1,0.8-0.1C133.4,111.2,133.2,111.2,132.9,111.2z"/>
	<path fill="#D1D1D1" d="M70.9,155.4c0,0.2,0.1,0.4-0.1,0.5C70.7,155.7,70.7,155.5,70.9,155.4z"/>
	<path fill="#D1D1D1" d="M38.3,125.4c0.2,0.1,0.1,0.3,0.1,0.5C38.2,125.7,38.2,125.5,38.3,125.4z"/>
	<path fill="#D1D1D1" d="M70.7,156.2c0,0.2,0.1,0.4-0.1,0.5C70.6,156.5,70.6,156.3,70.7,156.2z"/>
	<path fill="#D1D1D1" d="M151.6,95.6c-0.2,0.2-0.4,0.1-0.6,0.1C151.2,95.5,151.4,95.5,151.6,95.6z"/>
	<path fill="#D1D1D1" d="M48.9,159.3c0,0.2,0.1,0.4-0.1,0.5C48.8,159.7,48.8,159.5,48.9,159.3z"/>
	<path fill="#D1D1D1" d="M16.5,159.5c0,0.2,0.1,0.4-0.1,0.5C16.3,159.8,16.3,159.6,16.5,159.5z"/>
	<path fill="#D1D1D1" d="M48.8,160.1c0,0.2,0.1,0.4-0.1,0.5C48.7,160.5,48.7,160.3,48.8,160.1z"/>
	<path fill="#D1D1D1" d="M152.4,95.4c-0.2,0.2-0.4,0.1-0.6,0.1C152,95.4,152.2,95.4,152.4,95.4z"/>
	<path fill="#D1D1D1" d="M47.6,118.4c0.2,0,0.4-0.1,0.5,0.1C47.9,118.5,47.7,118.5,47.6,118.4z"/>
	<path fill="#D1D1D1" d="M46.2,118.4c0.2-0.2,0.3-0.1,0.5-0.1C46.5,118.5,46.3,118.5,46.2,118.4z"/>
	<path fill="#D1D1D1" d="M69.7,161.9c0,0.2,0.1,0.4-0.1,0.5C69.6,162.2,69.6,162.1,69.7,161.9z"/>
	<path fill="#D1D1D1" d="M134.3,111.1c0.2-0.2,0.3-0.1,0.5-0.1C134.7,111.1,134.5,111.1,134.3,111.1z"/>
	<path fill="#D1D1D1" d="M135.3,110.9c0.2-0.2,0.3-0.1,0.5-0.1C135.7,111,135.5,110.9,135.3,110.9z"/>
	<path fill="#D1D1D1" d="M47.7,166.7c0,0.2,0.1,0.4-0.1,0.5C47.6,167.1,47.5,166.9,47.7,166.7z"/>
	<path fill="#D1D1D1" d="M182.1,134.3c0-0.2,0-0.4,0.1-0.5C182.2,133.9,182.3,134.1,182.1,134.3z"/>
	<path fill="#D1D1D1" d="M18.1,149.4c0,0.2,0.1,0.4-0.1,0.5C18,149.7,18,149.6,18.1,149.4z"/>
	<path fill="#D1D1D1" d="M155.1,139.3c0-0.2-0.1-0.4,0.1-0.5C155.2,138.9,155.2,139.1,155.1,139.3z"/>
	<path fill="#D1D1D1" d="M114.2,15.6c0.2,0,0.3-0.1,0.5,0.1C114.5,15.6,114.3,15.7,114.2,15.6z"/>
	<path fill="#D1D1D1" d="M115.3,15.7c0.2,0,0.4-0.1,0.5,0.1C115.7,15.8,115.5,15.8,115.3,15.7z"/>
	<path fill="#D1D1D1" d="M95.7,134.9c0-0.2-0.1-0.3,0.1-0.4C95.8,134.7,95.9,134.8,95.7,134.9z"/>
	<path fill="#D1D1D1" d="M110,162.2c-0.1-0.1-0.2-0.2-0.1-0.4C110,161.9,110,162,110,162.2z"/>
	<path fill="#D1D1D1" d="M95.6,135.6c0-0.1,0-0.1,0-0.2c0-0.1,0-0.2,0.1-0.3C95.7,135.3,95.7,135.5,95.6,135.6z"/>
	<path fill="#D1D1D1" d="M90.7,135.4c0,0.1,0.1,0.3-0.1,0.4C90.6,135.7,90.6,135.5,90.7,135.4z"/>
	<path fill="#D1D1D1" d="M82.9,136c0-0.2-0.1-0.3,0.1-0.4C83,135.7,83,135.8,82.9,136z"/>
	<path fill="#D1D1D1" d="M107.4,70.4c-0.1-0.1-0.1-0.2-0.1-0.4C107.4,70.2,107.4,70.3,107.4,70.4z"/>
	<path fill="#D1D1D1" d="M136.4,110.8c0.1-0.1,0.2-0.1,0.4-0.1C136.6,110.8,136.5,110.8,136.4,110.8z"/>
	<path fill="#D1D1D1" d="M138.7,110.4c0.1-0.1,0.2-0.1,0.4-0.1C138.9,110.4,138.8,110.4,138.7,110.4z"/>
	<path fill="#D1D1D1" d="M47.5,167.5c0,0.2,0.1,0.3-0.1,0.4C47.4,167.8,47.4,167.6,47.5,167.5z"/>
	<path fill="#D1D1D1" d="M107.2,69.4c-0.1-0.1-0.1-0.3-0.1-0.4C107.2,69.1,107.2,69.3,107.2,69.4z"/>
	<path fill="#D1D1D1" d="M153,95.3c-0.1,0.1-0.3,0.1-0.4,0.1C152.7,95.3,152.9,95.3,153,95.3z"/>
	<path fill="#D1D1D1" d="M78.5,134c0,0.2,0.1,0.3-0.1,0.4C78.4,134.2,78.4,134.1,78.5,134z"/>
	<path fill="#D1D1D1" d="M95.9,134.3c0-0.2-0.1-0.3,0.1-0.4C96,134,96,134.2,95.9,134.3z"/>
	<path fill="#D1D1D1" d="M78.6,133.3c0,0.2,0.1,0.3-0.1,0.4C78.5,133.6,78.5,133.5,78.6,133.3z"/>
	<path fill="#D1D1D1" d="M117.1,15.9c0.1,0,0.3,0,0.4,0.1C117.4,16,117.2,16,117.1,15.9z"/>
	<path fill="#D1D1D1" d="M52.4,133.6c-0.1-0.1-0.1-0.2-0.1-0.4C52.4,133.3,52.4,133.5,52.4,133.6z"/>
	<path fill="#D1D1D1" d="M107.3,69.9c-0.1-0.1-0.1-0.2-0.1-0.4C107.3,69.7,107.3,69.8,107.3,69.9z"/>
	<path fill="#D1D1D1" d="M91.6,131.3c0,0.2,0,0.3-0.1,0.4C91.5,131.6,91.5,131.4,91.6,131.3z"/>
	<path fill="#D1D1D1" d="M73.7,154.8c0,0.1-0.1,0.2-0.2,0.1c-0.1-0.1,0-0.1,0-0.2C73.6,154.7,73.6,154.8,73.7,154.8z"/>
	<path fill="#D1D1D1" d="M116.3,15.8c0.1,0,0.3-0.1,0.4,0.1C116.6,15.9,116.4,15.9,116.3,15.8z"/>
	<path fill="#D1D1D1" d="M91.9,130.2c0,0.1,0,0.3-0.1,0.4C91.8,130.4,91.8,130.3,91.9,130.2z"/>
	<path fill="#D1D1D1" d="M92.1,129c0,0.1,0,0.3-0.1,0.4C92,129.3,92,129.1,92.1,129z"/>
	<path fill="#D1D1D1" d="M105.2,104.7c-2.3-1-4.6-2.1-6.8-3.4c-0.1,0-0.1-0.1-0.2-0.1c-0.1,0-0.1-0.1-0.1-0.2c0-0.1,0.1-0.1,0.2-0.2
		c0.1,0,0.3-0.1,0.4-0.1c0.5,0.1,1,0.1,1.5,0c1.3,0,2.6,0.1,3.9,0.2c1.5,0.1,2.9,0.2,4.4,0.4c1.2,0.2,2.5,0.3,3.7,0.4
		c1.1,0.2,2.2,0.2,3.2,0.5c0.4,0.1,0.8,0.1,1.2,0.2c3.3,0.7,6.6,1.7,9.9,2.4c3.5,0.8,7.1,1.6,10.6,2.3c0.2,0,0.6-0.1,0.5,0.4
		c-0.3,0.2-0.6,0.1-0.9,0.1c-2.9-0.3-5.8-0.6-8.7-0.8c-1.8-0.2-3.6-0.4-5.4-0.5c-2.9-0.3-5.8-0.6-8.7-0.9c-2.4-0.2-4.8-0.4-7.2-0.7
		C106.3,104.7,105.7,104.6,105.2,104.7z"/>
	<path fill="#D1D1D1" d="M105.4,71.6c0.2,0.4,0.3,0.8,0.4,1.2c0.1,0.2,0.1,0.4,0.2,0.6c0,0.3-0.2,0.5-0.4,0.5c-0.2,0-0.4,0-0.6,0
		c-3.8,0-7.5,0-11.3,0c-2.3,0-4.5,0.2-6.8,0.1c-1.7,0.1-3.4-0.1-5.1-0.2c-1.1,0-2.2,0-3.3-0.1c-0.6-0.1-1.3-0.1-1.9-0.1
		c-0.4,0-0.5-0.3-0.6-0.6c-0.1-0.8-0.3-1.6-0.4-2.4c0.7,0.2,1.4,0.2,2.1,0.2c3.5,0.1,7,0.2,10.5,0.3c3.3,0.1,6.6,0.3,9.8,0.2
		c2.3,0,4.5,0.3,6.8,0.1C105.1,71.5,105.3,71.5,105.4,71.6z"/>
	<path fill="#D1D1D1" d="M105.2,104.7c0-0.2,0.1-0.2,0.3-0.2c0.5,0,1,0,1.6,0.1c0.5,0.1,1.1,0.1,1.6,0.1c1.3,0.2,2.6,0.2,4,0.4
		c1.1,0.1,2.2,0.3,3.3,0.3c0.3,0,0.6,0.1,0.9,0.1c1.1,0.1,2.2,0.2,3.3,0.3c0.6,0.1,1.1,0.2,1.7,0.2c0.7,0,1.4,0.1,2.1,0.2
		c0.6,0.1,1.2,0,1.8,0.1c0.7,0.2,1.4,0.1,2.1,0.2c0.6,0.1,1.2,0.1,1.8,0.1c1.1,0.2,2.3,0.2,3.5,0.4c0.5,0.1,0.9,0.1,1.4,0.1
		c1.1,0.1,2.2,0.3,3.3,0.3c0.1-0.1,0.2,0,0.3,0.2c0,0.1-0.1,0.2-0.1,0.2c-0.1,0-0.2,0-0.2,0c-0.1,0.1-0.3,0-0.4,0.1
		c-0.3,0-0.7,0.2-1,0.1c-0.1,0.1-0.3,0-0.4,0.1c-0.2,0-0.3,0-0.5,0c-0.1,0.1-0.3,0-0.4,0.1c-0.1,0-0.2,0-0.4,0
		c-0.2,0.1-0.4,0-0.5,0.1c-0.1,0-0.2,0-0.3,0c-0.2,0.1-0.4,0-0.5,0.1c-0.2,0-0.3,0-0.5,0c-0.2,0.1-0.5,0-0.8,0.1c-0.1,0-0.2,0-0.4,0
		c-2.2,0.2-4.3,0.1-6.5,0.1c-1.1,0-2.3-0.2-3.4-0.1c-0.5-0.2-1.1-0.1-1.7-0.2c-1.3-0.2-2.5-0.4-3.8-0.6c-2.6-0.5-5.2-1.2-7.8-2
		C107.3,105.6,106.3,105.1,105.2,104.7z"/>
	<path fill="#D1D1D1" d="M137.9,107.9c0.1-0.2,0.1-0.3-0.1-0.4c-0.7-0.2-1.5-0.3-2.2-0.5c-1.5-0.3-3-0.6-4.4-0.9
		c-1.3-0.3-2.7-0.7-4-0.9c-3.4-0.7-6.7-1.6-10-2.5c-0.2,0-0.4-0.1-0.5-0.2c1,0,2,0.1,3,0.2c0.1,0,0.3,0,0.4,0c1,0,1.9,0.1,2.9,0.2
		c0.1,0,0.2,0,0.3,0c1.1,0,2.3,0.2,3.4,0.2c0.9,0.1,1.7,0.2,2.6,0.2c0.7,0,1.4,0.1,2.1,0.2c0.1,0,0.2,0,0.3,0c1,0,2,0.1,3,0.2
		c0.3,0,0.7,0,1,0c0.7,0.1,1.5,0.2,2.2,0.3c0.9,0.1,1.7,0.2,2.6,0.3c0.8,0.1,1.5,0.2,2.3,0.3c0.9,0.2,1.8,0.2,2.7,0.3
		c0.3,0,0.6,0.1,0.9,0.2c0,0.3-0.3,0.3-0.4,0.4c-2.5,0.9-5.1,1.6-7.8,2.2C138,107.9,137.9,107.9,137.9,107.9z"/>
	<path fill="#D1D1D1" d="M113.9,5c1.8-0.4,3.6-0.6,5.5-0.9c0.2,0,0.4,0,0.6,0c0.9,0.3,1.8,0.4,2.7,0.5c3.8,0.6,7.5,1.3,11.3,1.9
		c4.8,0.8,9.6,1.7,14.4,2.7c1.4,0.3,2.7,0.6,4.1,0.8c0.3,0,0.5,0.1,0.8,0.1c0.8,0.3,1.4,0.8,2.1,1.1c0.3,0.2,0.7,0.4,1,0.6
		c0.9,0.5,1.7,1.2,2.6,1.8c-0.1,0.4-0.4,0.3-0.6,0.3c-0.4,0-0.7-0.1-1.1-0.2c-4.9-1-9.8-1.9-14.7-2.9c-6.2-1.2-12.5-2.3-18.7-3.4
		c-3.1-0.6-6.2-1.2-9.3-1.7c-0.4-0.1-0.7-0.1-0.9-0.4C113.6,5,113.8,5.1,113.9,5z"/>
	<path fill="#D1D1D1" d="M108.8,6.3c0.7-0.3,1.4-0.4,2.2-0.6c1.1,0.4,2.3,0.4,3.5,0.6c3.5,0.6,7.1,1.2,10.6,1.8
		c5.1,0.9,10.2,1.9,15.3,2.9c4.2,0.8,8.4,1.7,12.5,2.6c2.9,0.7,5.9,1.3,8.8,1.9c0.3,0.2,0.6,0.4,0.9,0.7c0,0.6-0.4,0.4-0.6,0.4
		c-0.8-0.1-1.6-0.3-2.4-0.5c-4.3-0.9-8.6-1.6-12.9-2.4c-3.7-0.7-7.5-1.3-11.2-2c-0.2,0-0.5,0-0.7-0.1c-6.2-1.1-12.4-2.4-18.7-3.5
		c-2.1-0.4-4.2-0.8-6.4-1.2C109.3,6.7,108.9,6.8,108.8,6.3z"/>
	<path fill="#D1D1D1" d="M161.7,15.4c-0.3,0.2-0.6,0.1-0.8,0.1c-2.5-0.6-5-1.1-7.5-1.7c-2.2-0.5-4.3-1-6.5-1.4
		c-2.2-0.5-4.4-0.9-6.6-1.3c-1.7-0.3-3.4-0.7-5.1-1c-1.7-0.3-3.4-0.6-5-0.9c-1.3-0.2-2.6-0.5-3.9-0.7c-1.9-0.3-3.7-0.6-5.6-1
		c-1.3-0.2-2.7-0.5-4-0.7c-1.4-0.3-2.9-0.5-4.4-0.7c-0.3,0-0.5-0.1-0.8-0.2c-0.2,0-0.3-0.1-0.4-0.3c0.8-0.2,1.7-0.4,2.5-0.6
		c0.1,0,0.1,0,0.2,0c0.1,0.3,0.5,0.3,0.7,0.3c1.5,0.2,3,0.5,4.5,0.8c2,0.4,3.9,0.7,5.9,1.1c1.6,0.3,3.1,0.5,4.7,0.8
		c1.4,0.3,2.8,0.5,4.2,0.8c1.4,0.3,2.8,0.5,4.2,0.7c1.4,0.3,2.9,0.5,4.3,0.8c1.6,0.3,3.1,0.6,4.7,0.9c1.6,0.3,3.2,0.6,4.8,0.9
		c1.7,0.3,3.3,0.6,5,1c0.5,0.1,1,0.2,1.5,0.3c0.3,0.1,0.7,0.1,1-0.1c0,0,0.1,0,0.1,0C160,14.1,160.9,14.7,161.7,15.4z"/>
	<path fill="#D1D1D1" d="M160.9,23.2c-0.8-0.4-1.6-0.6-2.4-0.9c-0.3-0.1-0.5-0.1-0.8-0.2c-1.3-0.5-2.6-0.9-3.9-1.3
		c-1.3-0.4-2.6-0.9-3.8-1.3c-1-0.3-2.1-0.7-3.1-1c-0.2-0.1-0.4-0.1-0.5-0.2c0.3-0.3,0.7-0.2,1-0.1c3.5,0.6,7.1,0.8,10.6,1.5
		c2.7,0.6,5.3,1.4,8,2.1c1,0.3,2.1,0.6,3.1,0.7c0.6,0.3,0.8,0.9,1.3,1.3c0.5,0.6,1,1.2,1.5,1.8c0,0,0.1,0.1,0,0.2
		c-0.4,0.2-0.9,0-1.3-0.1c-1.7-0.4-3.3-0.8-5-1.2c-1.4-0.3-2.9-0.7-4.3-1.1C161.2,23.2,161.1,23.2,160.9,23.2z"/>
	<path fill="#D1D1D1" d="M169.2,22.3c-0.1,0.2-0.2,0.2-0.4,0.2c-0.9-0.2-1.7-0.4-2.6-0.6c-2.2-0.6-4.3-1.2-6.5-1.7
		c-0.5-0.1-1.1-0.3-1.6-0.4c-2.4-0.6-4.7-1.4-7-2.2c-0.5-0.2-1-0.3-1.6-0.5c-0.3-0.1-0.6-0.1-0.7-0.5c0.3-0.6,1-0.7,1.5-0.8
		c0.3,0,0.6,0,0.9-0.1c1,0,1.9,0.3,2.9,0.5c1.7,0.4,3.4,0.9,5.1,1.3c1.7,0.5,3.4,0.9,5.1,1.4c0.5,0.1,1,0.4,1.6,0.3
		c0.8,0.5,1.3,1.1,1.9,1.8C168.4,21.3,168.8,21.8,169.2,22.3z"/>
	<path fill="#D1D1D1" d="M166,19.1c-0.1,0.3-0.3,0.3-0.5,0.2c-0.6-0.2-1.3-0.3-1.9-0.5c-1.4-0.4-2.7-0.8-4.1-1.1
		c-0.1,0-0.1-0.1-0.2-0.1c-3.1-1.1-6.3-1.9-9.5-2.6c-4.8-1.2-9.7-2.2-14.6-3.2c-0.2,0-0.5,0-0.6-0.4c0.7-0.1,1.3,0.2,2,0.3
		c1.4,0.2,2.8,0.5,4.2,0.7c2.3,0.4,4.6,0.8,7,1.2c2,0.4,4.1,0.7,6.2,1.1c1.1,0.2,2.2,0.4,3.3,0.7c1.6,0.3,3.1,0.7,4.7,1
		c0.2,0,0.5,0.1,0.6-0.2c0.7,0.5,1.4,1.1,2,1.7C165.1,18.2,165.6,18.7,166,19.1z"/>
	<path fill="#D1D1D1" d="M100.8,47.3c0.1,0,0.3,0,0.4,0c0.9,0,1.7,0.1,2.6,0c1.4-0.2,2.8,0,4.2-0.1c1.4-0.1,2.7,0,4.1-0.1
		c1.4-0.1,2.8,0,4.2-0.1c1-0.1,2.1-0.1,3.1-0.1c0.9,0.3,1.8,0.1,2.7,0.1c1.8-0.1,3.6,0,5.4-0.1c6.4,0,12.7,0,19.1,0
		c0.7,0,1.3,0,2-0.1c0.1,0.1,0.1,0.2,0.2,0.3c0.1,0.4,0.1,0.5-0.4,0.5c-1.2,0-2.4,0-3.6,0c-9.1,0.3-18.3,0.2-27.4,0.1
		c-5.3,0-10.6,0-16-0.1C101.2,47.5,101,47.6,100.8,47.3z"/>
	<path fill="#D1D1D1" d="M148.6,46.7c-0.1,0.2-0.2,0.3-0.4,0.3c-0.1,0-0.3,0-0.4,0c-9.2,0-18.4,0-27.6,0c-0.3,0-0.6,0.1-0.8-0.2
		c2.3,0,4.6-0.1,6.9-0.2c1.4,0,2.8,0,4.3-0.1c1.5-0.1,3.1,0,4.6-0.1c1.4-0.1,2.8,0,4.3-0.1c1.6-0.1,3.2,0,4.8-0.1
		c0.9-0.1,1.8-0.1,2.7-0.1C147.6,46,148.2,46.2,148.6,46.7z"/>
	<path fill="#D1D1D1" d="M105.4,71.6c-1.2,0.2-2.4,0.2-3.7,0c-0.2,0-0.3,0-0.5,0c-1.7,0-3.4,0-5.1,0c-2.3,0-4.6-0.1-6.9-0.2
		c-1.5,0-3,0-4.4-0.1c-1.5-0.1-3,0-4.5-0.1c-1.3-0.1-2.5-0.1-3.8-0.1c-0.4,0-0.6-0.1-0.8-0.4c-0.1-0.7-0.1-1.3-0.2-2
		c0-0.3,0-0.5,0-0.8c0.6,0.3,1.2,0.4,1.8,0.4c4-0.1,7.9,0.1,11.9,0.2c4,0.1,8.1,0,12.1,0.1c0.6,0,1.3,0.1,1.9,0.1
		c0.7,0,1.3,0,1.6-0.8c0.3,0.4,0.1,0.8,0.2,1.2C105.2,69.9,105.3,70.8,105.4,71.6z"/>
	<path fill="#D1D1D1" d="M104.8,67.9c0,1-0.1,1.1-1.1,1c-4.3-0.2-8.6,0-12.9-0.2c-2.4-0.1-4.7,0-7.1-0.1c-2.2-0.2-4.4,0-6.7-0.1
		c-0.4,0-0.8-0.2-1.3-0.2c-0.3,0-0.1-0.4-0.3-0.5c0-0.4,0-0.8,0-1.3c0.2-0.2,0.5-0.2,0.8-0.2c2.4,0,4.8-0.1,7.2,0
		c6.7,0.2,13.3,0,20,0.1c0.5,0,0.9-0.1,1.2-0.5C104.8,66.7,104.7,67.3,104.8,67.9z"/>
	<path fill="#D1D1D1" d="M104.6,66.1c0,0.1,0,0.2,0,0.3c0,0.2-0.1,0.4-0.3,0.3c-0.1,0-0.3,0-0.4,0c-6.3,0-12.6,0.1-19,0
		c-3.2-0.1-6.3,0-9.5-0.1c0,0,0-0.1,0-0.1c-0.1-0.4-0.1-0.7,0-1.1c0.2,0,0.4,0,0.6,0c9.3,0,18.5,0,27.8,0c0,0,0,0,0.1,0
		C104.6,65.4,104.7,65.2,104.6,66.1z"/>
	<path fill="#D1D1D1" d="M75.5,65.4c0,0.4,0,0.7,0,1.1C75.3,66.1,75.3,65.8,75.5,65.4z"/>
	<path fill="#D1D1D1" d="M149,16.6c0.1,0.2,0.3,0.2,0.6,0.3c1.9,0.6,3.8,1.2,5.7,1.9c0.8,0.3,1.7,0.5,2.5,0.8c0.1,0,0.3,0,0.4,0.2
		c-0.9-0.1-1.9-0.3-2.8-0.4c-0.9-0.1-1.8-0.3-2.7-0.3c-0.2,0-0.4-0.1-0.6-0.1c-0.7-0.1-1.5-0.2-2.2-0.3c-0.7-0.1-1.5-0.1-2.2-0.3
		c-0.4-0.1-0.8-0.1-1.3-0.1c-0.9-0.2-1.8-0.4-2.7-0.6c-0.5-0.3-1-0.4-1.5-0.5c-1-0.3-2.1-0.7-3.1-1c-2.4-0.8-4.8-1.6-7.3-2.3
		c-0.9-0.3-1.9-0.4-2.8-0.6c-1.7-0.3-3.5-0.7-5.2-1c-0.6-0.1-1.1-0.2-1.7-0.3c-0.1-0.1-0.4,0-0.5-0.1l0,0c-2.8-0.5-5.6-1.2-8.4-1.7
		c-2.8-0.5-5.6-1-8.4-1.5c-0.3-0.1-0.8,0-0.8-0.6c0.3-0.2,0.7-0.3,1-0.4c1.8,0.4,3.6,0.5,5.5,0.9c4.6,0.9,9.1,1.8,13.7,2.8
		c4.9,1.1,9.8,2.1,14.7,2.9c3.2,0.5,6.3,1.4,9.5,2.2C148.6,16.3,148.8,16.4,149,16.6z"/>
	<path fill="#D1D1D1" d="M132,108.8c0.2-0.2,0.5-0.1,0.8-0.1C132.5,108.9,132.3,108.8,132,108.8z"/>
	<path fill="#D1D1D1" d="M134.1,108.5c0.1-0.2,0.3-0.1,0.5-0.1C134.4,108.6,134.2,108.5,134.1,108.5z"/>
	<path fill="#D1D1D1" d="M133.3,108.7c0.1-0.2,0.3-0.1,0.5-0.1C133.7,108.7,133.5,108.6,133.3,108.7z"/>
	<path fill="#D1D1D1" d="M137.2,108c0.1-0.1,0.2-0.1,0.4-0.1C137.5,108,137.4,108,137.2,108z"/>
	<path fill="#D1D1D1" d="M134.9,108.4c0.1-0.1,0.2-0.1,0.4-0.1C135.2,108.4,135.1,108.4,134.9,108.4z"/>
	<path fill="#D1D1D1" d="M135.8,108.3c0.1-0.1,0.2-0.1,0.4-0.1C136.1,108.3,136,108.3,135.8,108.3z"/>
	<path fill="#D1D1D1" d="M153.3,10c-0.2,0.3-0.5,0.2-0.8,0.1c-0.9-0.2-1.8-0.4-2.7-0.5c-2.2-0.4-4.3-0.8-6.4-1.3
		c-1.4-0.3-2.9-0.5-4.3-0.8c-1.6-0.3-3.2-0.6-4.8-0.8c-1-0.1-2.1-0.4-3.1-0.5c-1.2-0.2-2.4-0.4-3.7-0.6c-1-0.2-2-0.3-3-0.5
		c-1-0.2-2-0.3-2.9-0.5c-0.4-0.1-0.9-0.1-1.3-0.2c-0.1,0-0.2-0.1-0.2-0.3c0,0,0.1,0,0.1,0c0.2-0.1,0.5,0,0.8-0.1c0.2,0,0.3,0,0.5,0
		c0.3-0.1,0.5,0,0.8-0.1c0.2,0,0.3,0,0.5,0c0.3-0.1,0.6,0,0.9-0.1c2.3-0.2,4.6-0.4,6.9-0.2c4.5,0.2,8.9,1.1,13.2,2.5
		c3.2,1,6.3,2.3,9.2,3.9C153.1,9.9,153.2,10,153.3,10z"/>
	<path fill="#D1D1D1" d="M134.7,11.3c0.6,0.3,1.3,0.3,1.9,0.5c1.6,0.4,3.2,0.7,4.8,1.1c2.3,0.5,4.7,1,7,1.6c1.5,0.3,2.9,0.8,4.4,1.1
		c1.3,0.3,2.7,0.6,4,1.1c0.7,0.2,1.5,0.5,2.2,0.8c0.1,0,0.3,0.1,0.4,0.2c-0.9-0.1-1.7-0.4-2.5-0.6c-1.7-0.4-3.4-0.8-5.1-1.2
		c-0.1,0-0.3,0-0.4,0c-1.1,0-2.2-0.3-3.3-0.5c-5-0.9-10-1.9-15-2.8c-5.4-1-10.7-2.1-16.1-3.2c-3.1-0.6-6.3-1.2-9.4-1.8
		c-0.3-0.1-0.9,0.1-0.9-0.6c0,0,0.1,0,0.1,0c0.7-0.2,1.3-0.5,2-0.6c0.1,0.2,0.4,0.3,0.6,0.4c1.4,0.2,2.7,0.5,4,0.7
		c1.9,0.4,3.9,0.7,5.8,1.1c1.7,0.3,3.4,0.6,5,1c2.5,0.5,5,1,7.4,1.4C132.8,11,133.8,11.1,134.7,11.3z"/>
	<path fill="#D1D1D1" d="M123.6,3.7c-0.3,0.2-0.6,0.1-0.9,0.1C123,3.7,123.3,3.7,123.6,3.7z"/>
	<path fill="#D1D1D1" d="M122.2,3.8c-0.2,0.2-0.5,0.1-0.8,0.1C121.7,3.8,121.9,3.8,122.2,3.8z"/>
	<path fill="#D1D1D1" d="M120.9,4c-0.2,0.2-0.5,0.1-0.8,0.1C120.4,3.9,120.7,3.9,120.9,4z"/>
	<path fill="#D1D1D1" d="M113.7,5.1c-0.1,0-0.1,0-0.2,0c0.1-0.1,0.3-0.1,0.4-0.1C113.9,5.1,113.8,5.1,113.7,5.1z"/>
	<path fill="#FFFFFF" d="M66.4,139.9c-0.2,0.3-0.5,0.5-0.7,0.8c-0.9,0.8-1.9,1.3-3.2,1.2c-1.1-0.1-1.9-0.6-2.3-1.6
		c-0.4-1-0.5-2-0.4-3c0.2-2.5,0.7-4.9,1.8-7.2c0.6-1.2,1.2-2.4,2.3-3.3c0.3-0.4,0.6-0.6,1.1-0.8c0.9-0.3,1.8-0.4,2.7,0
		c0.4,0.2,0.8,0.4,0.9,0.8c0.8,0.9,0.9,2,1,3.2c0.4,0.7,0.1,1.3,0,2c-0.3,2.5-1.1,4.9-2.4,7.1C66.9,139.4,66.7,139.7,66.4,139.9z"/>
	<path fill="#D1D1D1" d="M66.4,139.9c0.8-1.4,1.6-2.8,2.1-4.3c0.6-1.8,0.9-3.7,1-5.7c0.9,0.6,1.1,1.6,1.4,2.6c0.3,1.4,0.2,2.7-0.4,4
		c-0.7,1.5-1.7,2.5-3.2,3.2C67,139.8,66.7,139.9,66.4,139.9z"/>
	<path fill="#D1D1D1" d="M67.6,126.1c-0.9-0.3-1.9-0.3-2.8,0c-0.9,0.1-1.9,0.1-2.8,0.1c-0.2,0-0.6,0.1-0.6-0.4
		c0.5-0.2,0.9-0.5,1.4-0.5c0.3,0.2,0.6,0,0.9,0c1.7,0,3.5,0,5.2,0c0.1,0,0.2,0,0.3,0c0.4,0.1,0.8,0.3,1.1,0.5c0,0.4-0.4,0.4-0.6,0.4
		C68.9,126.2,68.2,126.2,67.6,126.1z"/>
	<path fill="#D1D1D1" d="M69.1,125.3c-0.1,0.2-0.3,0.2-0.6,0.2c-1.8,0-3.7,0-5.5,0c-0.1,0-0.4,0.1-0.3-0.2
		C64.8,124.5,67,124.6,69.1,125.3z"/>
	<path fill="#D1D1D1" d="M61.3,125.8c0,0.3,0.3,0.2,0.4,0.2c0.8,0,1.6,0,2.4,0c0.2,0,0.4-0.1,0.6,0.1c-0.4,0.1-0.6,0.5-1,0.6
		c-0.2-0.2-0.5-0.1-0.7-0.1c-0.8,0-1.7,0.1-2.5-0.1c0,0-0.1,0-0.1-0.1C60.6,126.1,61,125.9,61.3,125.8z"/>
	<path fill="#D1D1D1" d="M67.6,126.1c0.2-0.2,0.4-0.1,0.5-0.1c0.5,0,1.1,0,1.6,0c0.2,0,0.4,0,0.5-0.2c0.4,0.1,0.7,0.3,1,0.8
		c-0.8,0-1.5,0-2.1,0c-0.2,0-0.5,0-0.7,0.2C68.2,126.5,67.9,126.3,67.6,126.1z"/>
	<path fill="#D1D1D1" d="M106.7,6.9c0.2,0.5,0.6,0.4,1,0.5c1.6,0.2,3.2,0.6,4.8,0.9c1.4,0.3,2.9,0.5,4.3,0.8c2.4,0.5,4.8,1,7.2,1.5
		c1.6,0.3,3.3,0.6,4.9,1c1.4,0.3,2.9,0.6,4.3,0.8c1.8,0.3,3.5,0.7,5.3,1c0.9,0.2,1.9,0.4,2.8,0.6c1.3,0.2,2.7,0.5,4,0.7
		c0.9,0.2,1.8,0.4,2.7,0.5c1.1,0.2,2.1,0.4,3.2,0.6c0.1,0,0.2,0.1,0.2,0.1c-0.2,0.1-0.4,0.1-0.7,0.1c-0.7,0-1.3,0.1-1.8,0.6
		c-1-0.2-2-0.5-3.1-0.7c-1.7-0.4-3.4-0.9-5.1-1.2c-1.6-0.3-3.1-0.6-4.7-0.8c-1.9-0.3-3.9-0.7-5.8-1.1c-1.7-0.3-3.4-0.7-5.1-1.1
		c-2.6-0.5-5.1-1.1-7.7-1.6c-2.1-0.5-4.3-0.8-6.4-1.3c-0.9-0.2-1.8-0.3-2.7-0.4c-1-0.1-1.9-0.3-2.9-0.4c-0.2,0-0.5-0.1-0.6-0.4
		C105.6,7.3,106.1,7.1,106.7,6.9z"/>
	<path fill="#D1D1D1" d="M104,7.9c0.1,0.2,0.3,0.3,0.6,0.4c0.7,0.1,1.5,0.3,2.2,0.4c1.1,0.2,2.2,0.4,3.2,0.6c1.3,0.2,2.7,0.5,4,0.7
		c1.1,0.2,2.1,0.4,3.2,0.7c1.4,0.3,2.8,0.6,4.2,1c0.1,0,0.1,0.1,0.2,0.1c-0.6,0.1-1.1-0.1-1.7-0.2c-0.6-0.1-1.3-0.1-1.9-0.1
		c-0.7-0.1-1.5-0.2-2.2-0.3c-0.8-0.1-1.7-0.2-2.5-0.4c-1.2-0.2-2.4-0.3-3.6-0.5c-0.8-0.1-1.5-0.2-2.3-0.3c-0.9-0.1-1.8-0.2-2.6-0.3
		c-0.8-0.2-1.6-0.2-2.4-0.3c-0.3,0-0.7-0.1-0.9-0.4c0.3-0.3,0.7-0.4,1.1-0.6C103,8.3,103.5,8,104,7.9z"/>
	<path fill="#FFFFFF" d="M177.7,130.8c-0.2,0.4-0.2,0.9-0.3,1.4c-0.1,0.3-0.2,0.4-0.5,0.5c-1.6,0.1-3.2,0.1-4.8,0
		c-0.5,0-1.1-0.1-1.7-0.1c0.1-1.1,0.5-2.2,0.8-3.2c0.3-0.6,0.6-1.2,1-1.8c0.9-1.2,2.1-1.7,3.6-1.6c0.9,0.1,1.5,0.6,1.8,1.4
		c0.3,0.7,0.3,1.4,0.3,2.2C177.8,130.1,177.8,130.4,177.7,130.8z"/>
	<path fill="#D1D1D1" d="M170.4,125.8c2.1-1.5,6.8-1.5,8.5-0.3c-0.2,0.2-0.3,0.2-0.6,0.2c-0.8,0-1.6,0.1-2.4-0.1
		c-0.6-0.1-1.2,0-1.8,0.1c-0.1,0-0.2,0.1-0.3,0.1C172.7,125.6,171.6,125.9,170.4,125.8z"/>
	<path fill="#FFFFFF" d="M134.8,138.2c0.1-0.4,0-0.8,0.1-1.3c0.2-1.5,1.1-2.6,2.5-3.1c1.1-0.5,2.3-0.6,3.5-0.5
		c-0.2,1.8-0.5,3.5-1.1,5.2c0,0.1-0.1,0.2-0.1,0.4c-0.2,0.4-0.4,0.8-0.7,1.1c-0.6,0.7-1.4,0.9-2.3,0.8c-0.8-0.1-1.3-0.5-1.5-1.2
		C134.9,139.1,134.9,138.7,134.8,138.2z"/>
	<path fill="#D1D1D1" d="M136,125.6c0.7-0.3,1.4-0.5,2.1-0.7c1.5-0.3,2.9-0.4,4.4-0.1c0.8,0.2,1.3,0.4,1.8,0.8c-2.8,0-5.5,0-8.2,0
		C136.1,125.7,136,125.6,136,125.6z"/>
	<path fill="#D1D1D1" d="M121.6,11.7c0.2,0,0.4-0.1,0.5,0.1C121.9,11.8,121.7,11.9,121.6,11.7z"/>
	<path fill="#D1D1D1" d="M106.7,125.7c0,0.2-0.1,0.4-0.3,0.4c-1.2,0-2.4,0-3.6,0c-0.3,0-0.4-0.2-0.4-0.5c0.8-0.2,1.6,0.1,2.3,0
		c0.4,0,0.8,0,1.3-0.1C106.2,125.5,106.5,125.5,106.7,125.7z"/>
	<path fill="#D1D1D1" d="M106.7,125.7c-1.2,0-2.5,0-3.7,0c-0.2,0-0.4,0-0.6-0.1c0-0.1,0-0.3,0.2-0.2c0.2,0,0.5,0,0.7,0
		c0.8,0.1,1.6,0.1,2.5,0c0.2,0,0.5,0,0.7,0C106.7,125.3,106.7,125.5,106.7,125.7z"/>
	<path fill="#FFFFFF" d="M94.3,158.1c-3.4,0.1-6.8,0.1-10.2,0c0.2-1,0.5-2.1,1-3c0.5-1,1.2-1.8,2-2.5c0.1-0.1,0.3-0.2,0.4-0.4
		c0.4-0.4,0.9-0.5,1.5-0.7c0.9-0.2,1.8-0.2,2.6,0c0.2,0.1,0.5,0.1,0.6,0.4c1.5,0.9,2,2.4,2.1,4.1C94.5,156.7,94.4,157.4,94.3,158.1z
		"/>
	<path fill="#D1D1D1" d="M92.3,152c-1.1-0.4-2.2-0.5-3.3-0.3c-0.5-0.1-1,0-1.5,0c-0.2,0-0.5,0.1-0.5-0.3c0.6-0.3,1.3-0.4,1.9-0.5
		c1.5-0.2,2.9-0.1,4.4,0.5c0.1,0,0.2,0.1,0.3,0.1c0.1,0,0.1,0.1,0.2,0.2c-0.3,0.1-0.6,0.1-0.9,0.1C92.7,151.7,92.4,151.7,92.3,152z"
		/>
	<path fill="#D1D1D1" d="M86.9,151.4c0.1,0.2,0.2,0.2,0.4,0.2c0.4-0.1,0.9,0,1.3-0.1c0.2,0,0.3,0,0.3,0.2c-0.5,0.1-0.9,0.4-1.4,0.5
		c-0.2-0.2-0.4-0.1-0.6-0.1c-0.4,0-0.8,0-1.3,0C86.1,151.7,86.5,151.5,86.9,151.4z"/>
	<path fill="#D1D1D1" d="M119.5,58.2c-1.8,0-3.5,0.1-5.3,0.2c-0.7,0-1.3,0-2,0.1c-0.7,0.1-1.4,0.1-2.1,0.2c-0.1,0-0.3,0-0.4,0
		c-1.4,0-2.7,0-4.1,0c0-0.4,0.4-0.4,0.7-0.4c1.5-0.1,3-0.1,4.6-0.3c3.1-0.3,6.1-0.3,9.2-0.6c1-0.1,2.1-0.1,3.1-0.1
		c0.2,0,0.4,0.1,0.6-0.1c0.1-0.1,0.2-0.1,0.4-0.1c1.4,0,2.8,0,4.2,0c0.3-0.1,0.7,0,1-0.1c1.6,0,3.2,0.1,4.8,0c1.5-0.1,3-0.1,4.5-0.1
		c0.2,0,0.3,0,0.5,0.1c-0.2,0.1-0.4,0.2-0.6,0.2c-0.8,0-1.5,0.2-2.3,0.1c-1.2,0-2.4,0.1-3.5,0.2c-1.2,0-2.5,0.1-3.7,0.2
		c-1.4,0.1-2.9,0.2-4.3,0.3c-1.2,0.1-2.4,0.1-3.7,0.2C120.5,58.2,120,58.2,119.5,58.2z"/>
	<path fill="#D1D1D1" d="M129.3,56.9c-0.3,0.2-0.7,0.1-1,0.1C128.6,56.8,129,57,129.3,56.9z"/>
	<path fill="#D1D1D1" d="M123.7,57.2c0.2,0,0.4,0,0.5,0.1c-0.1,0.2-0.3,0.2-0.4,0.2c-1.2-0.1-2.4,0.1-3.6,0.2c-0.7,0-1.3,0-2,0.2
		c-0.1,0-0.1,0-0.2,0c-1.2-0.1-2.4,0.1-3.6,0.2c-0.9,0.1-1.8,0-2.7,0.2c0,0-0.1,0-0.1,0c-1-0.1-1.9,0.2-2.8,0.1
		c-0.9,0-1.8,0.2-2.7,0.1c-0.2,0-0.3,0.1-0.4,0.2c-1.8,0-3.6-0.1-5.3,0c-3.4,0.2-6.8,0-10.2,0.1c-0.3,0-0.5,0-0.8,0
		c0.1-0.4,0.4-0.3,0.7-0.3c1.3,0,2.6-0.1,3.9,0c2.4,0.1,4.7-0.3,7-0.5c0.9-0.1,1.8-0.1,2.7-0.1c1.9-0.1,3.9-0.3,5.8-0.2
		c-0.4-0.1-0.7,0.1-1.1-0.1c0.1-0.1,0.3-0.1,0.5-0.1c0.4,0,0.9,0,1.3,0c2.9,0,5.9-0.1,8.8-0.2C120.6,57.3,122.2,57.2,123.7,57.2z"/>
	<path fill="#D1D1D1" d="M108.4,57.6c0.6,0.1,1.2,0,1.8,0.1c-0.1,0.2-0.3,0.2-0.5,0.2c-1.3-0.1-2.5,0.1-3.7,0.2
		c-1.6,0.1-3.1,0.2-4.7,0.3c-1.2,0.1-2.4,0.3-3.7,0.2c-0.1,0-0.1,0-0.2,0c-0.7,0.4-1.5,0.2-2.3,0.2c-1.7,0-3.5,0-5.2,0
		c-0.2,0-0.5-0.1-0.7,0.1c-2,0-4.1,0-6.1,0c0.1-0.3,0.4-0.3,0.6-0.3c0.5,0,0.9,0,1.4,0c1.9,0.1,3.7-0.1,5.6-0.3
		c0.8-0.1,1.7,0,2.5-0.1c0.9-0.1,1.8,0,2.5-0.1c-0.6-0.1-1.3,0.3-2-0.1c0.2-0.1,0.4-0.1,0.6-0.1c0.8,0,1.6,0,2.4,0
		c1.2,0,2.3-0.1,3.5-0.1c0.9,0,1.9,0,2.8,0c0.9-0.1,1.9,0,2.8-0.1C106.8,57.6,107.6,57.6,108.4,57.6z"/>
	<path fill="#D1D1D1" d="M93.9,57.9c0.7,0,1.3,0,2,0c0,0,0,0.1,0,0.1c-0.4,0.1-0.7,0.2-1.1,0.2c-1.1,0-2.2,0.2-3.3,0.2
		c-1.1,0-2.1,0.1-3.2,0.3c-0.2,0-0.4,0-0.6,0c-1.3,0-2.6,0-3.9,0c-0.2,0-0.4-0.1-0.6,0.1c-1.9,0-3.8,0.1-5.7,0
		c0-0.4,0.3-0.4,0.5-0.4c0.6,0,1.2,0,1.8,0c-0.3,0-0.6,0.1-0.8-0.1c0.2-0.1,0.4-0.1,0.6-0.1c1,0,2.1,0,3.1,0c2-0.1,4-0.1,6-0.1
		c0.9-0.1,1.7,0,2.6-0.1C92.1,58,93,58,93.9,57.9z"/>
	<path fill="#D1D1D1" d="M79,58.3c0.3,0,0.6,0,0.9,0c-0.1,0.3-0.3,0.2-0.4,0.2c-0.5,0-1,0-1.5,0c-0.2,0-0.4,0-0.5,0.2
		c-2.5,0-5.1,0-7.6,0c-4.1,0-8.3,0-12.4,0.1c-0.3,0-0.6,0-0.9,0c1.2,0,2.4-0.1,3.6-0.2c2.9-0.1,5.8-0.1,8.7-0.2
		c3.1-0.1,6.3-0.2,9.4-0.2C78.5,58.3,78.8,58.3,79,58.3z"/>
	<path fill="#D1D1D1" d="M91.3,58c-0.1,0.1-0.2,0.1-0.4,0.1c-0.7,0-1.5,0-2.2,0c0.3-0.2,0.6-0.1,0.9-0.1C90.1,58,90.7,58,91.3,58z"
		/>
	<path fill="#D1D1D1" d="M84.8,125.4c0.1-0.2,0.2-0.1,0.4-0.1c1,0,2.1,0.1,3.1-0.1c0.1,0,0.2,0,0.3,0.1c0,0.2-0.1,0.2-0.2,0.2
		c-0.1,0-0.2,0-0.3,0c-0.9,0-1.8,0-2.7,0C85.1,125.5,85,125.5,84.8,125.4z"/>
	<path fill="#D1D1D1" d="M45.1,126.5c1.5,1,3,2.1,4.3,3.3c0.8,0.8,1.6,1.6,2.1,2.7c0,0.1,0.1,0.3,0.1,0.4c0,0.1,0,0.2-0.1,0.2
		c-0.2,0-0.3-0.1-0.4-0.2c-0.8-0.8-1.7-1.6-2.6-2.4c-0.7-0.6-1.3-1.3-2-1.9c-0.5-0.5-0.8-1-1.3-1.6
		C45.2,126.8,45.1,126.7,45.1,126.5z"/>
	<path fill="#D1D1D1" d="M51.9,134.1c0-0.2,0-0.3,0-0.5C52.1,133.8,52.1,134,51.9,134.1z"/>
	<path fill="#FFFFFF" d="M62.1,161.9c-0.2,0.3-0.2,0.6-0.4,0.9c-0.6,1.4-1.3,2.7-2.4,3.8c-1.4,1.3-3.1,1.8-4.9,1.3
		c-1.5-0.4-2.5-1.4-3-2.9c-0.4-1.2-0.4-2.5-0.3-3.8c0.1-0.8,0.2-1.6,0.3-2.4c0.3-0.9,0.5-1.7,0.9-2.6c0.8-1.6,1.8-2.9,3.3-3.8
		c0,0,0.1,0,0.1,0c0.3-0.4,0.8-0.4,1.2-0.5c0.9-0.2,1.8-0.1,2.7,0.1c0.2,0.1,0.5,0.2,0.6,0.4c1.7,1.1,2.3,2.7,2.4,4.5
		c0.1,1.6,0,3.1-0.4,4.6C62.1,161.7,62.1,161.8,62.1,161.9z"/>
	<path fill="#D1D1D1" d="M55.8,151.6c1.7-0.9,3.6-1,5.4-0.4c0.3,0.1,0.6,0.2,0.9,0.4c-0.1,0.4-0.5,0.3-0.7,0.3c-0.9,0-1.8,0-2.7-0.1
		c-0.7-0.1-1.3,0-2,0C56.3,151.9,56,152,55.8,151.6z"/>
	<path fill="#D1D1D1" d="M55.8,151.6c0.1,0.2,0.3,0.1,0.5,0.1c1.8,0,3.5,0,5.3,0c0.2,0,0.3,0,0.5-0.1c0.4,0.1,0.7,0.4,1,0.8
		c-0.8,0-1.6,0-2.3,0c-0.2,0-0.5-0.1-0.7,0.1c-0.8-0.3-1.6-0.5-2.5-0.5c-0.7,0-1.3,0.3-2,0.5c-0.3-0.2-0.6,0-0.9-0.2
		C55,151.9,55.4,151.7,55.8,151.6z"/>
	<path fill="#D1D1D1" d="M51.3,152.4c-0.1,0-0.3,0-0.4,0c-0.2,0-0.5,0.1-0.6-0.2c-0.1-0.3-0.1-0.5,0-0.8c0.1-0.1,0.2-0.1,0.3-0.1
		c0.5,0.1,1,0.1,1.6,0c0.3,0,0.3,0.1,0.3,0.3c0,0.6-0.2,0.8-0.8,0.8C51.6,152.4,51.4,152.4,51.3,152.4z"/>
	<path fill="#D1D1D1" d="M157.3,125.2c0,0.1,0,0.1,0,0.1c-0.2,1.2-0.2,1.2-1.4,1.2c-0.8,0-1.6,0-2.3,0c-0.4,0-0.5,0-0.5-0.5
		c0-0.1,0-0.2,0-0.3c0.1-0.6,0.1-0.6,0.7-0.6C154.9,125.2,156.1,125.2,157.3,125.2z"/>
	<path fill="#D1D1D1" d="M159.9,125.6c0.9-0.7,1.9-1,3-0.9c0.1,0,0.3,0,0.4,0.1c0.2,0,0.4,0.1,0.3,0.4c-0.1,0.2-0.1,0.4-0.2,0.5
		c-0.1,0.2-0.3,0.3-0.5,0.3c-0.9,0.1-1.8,0.1-2.7,0C160.1,126,159.8,126,159.9,125.6z"/>
	<path fill="#D1D1D1" d="M159.9,125.6c0,0.2,0.1,0.2,0.3,0.2c1,0,1.9,0,2.9,0c0.1,0,0.2-0.1,0.3-0.1c0,0.2-0.1,0.4-0.1,0.5
		c-0.1,0.3-0.2,0.4-0.5,0.4c-1.3,0-2.5,0-3.9,0C159.2,126.2,159.5,125.9,159.9,125.6z"/>
	<path fill="#D1D1D1" d="M122.8,51.8c0.1-0.1,0.2-0.1,0.4-0.1c1.2,0,2.4,0.1,3.6,0c2-0.1,4,0,6-0.1c0.9,0,1.7-0.1,2.6-0.1
		c-0.5,0.4-1.1,0.4-1.7,0.5c-1.3,0.3-2.5,0.4-3.8,0.6c-0.9,0.2-1.9,0.2-2.8,0.4c-1.4,0.4-2.8,0.1-4.2,0.3c-2.4,0.2-4.9,0.1-7.3,0.1
		c0-0.3,0.3-0.3,0.5-0.3c1.9-0.1,3.7-0.6,5.5-0.9c0.4-0.1,0.8-0.1,1.3-0.2c0.1,0,0.1,0,0.2,0C123,51.9,122.9,51.9,122.8,51.8z"/>
	<path fill="#D1D1D1" d="M42.7,117.9c0.3-0.2,0.6-0.3,1-0.4c1.6-0.1,3.2-0.1,4.9-0.1c0.5,0,1,0.1,1.5,0.1c0.4,0.1,0.9,0.2,1.3,0.4
		c-0.1,0.3-0.3,0.2-0.5,0.2c-2.5,0-5.1,0-7.6,0C43,118.1,42.8,118.2,42.7,117.9z"/>
	<path fill="#D1D1D1" d="M50.1,117.5c-0.1,0.1-0.3,0.1-0.5,0.1c-1.8,0-3.6,0-5.4,0c-0.2,0-0.3,0-0.5-0.1c1.4-0.5,2.9-0.5,4.4-0.3
		C48.8,117.2,49.5,117.3,50.1,117.5z"/>
	<path fill="#D1D1D1" d="M42.7,117.9c0.2,0.2,0.4,0.1,0.5,0.1c2.5,0,5,0,7.6,0c0.2,0,0.4,0.1,0.5-0.1c0.3,0,0.5,0.1,0.8,0.3
		c-0.1,0.2-0.4,0.1-0.5,0.1c-2.9,0-5.9,0-8.8,0c-0.2,0-0.4,0.1-0.5-0.1C42.4,118,42.5,117.9,42.7,117.9z"/>
	<path fill="#D1D1D1" d="M117.1,126c-0.5,0-0.9,0-1.4,0c-0.2,0-0.4,0.1-0.4-0.2c0-0.3,0.2-0.4,0.4-0.4c0.3,0.1,0.7,0.1,1,0.1
		c0.6,0,1.2,0,1.8-0.1c0.2,0,0.4-0.1,0.4,0.1c0,0.2-0.1,0.4-0.3,0.4C118.1,126,117.6,126,117.1,126C117.1,126,117.1,126,117.1,126z"
		/>
	<path fill="#D1D1D1" d="M98.8,120.1c-0.1,0.6-0.1,0.6-0.6,0.6c-1,0-2.1,0-3.1,0c-0.1,0-0.2,0-0.2-0.1c0.4-0.3,0.9-0.5,1.5-0.6
		c0.6-0.1,1.2-0.1,1.8-0.1C98.3,119.9,98.6,119.9,98.8,120.1z"/>
	<path fill="#D1D1D1" d="M98.8,120.1c-0.6,0-1.3,0-1.9,0c-0.2,0-0.4,0.1-0.6-0.1c0.7-0.3,1.5-0.7,2.2-1c0.2-0.1,0.4-0.2,0.5,0
		c0.1,0.1,0.1,0.3,0,0.5C98.9,119.7,98.9,119.9,98.8,120.1z"/>
	<path fill="#D1D1D1" d="M100.8,125.5c-0.8,0-1.6,0-2.3,0c-0.2,0-0.4,0.1-0.5-0.3c0.9,0,1.7,0,2.6-0.1
		C101,125,100.9,125.3,100.8,125.5z"/>
	<path fill="#D1D1D1" d="M92.8,125.5c-0.6,0-1.3,0-1.9,0c-0.1,0-0.2-0.1-0.2-0.2c0-0.1,0-0.2,0.1-0.2c0.6,0.1,1.3,0.1,2,0.1
		C92.9,125.3,92.8,125.4,92.8,125.5z"/>
	<path fill="#D1D1D1" d="M122.8,51.8c0.2,0,0.4,0,0.7,0c-0.3,0.3-0.6,0.3-0.9,0.4c-1.8,0.4-3.7,0.5-5.5,1c-0.3,0.1-0.6,0-0.9,0
		c-0.2,0-0.4-0.1-0.6,0.1c-2.2,0-4.3,0-6.5,0c-0.3,0-0.5,0-0.8,0c0-0.4,0.4-0.4,0.6-0.5c1.4-0.2,2.8-0.5,4.2-0.7
		c0.1,0,0.3,0,0.4-0.1c1-0.2,2.1-0.1,3.1-0.1c0.4,0,0.8,0,1.2,0c0.8-0.2,1.6,0.1,2.4-0.1C121.2,51.8,122,51.8,122.8,51.8z"/>
	<path fill="#D1D1D1" d="M66,53.3c2.2-0.1,4.4-0.1,6.6-0.2c0.1,0,0.3,0,0.4,0c2.7-0.1,5.3-0.1,8-0.2c1.7-0.1,3.4-0.1,5.2-0.1
		c0.9-0.1,1.8,0,2.7-0.1c0.5,0,1,0,1.5,0c-0.4,0.7-1.2,0.7-1.9,0.7c-1.4,0-2.8,0-4.3,0c-0.2,0-0.4,0-0.6,0c-2.7,0-5.4,0-8.1,0
		c-3.7,0-7.5,0.1-11.2,0.1c-0.1,0-0.3,0-0.4,0c-1.4,0-2.7,0-4.1,0c0,0,0-0.1,0-0.1C61.9,53.5,64,53.4,66,53.3z"/>
	<path fill="#D1D1D1" d="M113.5,52.1c-0.1,0.1-0.2,0.2-0.4,0.2c-1,0.2-2,0.4-3,0.5c-0.5,0.1-1.1,0.2-1.6,0.3c-0.1,0-0.2,0.1-0.3,0.2
		c-3.1,0-6.1,0-9.2,0c0-0.4,0.3-0.4,0.6-0.5c0.7-0.2,1.4-0.2,2.1-0.4c0.1,0,0-0.1,0-0.1c0,0,0,0,0,0.1c-0.6,0.1-1.2,0.3-1.8-0.1
		c0,0,0-0.1,0-0.1c1.4,0,2.9,0.1,4.3,0c1.5-0.1,3-0.1,4.6-0.1c0.8-0.2,1.7,0,2.6-0.1C112.2,52.1,112.9,52.1,113.5,52.1z"/>
	<path fill="#D1D1D1" d="M100,52.5c0.7,0,1.4,0,2.2,0c-0.4,0.4-0.8,0.3-1.1,0.4c-0.5,0.1-1.1,0.2-1.7,0.3c-0.2,0-0.3,0.1-0.3,0.3
		c-2.5,0-4.9,0.1-7.4,0.1c-2.5,0-5,0-7.5,0c-0.2,0-0.5,0-0.7,0c0.2-0.2,0.4-0.1,0.6-0.1c1.2,0,2.5,0,3.7,0c0.9,0,1.7-0.3,2.5-0.6
		c0.8-0.1,1.6-0.1,2.4-0.1C95.2,52.6,97.6,52.4,100,52.5z"/>
	<path fill="#D1D1D1" d="M90.9,115.3c0.4,0.2,0.4,0.2,0.1,0.6c-0.2,0.3-0.5,0.3-0.8,0.4c-1.6,0.3-3.3,0.5-4.9,0.7
		c-0.2,0-0.6,0.2-0.7-0.2c0.3-0.3,0.5-0.6,0.9-0.8C87.3,115.7,89.1,115.3,90.9,115.3z"/>
	<path fill="#D1D1D1" d="M90.9,115.3c-0.3,0.2-0.7,0.2-1.1,0.2c-1.1,0.2-2.1,0.3-3.2,0.5c-0.4,0.1-0.7,0.2-1.1,0
		C87,114.8,89.3,114.5,90.9,115.3z"/>
	<path fill="#D1D1D1" d="M84.6,116.8c0.4,0.2,0.8,0,1.2,0c1.1-0.1,2.1-0.3,3.2-0.5c0.7-0.1,1.4-0.1,2.1-0.4
		c-0.1,0.5-0.2,0.6-0.6,0.6c-1.6,0.2-3.2,0.5-4.9,0.7c-0.4,0.1-0.9,0.2-1.3,0.1C84.2,117.1,84.4,117,84.6,116.8z"/>
	<path fill="#D1D1D1" d="M88.8,52.8c-0.1,0.1-0.2,0.1-0.4,0.1c-0.8,0-1.6,0-2.3,0c0.3-0.2,0.6-0.1,0.9-0.1
		C87.6,52.7,88.2,52.8,88.8,52.8z"/>
	<path fill="#D1D1D1" d="M109.6,162c0,0.1,0,0.3-0.2,0.2c-0.1-0.1-0.2-0.2-0.3-0.3c-0.6-0.6-1.3-1.3-1.9-1.9
		c-0.2-0.2-0.5-0.3-0.8-0.7c0.8,0.3,1.3,0.8,2,1.1C108.9,160.8,109.3,161.4,109.6,162z"/>
	<path fill="#D1D1D1" d="M19.5,143.2c0.1-0.1,0.1-0.1,0.2-0.1c3.4,0.1,6.7,0.1,10.1,0c0.3,0,0.5,0,0.2,0.3c-0.2,0.2-0.4,0.3-0.7,0.3
		c-3.1,0-6.3,0-9.4,0c-0.1,0-0.3,0-0.4-0.1C19.4,143.5,19.5,143.4,19.5,143.2z"/>
	<path fill="#D1D1D1" d="M19.5,143.2c0,0.1,0,0.2,0,0.4c0.2,0.2,0.5,0.1,0.8,0.1c2.9,0,5.9,0,8.8,0c0.3,0,0.6-0.1,0.8,0.1
		c-0.1,0.4-0.4,0.3-0.7,0.3c-2.1,0-4.3,0-6.4,0c-0.9,0-1.9,0-2.8,0C19.3,144.1,19.3,143.9,19.5,143.2z"/>
	<path fill="#D1D1D1" d="M30,143.8c-3.3,0-6.6,0-9.9,0c-0.2,0-0.5,0.1-0.5-0.3c3.3,0,6.6,0,9.9,0c0.2,0,0.4,0,0.6-0.1
		C30.1,143.6,30,143.7,30,143.8z"/>
	<path fill="#D1D1D1" d="M106,57.6c-0.1,0.1-0.2,0.1-0.3,0.1c-0.8,0-1.6,0-2.5,0c0.1-0.1,0.2-0.1,0.4-0.1
		C104.4,57.6,105.2,57.6,106,57.6z"/>
	<path fill="#D1D1D1" d="M130.5,125.5c-0.4,0.3-0.8,0.4-1.3,0.4c-0.5,0-1,0-1.6,0c0-0.4,0-0.6,0.4-0.5c0.7,0.1,1.5,0.2,2.2,0
		C130.4,125.4,130.4,125.4,130.5,125.5C130.5,125.5,130.5,125.5,130.5,125.5z"/>
	<path fill="#D1D1D1" d="M111.5,52.1c-0.1,0.1-0.3,0.1-0.4,0.1c-0.7,0-1.4,0-2.1,0c0.1-0.1,0.3-0.1,0.4-0.1
		C110.1,52.1,110.8,52.1,111.5,52.1z"/>
	<path fill="#D1D1D1" d="M120.3,51.9c-0.2,0.2-0.4,0.1-0.5,0.1c-0.6,0-1.3,0-1.9,0c0.1-0.1,0.3-0.1,0.5-0.1
		C119,51.8,119.7,51.9,120.3,51.9z"/>
	<path fill="#D1D1D1" d="M123.7,151.2c-0.1,0.1-0.2,0.1-0.3,0.1c-1.4,0-2.9,0-4.3,0c-0.1,0-0.2,0-0.3-0.1c0.2-0.1,0.4-0.2,0.6-0.3
		c1.2-0.1,2.4-0.1,3.5,0C123.2,151,123.5,151.1,123.7,151.2z"/>
	<path fill="#D1D1D1" d="M123,151c-0.1,0.1-0.2,0.1-0.3,0.1c-0.9,0-1.9,0-2.8,0c-0.1,0-0.3,0-0.3-0.1
		C120.6,150.5,121.8,150.7,123,151z"/>
	<path fill="#D1D1D1" d="M72.5,152.5c-0.1,0-0.3,0-0.4,0c-0.4,0-0.5,0-0.5-0.5c0-0.6,0-0.6,0.6-0.6c0.4,0,0.8,0,1.2-0.1
		c0.2,0,0.3,0.1,0.3,0.2c0,0.6-0.3,0.8-0.9,0.8C72.7,152.5,72.6,152.5,72.5,152.5z"/>
	<path fill="#D1D1D1" d="M35.1,151.2c0.1,0.5-0.1,0.6-0.5,0.6c-0.5,0-1.1,0-1.6,0c-0.4,0-0.6-0.1-0.8-0.5c0.1-0.2,0.3-0.1,0.4-0.1
		c0.7,0,1.4,0.1,2.1,0C34.8,151.1,34.9,151.2,35.1,151.2C35.1,151.2,35.1,151.2,35.1,151.2z"/>
	<path fill="#D1D1D1" d="M109.3,151.2c-0.1,0.1-0.2,0.1-0.3,0.1c-1.4,0-2.7,0-4.1,0c-0.1,0-0.3,0-0.4-0.1c0.2-0.1,0.3-0.2,0.5-0.2
		c1.2-0.1,2.4-0.1,3.5,0C108.8,151,109.1,151.1,109.3,151.2z"/>
	<path fill="#D1D1D1" d="M108.6,151c-0.1,0.1-0.2,0.1-0.3,0.1c-1,0-1.9,0-2.9,0c-0.1,0-0.3,0-0.3-0.1
		C106.2,150.5,107.4,150.7,108.6,151z"/>
	<path fill="#D1D1D1" d="M76.9,151.9c0.5-0.4,1.1-0.7,1.8-0.8c0.4-0.1,0.8-0.1,1.2,0.1c0,0.3-0.1,0.6-0.2,0.8
		c-0.9,0.4-1.8,0.2-2.7,0.1C76.9,152,76.9,151.9,76.9,151.9z"/>
	<path fill="#D1D1D1" d="M76.9,151.9c0.1,0.1,0.3,0.1,0.4,0.1c0.8,0,1.6,0,2.4,0c-0.1,0.6-0.1,0.7-0.8,0.7c-0.9,0-1.9,0-2.9,0
		C76.2,152.2,76.5,152,76.9,151.9z"/>
</g>
</svg>
