<?xml version="1.0" encoding="utf-8"?>
<!-- Generator: Adobe Illustrator 18.1.1, SVG Export Plug-In . SVG Version: 6.00 Build 0)  -->
<svg version="1.1" xmlns="http://www.w3.org/2000/svg" xmlns:xlink="http://www.w3.org/1999/xlink" x="0px" y="0px"
	 viewBox="0 0 216.5 75.4" enable-background="new 0 0 216.5 75.4" xml:space="preserve">
<g id="LOGO">
	<g>
		<path fill="#D1D1D1" d="M0.5,48.2V17.3h6.9v30.9H0.5z"/>
		<path fill="#D1D1D1" d="M16.1,1.2h122.7v5.6H16.1V1.2z"/>
		<path fill="#D1D1D1" d="M61.2,60.9c-4.4,0-8.4-0.9-10.8-1.6l1.1-5.9c2.6,0.6,6.5,1.2,8.6,1.2c4.6,0,7.7-0.8,7.7-6.2
			c0.1-0.1,0-1.5,0-1.7c-1.4,1.1-3.4,2-5.5,2c-6.6,0-14-1.8-14-15.8c0-10.5,6.8-16.1,15-16.1c3.3,0,6.8,0.5,11.3,1.2v31.2
			C74.6,57.8,67.3,60.9,61.2,60.9z M67.7,23.3c-1.2-0.1-2.5-0.3-4.5-0.3c-5.8,0-8.1,4.2-8.1,10c0,7.4,2.9,9.9,7.5,9.9
			c2.1,0,3.8-0.8,5.1-1.5V23.3z"/>
		<path fill="#D1D1D1" d="M87.9,34.9c0.1,6.7,4,7.7,9.1,7.7c2,0,5.5-0.3,7.8-0.8l1.1,5.8c-2.3,0.8-6.6,1.2-10.1,1.2
			c-9,0-14.7-3.3-14.7-15.4c0-12.6,5.9-16.7,14-16.7c8.3,0,11.7,5.9,11.7,15.6v2.7H87.9z M94.4,22.2c-2.9,0-6,2.1-6.3,7.4h11.5
			C99.6,24.8,97.4,22.2,94.4,22.2z"/>
		<path fill="#D1D1D1" d="M147.5,48.2V17.3h6.9v30.9H147.5z"/>
		<path fill="#D1D1D1" d="M182.5,24c-1.9-0.8-3.7-1.4-6.6-1.4c-4.4,0-7.8,2.7-7.8,10c0,7,1.7,10.1,9.3,10.1c2.4,0,3.9-0.5,5.8-0.7
			l0.9,5.8c-2.3,0.5-4.2,1-7.3,1c-11.6,0-16-4.7-16-16.2c0-9.8,5.8-16,14.9-16c4.1,0,6.7,0.8,8.6,2L182.5,24z"/>
		<path fill="#D1D1D1" d="M202,48.9c-8.8,0-13.8-5.9-13.8-15.8c0-10.4,5.7-16.5,14.3-16.5c9.6,0,14.1,5.9,14.1,16.2
			C216.5,43.4,210.3,48.9,202,48.9z M202.3,22.5c-5.6,0-7.2,5-7.2,10.4c0,5.8,1.7,10.1,7.3,10.1c5.6,0,7-4.5,7-10.1
			C209.4,27.5,208,22.5,202.3,22.5z"/>
		<circle fill="#D1D1D1" cx="4" cy="4" r="4"/>
		<circle fill="#D1D1D1" cx="151" cy="4" r="4"/>
		<path fill="#D1D1D1" d="M32.7,16.5c-4.4,0-7.7,2.6-9.6,4.1v-0.1c-0.1,0.1-0.1,0.1-0.2,0.2c-0.7-2.5-2.5-3.2-4.1-3.4h-2.7v30.9h6.9
			V25.6c1.4-0.8,4.5-2.7,7.4-2.7c3.9,0,4.7,2,4.7,6.5v18.8h6.9V28.6C42.1,22.2,41.5,16.5,32.7,16.5z"/>
		<path fill="#D1D1D1" d="M129.5,16.5c-4.4,0-7.7,2.6-9.6,4.1v-0.1c-0.1,0.1-0.1,0.1-0.2,0.2c-0.7-2.5-2.5-3.2-4.1-3.4h-2.7v30.9
			h6.9V25.6c1.4-0.8,4.5-2.7,7.4-2.7c3.9,0,4.7,2,4.7,6.5v18.8h6.9V28.6C138.9,22.2,138.3,16.5,129.5,16.5z"/>
	</g>
	<g>
		<path fill="#D1D1D1" d="M150.9,74.4c-1.3,0.6-3.2,1-5.1,1c-5.5,0-7.9-2.8-7.9-9.2c0-6.5,2.4-9.3,7.9-9.3c1.6,0,3.4,0.4,4.6,0.9
			l-0.3,2.2c-1.2-0.5-2.7-0.8-4.2-0.8c-3.9,0-5.5,1.6-5.5,7c0,5.2,1.5,6.9,5.3,6.9c1.2,0,2.2-0.2,3-0.5v-7h2.1V74.4z"/>
		<path fill="#D1D1D1" d="M162.8,67.1l4.6,8h-2.8l-3.9-7.5h-3.5v7.5h-2.4V57.3h5.9c3.8,0,5.6,1.6,5.6,5.1
			C166.2,65.1,165,66.8,162.8,67.1z M160.6,59.4h-3.5v6.3h3.4c2.2,0,3.2-0.9,3.2-3.2C163.7,60.2,162.8,59.4,160.6,59.4z"/>
		<path fill="#D1D1D1" d="M176.4,75.4c-5.2,0-7.2-2.7-7.2-9.2c0-6.5,2-9.2,7.2-9.2c5.2,0,7.2,2.7,7.2,9.2
			C183.6,72.8,181.6,75.4,176.4,75.4z M176.4,59.3c-3.4,0-4.7,1.5-4.7,6.9c0,5.4,1.3,7,4.7,7c3.4,0,4.7-1.5,4.7-7
			C181.1,60.7,179.8,59.3,176.4,59.3z"/>
		<path fill="#D1D1D1" d="M200.3,68.7c0,4.7-2.4,6.7-6.6,6.7c-4.3,0-6.7-2.1-6.7-6.7V57.3h2.4v11.4c0,3.1,1.4,4.5,4.3,4.5
			c2.9,0,4.3-1.4,4.3-4.5V57.3h2.4V68.7z"/>
		<path fill="#D1D1D1" d="M210.4,68.4H207v6.7h-2.4V57.3h5.8c4.3,0,6.1,1.7,6.1,5.6C216.5,66.5,214.7,68.4,210.4,68.4z M210.4,59.4
			H207v7h3.4c2.5,0,3.7-0.8,3.7-3.5C214.1,60.3,212.9,59.4,210.4,59.4z"/>
	</g>
</g>
<g id="INFORMATION">
</g>
</svg>
