<?xml version="1.0" encoding="utf-8"?>
<!-- Generator: Adobe Illustrator 18.1.1, SVG Export Plug-In . SVG Version: 6.00 Build 0)  -->
<svg version="1.1" id="Layer_1" xmlns="http://www.w3.org/2000/svg" xmlns:xlink="http://www.w3.org/1999/xlink" x="0px" y="0px"
	 viewBox="0 283.7 612 224.3" enable-background="new 0 283.7 612 224.3" xml:space="preserve">
<g>
	<path fill="#D1D1D1" d="M484.5,286.2c11.5-0.8,23-2.5,35.4-2.5c2.5,0,5.8,0,8.2,0c4.9,0,9.9,0,14.8,0c13.2,0.8,26.3,1.6,39.5,4.9
		c5.8,0.8,12.3,3.3,18.1,6.6c4.1,2.5,7.4,4.9,9.9,8.2c1.6,1.6,2.5,4.1,2.5,6.6c0,1.6,0,3.3,0,4.1c-0.8,4.1-3.3,8.2-6.6,11.5
		c-5.8,6.6-12.3,11.5-19.7,15.6c-1.6,0.8-2.5,1.6-4.1,2.5c4.9-3.3,9-7.4,12.3-11.5c2.5-3.3,5.8-7.4,6.6-12.3c0-2.5,0-4.9-0.8-7.4
		c-1.6-4.1-4.9-7.4-8.2-9c-5.8-3.3-11.5-5.8-18.1-7.4c-6.6-1.6-13.2-3.3-20.6-4.1c-14.8-1.6-29.6-2.5-45.2-1.6
		c-27.1,0.8-55.9,3.3-83.1,7.4c-14,2.5-27.1,4.1-40.3,6.6c-0.8,0-0.8,0-1.6,0C417,296.9,450.8,290.3,484.5,286.2z"/>
	<path fill="#D1D1D1" d="M500.1,315.8c4.9-1.6,10.7,0.8,14,4.9c3.3,4.1,3.3,9.9,0.8,14.8c-1.6,2.5-4.1,4.9-7.4,5.8
		c-3.3,0-5.8,0-8.2-0.8c-4.9-1.6-8.2-6.6-9-11.5C490.3,322.4,494.4,316.6,500.1,315.8z"/>
</g>
<g>
	<path fill="#D1D1D1" d="M557.7,318.3h34.5l-70.7,48.5l37.8,34.5h-37.8l-23.9-18.9l-55.1,36.2h-39.5l78.1-52.6l-37-32.9h37
		l23.9,18.9L557.7,318.3z"/>
	<path fill="#D1D1D1" d="M0,333.1h38.7c0,0,37.8,35.4,38.7,35.4c13.2-12.3,38.7-35.4,38.7-35.4h24.7l14.8,18.1h-22.2l-56.8,54.3
		L0,333.1z"/>
	<path fill="#D1D1D1" d="M417.9,333.1c0,5.8,0,9.9,0,15.6c-31.3,0-63.3,0-94.6,0c0,3.3,0,7.4,0,10.7c29.6,0,59.2,0,88.8,0
		c0,4.1,0,9,0,13.2c-31.3,0-61.7,0-93,0c0,4.1,4.9,11.5,16.5,11.5c28,0,83.9,0,83.9,0V403c0,0-68.3,0-102.8,0
		c-14,0-25.5-9-25.5-21.4c0-15.6,0-32.1,0-47.7C301.1,332.2,408.8,333.1,417.9,333.1z"/>
	<path fill="#D1D1D1" d="M152.2,333.1h130v18.1h-47.7v50.2h-31.3V352h-32.9L152.2,333.1z"/>
</g>
<g enable-background="new    ">
	<path fill="#D1D1D1" d="M383.1,470.6l-4.6,37.4h-11.9l4.6-36.5L383.1,470.6z M385,459.6c0,3.6-2.9,6.4-6.6,6.4
		c-3.6,0-6.5-2.9-6.5-6.4c0-3.6,2.9-6.6,6.5-6.6C382.1,453.1,385,456.1,385,459.6z"/>
	<path fill="#D1D1D1" d="M402,470.9l-2.6,12.5l-1.4,5l0.8,0.1c3.7-13.8,9.5-18.2,17.1-18.2c7.4,0,11.4,5.3,10.3,14.2l-2.9,23.5
		h-11.9l2.9-22.8c0.4-3.8,0.1-7.1-3.1-7.1c-5,0-8.9,7.6-11.6,29.9h-11.7l4.5-36.1L402,470.9z"/>
	<path fill="#D1D1D1" d="M465.5,470.6c-4-2.1-8.2-3.1-12.2-3.1s-7.2,1.2-7.4,4.2c-0.7,7.8,20.6,8,19.3,22.6
		c-0.7,8.5-7.8,14.6-19.6,14.6c-2.3,0-9.2-0.3-15.8-2.5l1.1-9.7c4.7,2.1,10,3.2,13.4,3.2c5,0,8.3-1.6,8.6-4.7
		c0.6-7.8-20.3-7.6-19.1-22.9c0.8-10.2,10.8-13.6,19.1-13.6c2.2,0,8.3,0.4,13.7,2.8L465.5,470.6z"/>
	<path fill="#D1D1D1" d="M487.5,461.3h2.3l-1.5,10.2h9.2l-1.6,7.8l-8.4-0.5l-1.8,14.2c-0.7,4.8-0.6,7.5,2.3,7.5
		c1.2,0,2.7-0.9,4.7-3.3l4.5,5.3c-3,2.8-7.2,6.4-13.9,6.4c-7.4,0-11.1-4.1-10-12.5l2.3-16.9l-5.4-0.6l0.8-6.7l5.8-0.8l2.7-8.6
		L487.5,461.3z"/>
	<path fill="#D1D1D1" d="M520.6,470.3c11.1,0,17.8,7.5,16.3,19.4c-1.5,11.7-9.1,19.2-20.4,19.2c-11.1,0-17.8-7.4-16.4-19.4
		C501.5,477.7,509.3,470.3,520.6,470.3z M511.9,489.6c-0.9,7,1.1,11.3,5.1,11.3c4.1,0,7.2-3.6,8.2-11.3c1-7.3-1.1-11.6-5.1-11.6
		C516,478,512.9,481.5,511.9,489.6z"/>
	<path fill="#D1D1D1" d="M556.3,470.9l-2.6,13.4l-1.4,5.1l0.8,0.2c3.8-14.6,9.4-19.3,16.3-19.3c0.5,0,2.1,0,3.5,0.6l-1.7,8.3
		l-3.6-0.7c-4.7,0.1-11.3,7.8-13.7,29.5h-11.9l4.5-36.1L556.3,470.9z"/>
	<path fill="#D1D1D1" d="M603.9,502c-6.4,6.1-12.4,6.8-16.3,6.8c-9.6,0-16.5-6.2-14.9-18.6c1.5-12,11.1-20,20.7-20
		c9.5,0,13.5,5.1,12.5,11.1c-1.1,6.1-7.2,12.3-21.6,12.1c0.1,5.1,2.5,7.2,6.6,7.2c3.1,0,6.1-1.5,8.5-4L603.9,502z M593.6,477.7
		c-4.1,0-8.1,2.9-9.4,10.4C597.6,487.5,599.5,477.7,593.6,477.7z"/>
</g>
<g>
	<rect x="12.3" y="433.4" fill="#D1D1D1" width="599.7" height="3.3"/>
</g>
</svg>
