<?xml version="1.0" encoding="utf-8"?>
<!-- Generator: Adobe Illustrator 16.0.0, SVG Export Plug-In . SVG Version: 6.00 Build 0)  -->
<!DOCTYPE svg PUBLIC "-//W3C//DTD SVG 1.1//EN" "http://www.w3.org/Graphics/SVG/1.1/DTD/svg11.dtd">
<svg version="1.1" id="Camada_1" xmlns="http://www.w3.org/2000/svg" xmlns:xlink="http://www.w3.org/1999/xlink" x="0px" y="0px"
	 width="555.5px" height="356.16px" viewBox="-37.876 146.847 555.5 356.16" enable-background="new -37.876 146.847 555.5 356.16"
	 xml:space="preserve">
<path d="M503.955,503.007H-24.207c-7.537,0-13.669-6.132-13.669-13.669V263.115c0-5.889,3.649-12.387,8.677-15.452l158.622-96.696
	c3.918-2.387,10.089-4.12,14.674-4.12h234.156c4.963,0,11.332,2.305,15.146,5.48l118.86,98.97l-0.5,0.6
	c3.543,2.473,5.865,6.579,5.865,11.217v226.223C517.624,496.875,511.492,503.007,503.955,503.007z M-21.876,487.007h523.5V265.445
	H-21.879L-21.876,487.007z M-1.384,249.445H485.03l-101.87-84.823c-0.956-0.797-3.661-1.775-4.906-1.775H144.097
	c-1.664,0-4.926,0.916-6.347,1.782L-1.384,249.445z"/>
<g id="XMLID_24_">
	<rect id="XMLID_26_" x="333.744" y="397.617" width="3.378" height="56.516"/>
	<rect id="XMLID_27_" x="340.531" y="397.617" width="5.67" height="56.516"/>
	<rect id="XMLID_28_" x="350.653" y="397.617" width="3.378" height="56.516"/>
	<rect id="XMLID_29_" x="356.382" y="397.617" width="3.379" height="56.516"/>
	<rect id="XMLID_36_" x="362.37" y="397.617" width="9.047" height="56.516"/>
	<rect id="XMLID_35_" x="374.133" y="397.617" width="3.376" height="56.516"/>
	<rect id="XMLID_32_" x="379.757" y="397.617" width="5.67" height="56.516"/>
	<rect id="XMLID_30_" x="386.633" y="397.617" width="3.379" height="56.516"/>
	<rect id="XMLID_42_" x="392.304" y="397.617" width="3.377" height="56.516"/>
	<rect id="XMLID_46_" x="398.35" y="397.617" width="9.048" height="56.516"/>
	<rect id="XMLID_45_" x="408.95" y="397.617" width="3.379" height="56.516"/>
	<rect id="XMLID_44_" x="415.738" y="397.617" width="5.67" height="56.516"/>
	<rect id="XMLID_43_" x="422.553" y="397.617" width="3.378" height="56.516"/>
	<rect id="XMLID_47_" x="428.283" y="397.617" width="3.378" height="56.516"/>
	<rect id="XMLID_51_" x="435.432" y="397.617" width="9.049" height="56.516"/>
	<rect id="XMLID_50_" x="447.133" y="397.617" width="3.379" height="56.516"/>
	<rect id="XMLID_49_" x="452.76" y="397.617" width="5.669" height="56.516"/>
	<rect id="XMLID_48_" x="459.636" y="397.617" width="3.377" height="56.516"/>
	<rect id="XMLID_52_" x="465.306" y="397.617" width="3.376" height="56.516"/>
	<rect id="XMLID_53_" x="471.353" y="397.617" width="9.048" height="56.516"/>
</g>
<g>
	<rect x="318.552" y="419.514" fill="#D61616" width="174.739" height="2.245"/>
	<rect x="318.552" y="422.882" fill="#D61616" width="174.739" height="2.245"/>
	<rect x="318.552" y="426.249" fill="#D61616" width="174.739" height="2.245"/>
</g>
</svg>
