<?xml version="1.0" encoding="utf-8"?>
<!-- Generator: Adobe Illustrator 16.0.0, SVG Export Plug-In . SVG Version: 6.00 Build 0)  -->
<!DOCTYPE svg PUBLIC "-//W3C//DTD SVG 1.1//EN" "http://www.w3.org/Graphics/SVG/1.1/DTD/svg11.dtd">
<svg version="1.1" id="Camada_1" xmlns="http://www.w3.org/2000/svg" xmlns:xlink="http://www.w3.org/1999/xlink" x="0px" y="0px"
	 width="226.771px" height="277.468px" viewBox="0 0 226.771 277.468" enable-background="new 0 0 226.771 277.468"
	 xml:space="preserve">
<path fill="#E2E2E2" d="M138.563,237.468c0,6.629-5.373,12-12,12H56.751c-6.627,0-12-5.371-12-12V100.728c0-6.627,5.373-12,12-12
	h69.812c6.627,0,12,5.373,12,12V237.468L138.563,237.468z"/>
<path id="XMLID_9_" d="M45.936,160.3l-6.15-5.113c-1.631-1.334-15.859-13.266-18.973-16.822l0,0
	c-3.409-3.779-5.854-6.893-7.188-12.154c-1.408-5.559-0.37-12.006,2.521-16.008c4.892-6.744,13.34-7.411,17.488-6.225
	c2.893,0.814,8.078,5.483,10.97,8.151l1.187,1.112L45.936,160.3z M29.855,110.943c-2.149,0-5.561,0.593-7.708,3.632
	c-1.63,2.223-2.149,6.373-1.334,9.856c0.89,3.558,2.444,5.559,5.559,9.041l0,0c1.559,1.779,7.188,6.669,12.08,10.894l-0.146-27.864
	c-2.816-2.594-5.78-4.966-6.744-5.336C31.262,111.018,30.668,110.943,29.855,110.943z"/>
<path id="XMLID_8_" d="M34.374,190.019c-3.481,0-7.337-1.262-9.635-4.373c-4.446-5.93-4.372-17.416-1.26-23.715
	c1.408-2.965,3.778-4.967,6.893-6.004c3.854-1.186,7.93-0.443,10.229,0.814c1.705,0.965,4.596,4.002,5.112,14.008
	c0.224,4.076,0.148,14.006-4.966,17.562l0,0C39.193,189.425,36.895,190.019,34.374,190.019z M34.374,162.746
	c-0.593,0-1.186,0.074-1.777,0.297c-1.111,0.371-1.929,1.037-2.445,2.15c-2.149,4.445-1.854,12.818,0.519,16.082
	c1.262,1.629,4.894,1.629,5.781,1.037c0.296-0.225,1.188-1.631,1.63-5.189c0.741-6.002-0.442-12.303-1.408-13.932
	C36.154,162.968,35.337,162.746,34.374,162.746z"/>
<path id="XMLID_7_" d="M35.115,216.773c-3.261,0-6.893-1.188-9.042-4.076c-4.076-5.484-4.002-16.082-1.186-21.938
	c1.334-2.742,3.558-4.67,6.445-5.633c3.56-1.111,7.337-0.443,9.562,0.814c1.927,1.109,4.372,4.225,4.815,12.971
	c0.224,3.777,0.148,12.896-4.669,16.229l0,0C39.563,216.253,37.412,216.773,35.115,216.773z M35.115,192.019
	c-0.52,0-1.038,0.074-1.557,0.223c-0.964,0.297-1.559,0.891-2.001,1.779c-1.929,3.928-1.633,11.412,0.442,14.229
	c0.964,1.334,4.002,1.334,4.817,0.891c0.519-0.521,1.557-3.189,1.557-8.152c0-4.447-0.89-7.635-1.408-8.598
	C36.525,192.167,35.858,192.019,35.115,192.019z"/>
<path id="XMLID_6_" d="M35.858,239.08c-3.113,0-6.522-1.186-8.449-3.854c-3.779-5.039-3.705-14.746-1.111-20.082
	c1.262-2.596,3.335-4.373,6.003-5.264c3.335-1.037,6.818-0.371,8.896,0.74c3.335,1.854,4.298,7.561,4.521,12.006
	c0.148,3.482,0.074,11.857-4.373,14.896l0,0C39.86,238.562,37.932,239.08,35.858,239.08z M35.782,216.847
	c-0.445,0-0.815,0.072-1.26,0.146c-0.741,0.223-1.261,0.668-1.559,1.408c-1.631,3.408-1.406,10.006,0.37,12.375
	c0.667,0.891,2.965,1.039,3.78,0.668c0.444-0.521,1.26-2.893,1.26-7.113c0-3.707-0.667-6.375-1.11-7.338
	C36.821,216.919,36.301,216.847,35.782,216.847z"/>
<path id="XMLID_5_" d="M128.419,254.642H53.05c-8.004,0-14.523-6.521-14.523-14.525V98.418c0-8.004,6.521-14.525,14.523-14.525
	h75.369c8.004,0,14.525,6.521,14.525,14.525v141.624C143.02,248.121,136.497,254.642,128.419,254.642z M53.05,91.305
	c-3.928,0-7.113,3.187-7.113,7.114v141.624c0,3.93,3.188,7.115,7.113,7.115h75.369c3.93,0,7.115-3.189,7.115-7.115V98.418
	c0-3.928-3.188-7.114-7.115-7.114H53.05z"/>
<path id="XMLID_4_" fill="#C91111" d="M108.559,59.066c-10.523-10.523-27.568-10.523-38.094,0l-5.263-5.262
	c13.414-13.414,35.202-13.414,48.542,0L108.559,59.066z"/>
<path id="XMLID_3_" fill="#C91111" d="M123.677,43.354c-18.822-18.824-49.505-18.824-68.402,0l-5.262-5.262
	c21.715-21.714,57.139-21.714,78.853,0L123.677,43.354z"/>
<path id="XMLID_2_" fill="#C91111" d="M138.647,27.717c-27.049-27.05-71.146-27.05-98.195,0l-5.262-5.262
	c29.938-29.94,78.705-29.94,108.718,0L138.647,27.717z"/>
<path id="XMLID_31_" d="M148.282,277.468v-7.41c10.523,0,20.232-5.633,27.346-15.785c12.154-17.49,13.859-44.244,4.447-69.738
	c-6.67-17.934-11.078-38.537-11.152-61.214c0-1.631,0.225-3.78,0.52-6.226c0.371-3.261,1.186-10.82,0.074-12.376
	c-0.52-0.594-1.777-0.964-3.334-0.89c-3.633,0.148-8.078,2.223-9.857,4.521c-6.596,8.968-5.559,30.904-4.594,50.32
	c0.369,7.264,0.666,14.08,0.666,20.455h-7.41c0-6.15-0.371-12.896-0.668-20.084c-1.111-21.642-2.223-44.021,6.004-55.063
	c3.037-4.15,9.633-7.337,15.561-7.485c4.004-0.148,7.189,1.037,9.266,3.483c2.965,3.482,2.52,9.634,1.631,18.009
	c-0.223,2.148-0.445,4.149-0.445,5.409c0.074,21.862,4.336,41.575,10.709,58.694c10.303,27.719,8.229,57.064-5.336,76.557
	C173.182,270.724,161.325,277.468,148.282,277.468z"/>
<rect x="31.863" y="106.646" fill="#C91111" width="6.456" height="25.642"/>
<rect x="142.862" y="106.646" fill="#C91111" width="1.047" height="25.642"/>
<circle cx="90.736" cy="232.222" r="8"/>
</svg>
