<?xml version="1.0" encoding="utf-8"?>
<!-- Generator: Adobe Illustrator 18.1.1, SVG Export Plug-In . SVG Version: 6.00 Build 0)  -->
<svg version="1.1" id="Layer_1" xmlns="http://www.w3.org/2000/svg" xmlns:xlink="http://www.w3.org/1999/xlink" x="0px" y="0px"
	 viewBox="-395 273.3 50 50" enable-background="new -395 273.3 50 50" xml:space="preserve">
<circle fill="none" stroke="#FFFFFF" stroke-width="2" stroke-linecap="round" stroke-miterlimit="10" cx="-370" cy="298.3" r="24"/>
<rect x="-395" y="273.3" fill="none" width="50" height="50"/>
<path fill="#FFFFFF" d="M-365.1,308.8c-0.1-1.6-0.1-2.7-0.1-4.2c0.7-0.4,2-2.8,2.3-4.9c0.6,0,1.5-0.6,1.7-2.8
	c0.1-1.2-0.4-1.9-0.8-2.1c0.9-2.8,2.9-11.5-3.6-12.4c-0.7-1.2-2.4-1.8-4.6-1.8c-8.9,0.2-9.9,6.7-8,14.2c-0.3,0.2-0.9,0.9-0.8,2.1
	c0.3,2.2,1.2,2.8,1.7,2.8c0.2,2.1,1.6,4.5,2.3,4.9c0,1.5,0.1,2.6-0.1,4.2c-1.3,3.4-7.7,3.7-11.5,6.9c3.9,3.9,10.2,6.7,16.9,6.7
	s14.5-5.3,15.8-6.7C-357.3,312.5-363.8,312.2-365.1,308.8z"/>
<path fill="#257197" d="M-361.6,317.9h-4.7c-0.3,0-0.6-0.2-0.6-0.6v-1.1c0-0.3,0.2-0.6,0.6-0.6h4.7c0.3,0,0.6,0.2,0.6,0.6v1.1
	C-361,317.6-361.3,317.9-361.6,317.9z"/>
</svg>
